<?xml version="1.0" encoding="utf-8"?>
<!-- Generator: Adobe Illustrator 21.0.0, SVG Export Plug-In . SVG Version: 6.00 Build 0)  -->
<svg version="1.1" id="Layer_1" xmlns="http://www.w3.org/2000/svg" xmlns:xlink="http://www.w3.org/1999/xlink" x="0px" y="0px"
	 viewBox="0 0 512 512" style="enable-background:new 0 0 512 512;" xml:space="preserve">
<style type="text/css">
	.st0{fill:#555E6B;}
</style>
<g>
	<path class="st0" d="M406.1,200c-31.6-32-72.9-50.9-117.3-53.9l-0.7-32.7l-0.1,0c0-2.7-0.6-5.5-2-8L277.9,91
		c-16.1-27.9-42-47.9-73.1-56.2c-24.5-6.6-50-5.3-73.3,3.4L112,4.4c-2.2-3.8-7.1-5.1-10.9-2.9c-3.8,2.2-5.1,7.1-2.9,10.9l18.7,32.5
		c-1.2,0.6-2.3,1.3-3.5,1.9c-4.3,2.5-8.4,5.2-12.3,8.1L90.8,37c-2.2-3.8-7.1-5.1-10.9-2.9c-3.8,2.2-5.1,7.1-2.9,10.9l11.8,20.5
		C50.9,103.1,41.4,163,69.2,211.3l8,14.2c1.5,2.7,3.7,4.7,6.2,6.1l27.9,16.9c-12.1,24.8-18.5,52.3-18.5,80.1
		c0,100.9,82.1,183,183,183c100.9,0,183-82.1,183-183C458.9,280.1,440.1,234.4,406.1,200z M442.7,337.2
		c-33.1,4.9-63.6,21.2-86.3,46.2c-2.7,3-5.2,6-7.6,9.1l-32.2-22.6c8.9-15.2,13.9-32.9,13.9-51.7c0-31.7-14.4-60-36.9-78.9l27-22.8
		c6.6,9.8,14.5,18.8,23.5,26.7c25.2,22.1,57.4,34.4,90.9,34.8c5.1,16.2,7.8,33.3,7.8,50.7C442.9,331.5,442.8,334.3,442.7,337.2z
		 M140.5,318.2c0-48,39-87,87-87c48,0,87,39,87,87s-39,87-87,87C179.5,405.2,140.5,366.2,140.5,318.2z M272.8,147.4
		C272.8,147.5,272.8,147.5,272.8,147.4l-152.3,87.9c0,0,0,0,0,0l-13.7-8.2l165.6-95.7L272.8,147.4z M280.2,161.7
		c6.3,0.2,12.5,0.6,18.6,1.5c2.5,13.8,7.1,27.1,13.5,39.4l-32.2,27.2c-15.4-9.2-33.4-14.5-52.6-14.5c-29.1,0-55.3,12.1-74.1,31.5
		l-7.7-7.4L280.2,161.7z M429,261.7c-27.4-1.7-53.6-12.4-74.3-30.6c-19.5-17.1-33-39.8-38.9-64.7c29.7,7.2,56.9,22.6,78.9,44.8
		C409.3,226,420.9,243.1,429,261.7z M121.4,60.6c3.1-1.8,6.2-3.4,9.4-4.8c0.3-0.1,0.5-0.2,0.8-0.4c13.3-5.8,27.5-8.8,41.8-8.8
		c9.1,0,18.2,1.2,27.3,3.6c27,7.2,49.5,24.5,63.4,48.7l8.1,14.2c0,0,0,0,0,0L91.3,217.6c-0.1,0-0.1,0-0.1,0l-8-14.3
		C54.3,153.4,71.5,89.4,121.4,60.6z M129.2,248.8l2.1-1.2l11.9,11.5c-11.8,16.7-18.7,37.1-18.7,59.1c0,31.6,14.3,59.8,36.7,78.7
		l-13.7,38.2c-24.1-28.9-38.5-66.1-38.5-106.6C108.9,300.7,115.9,273.2,129.2,248.8z M159.7,448.4l15-41.8
		c15.4,9.3,33.5,14.6,52.8,14.6c32.2,0,61.1-14.9,80-38.2l32.3,22.6c-13.7,22.6-21.1,48.7-21.1,75.5c0,2.8,0.1,5.8,0.3,8.8
		c-13.7,3.7-28.1,5.6-43,5.6C230.8,495.6,189.8,477.6,159.7,448.4z M334.7,484.9c0-1.3-0.1-2.5-0.1-3.7c0-32.3,11.9-63.2,33.6-87.1
		c19.3-21.2,44.8-35.4,72.8-40.4C431.9,414.1,390.3,463.9,334.7,484.9z"/>
	<path class="st0" d="M141.5,163.1c21,0,38-17,38-38s-17-38-38-38s-38,17-38,38S120.5,163.1,141.5,163.1z M141.5,103.1
		c12.1,0,22,9.9,22,22s-9.9,22-22,22s-22-9.9-22-22S129.4,103.1,141.5,103.1z"/>
	<path class="st0" d="M226.5,128.6c13.2,0,24-10.8,24-24s-10.8-24-24-24s-24,10.8-24,24S213.3,128.6,226.5,128.6z M226.5,96.6
		c4.4,0,8,3.6,8,8s-3.6,8-8,8s-8-3.6-8-8S222.1,96.6,226.5,96.6z"/>
	<circle class="st0" cx="272.1" cy="195.6" r="10"/>
	<circle class="st0" cx="332.6" cy="257.2" r="10"/>
	<circle class="st0" cx="423.1" cy="308.6" r="10"/>
	<circle class="st0" cx="345.1" cy="359.6" r="10"/>
	<circle class="st0" cx="303.1" cy="417.6" r="10"/>
	<circle class="st0" cx="189.1" cy="441.6" r="10"/>
	<circle class="st0" cx="141.1" cy="400.6" r="10"/>
</g>
</svg>
