<?xml version="1.0" encoding="utf-8"?>
<!-- Generator: Adobe Illustrator 21.0.0, SVG Export Plug-In . SVG Version: 6.00 Build 0)  -->
<svg version="1.1" id="Layer_1" xmlns="http://www.w3.org/2000/svg" xmlns:xlink="http://www.w3.org/1999/xlink" x="0px" y="0px"
	 viewBox="0 0 512 512" style="enable-background:new 0 0 512 512;" xml:space="preserve">
<style type="text/css">
	.st0{fill:#555E6B;}
</style>
<g>
	<path class="st0" d="M256,181.3c-43,0-78,35-78,78c0,43,35,78,78,78c43,0,78-35,78-78C334,216.3,299,181.3,256,181.3z M256,321.3
		c-34.2,0-62-27.8-62-62c0-34.2,27.8-62,62-62c34.2,0,62,27.8,62,62C318,293.5,290.2,321.3,256,321.3z"/>
	<path class="st0" d="M365,294.3c-18.2,0-33,14.8-33,33s14.8,33,33,33s33-14.8,33-33S383.2,294.3,365,294.3z M365,344.3
		c-9.4,0-17-7.6-17-17s7.6-17,17-17s17,7.6,17,17S374.4,344.3,365,344.3z"/>
	<path class="st0" d="M300,152.3v-113c0-4.4-3.6-8-8-8s-8,3.6-8,8V150c-9.2-1-18.5-1.6-28-1.6c-10.2,0-20.2,0.6-30,1.8V97.3
		c0-4.4-3.6-8-8-8s-8,3.6-8,8v55.4C95.2,174.3,8,275.4,8,396.4v12.3v7.7v0.3c0,35.3,28.7,64,64,64h368c35.3,0,64-28.7,64-64v-0.3
		v-7.7v-12.3C504,274.7,415.8,173.1,300,152.3z M485.2,360.3H462c-9.6,0-17.5-7.9-17.5-17.5s7.9-17.5,17.5-17.5h14.8
		C480.5,336.6,483.3,348.3,485.2,360.3z M35.2,325.3h91.3c9.6,0,17.5,7.9,17.5,17.5s-7.9,17.5-17.5,17.5H26.8
		C28.7,348.3,31.5,336.6,35.2,325.3z M440,464.7H72c-23.7,0-43.5-17.3-47.3-40h462.7C483.5,447.4,463.7,464.7,440,464.7z M24,408.7
		v-12.3c0-6.8,0.3-13.5,0.9-20.1h101.6c18.5,0,33.5-15,33.5-33.5s-15-33.5-33.5-33.5H41c34.5-84.9,117.9-144.9,215-144.9
		c97.1,0,180.5,60,215,144.9h-9c-18.5,0-33.5,15-33.5,33.5s15,33.5,33.5,33.5h25.1c0.6,6.6,0.9,13.3,0.9,20.1v12.3H24z"/>
</g>
</svg>
