<?xml version="1.0" encoding="utf-8"?>
<!-- Generator: Adobe Illustrator 21.0.0, SVG Export Plug-In . SVG Version: 6.00 Build 0)  -->
<svg version="1.1" id="Layer_1" xmlns="http://www.w3.org/2000/svg" xmlns:xlink="http://www.w3.org/1999/xlink" x="0px" y="0px"
	 viewBox="0 0 512 512" style="enable-background:new 0 0 512 512;" xml:space="preserve">
<style type="text/css">
	.st0{fill:#555E6B;}
</style>
<g>
	<path class="st0" d="M119.9,378H91.6c-4.4,0-8,3.6-8,8s3.6,8,8,8h28.3c4.4,0,8-3.6,8-8S124.3,378,119.9,378z"/>
	<path class="st0" d="M131.6,336h-28.3c-4.4,0-8,3.6-8,8s3.6,8,8,8h28.3c4.4,0,8-3.6,8-8S136,336,131.6,336z"/>
	<path class="st0" d="M143.2,294h-28.1c-4.4,0-8,3.6-8,8s3.6,8,8,8h28.1c4.4,0,8-3.6,8-8S147.6,294,143.2,294z"/>
	<path class="st0" d="M498.1,158.4h-58.6c-2.3-10.8-12-19-23.5-19h-10.1v-1c0-13.2-10.8-24-24-24h-30V97.8
		c0-16.1-13.1-29.2-29.2-29.2h-41.1c-34.8,0-68.3,14.8-91.7,40.5l-5.1,5.3H91.9c-48.5,0-88,39.5-88,88v34c0,13.2,10.8,24,24,24h52.6
		l-43,153.4l-0.1,0.4c-1.6,7.1,0.1,14.5,4.7,20.2c4.6,5.7,11.4,9,18.7,9h71.3c11.1,0,20.9-7.8,23.4-18.7l28.3-102h57.2
		c22.1,0,40-17.9,40-40v-22.3h101c13.2,0,24-10.8,24-24v-0.9H416c11.6,0,21.2-8.2,23.5-19.1h58.6c5.6,0,10-4.4,10-10v-38
		C508.1,162.9,503.6,158.4,498.1,158.4z M281.6,84.6h41.1c7.3,0,13.2,5.9,13.2,13.2v16.6H207.1C227.1,95.4,253.8,84.6,281.6,84.6z
		 M120.9,130.4h109v31c0,4.4-3.6,8-8,8h-93c-4.4,0-8-3.6-8-8V130.4z M19.9,236.4v-34c0-39.7,32.3-72,72-72h13v31
		c0,13.2,10.8,24,24,24h93c13.2,0,24-10.8,24-24v-31h136c4.4,0,8,3.6,8,8v61h-58c-51.9,0-64.8,13.5-76.1,25.3
		c-10.1,10.6-18.8,19.7-60.9,19.7h-167C23.5,244.4,19.9,240.8,19.9,236.4z M140,420.7l-0.1,0.4c-0.8,3.7-4.1,6.3-7.8,6.3H60.8
		c-2.4,0-4.7-1.1-6.2-3c-0.9-1.1-2.2-3.4-1.6-6.5l44.1-157.5h87.3L140,420.7z M264.9,282.7c0,13.2-10.8,24-24,24h-52.7l12.8-46.3
		h9.2c1.7,7.8,5.7,19.5,14.6,24.9c1.3,0.8,2.7,1.2,4.2,1.2c2.7,0,5.3-1.4,6.8-3.8c2.3-3.8,1.1-8.7-2.7-11c-2.7-1.7-4.9-6.4-6.4-11.3
		h38.2V282.7z M381.9,244.4H258.3c3.2-2.6,6.1-5.5,9.1-8.6c10-10.5,19.5-20.4,64.6-20.4h58v21C389.9,240.8,386.3,244.4,381.9,244.4z
		 M424,211.5c0,4.4-3.6,8-8,8h-10.1v-64.1H416c4.4,0,8,3.6,8,8V211.5z M492.1,200.4h-52v-26h52V200.4z"/>
</g>
</svg>
