<?xml version="1.0" encoding="utf-8"?>
<!-- Generator: Adobe Illustrator 21.0.0, SVG Export Plug-In . SVG Version: 6.00 Build 0)  -->
<svg version="1.1" id="Layer_1" xmlns="http://www.w3.org/2000/svg" xmlns:xlink="http://www.w3.org/1999/xlink" x="0px" y="0px"
	 viewBox="0 0 512 512" style="enable-background:new 0 0 512 512;" xml:space="preserve">
<style type="text/css">
	.st0{fill:#555E6B;}
</style>
<g>
	<path class="st0" d="M393.1,168.8c4.4,0,8-3.6,8-8v-30c0-4.4-3.6-8-8-8s-8,3.6-8,8v30C385.1,165.2,388.7,168.8,393.1,168.8z"/>
	<path class="st0" d="M365.1,168.8c4.4,0,8-3.6,8-8v-30c0-4.4-3.6-8-8-8s-8,3.6-8,8v30C357.1,165.2,360.7,168.8,365.1,168.8z"/>
	<path class="st0" d="M337.1,168.8c4.4,0,8-3.6,8-8v-30c0-4.4-3.6-8-8-8s-8,3.6-8,8v30C329.1,165.2,332.7,168.8,337.1,168.8z"/>
	<path class="st0" d="M467.1,248h-19.2c-1.1-9.4-2-18.6-2.7-27.3v-33.9c0-43.3-18.3-80.2-53-106.5c-33.9-25.8-81-39.5-136.1-39.5
		C201,40.8,153.9,54.4,120,80.3c-34.7,26.4-53,63.2-53,106.5v33.9c-0.7,8.7-1.6,17.9-2.7,27.3H53.4V65.2l36.7-5.7
		c6-0.9,11.3-4,15-8.6L130.2,20c2.2-2.6,2.7-6.4,1.2-9.5c-1.5-3.2-4.7-5.2-8.1-5.2H47.4c-4.8,0-8.9,3.4-9.8,8h-0.2v2v52.3v181.6
		c-9.6,3.2-16.5,12.2-16.5,22.8v46.9c0,30.2,13.5,61,36.1,82.5l0,0c2,2,4.1,3.9,6.5,5.5L207,502.6c3.9,2.7,8.5,4.1,13.4,4.1h71.2
		c4.9,0,9.5-1.4,13.4-4.1l143.6-95.8c3-2,5.6-4.3,7.8-6.9c21.7-21.4,34.6-51.6,34.6-81.1V272C491.1,258.8,480.3,248,467.1,248z
		 M92.7,40.9c-1.2,1.5-3,2.5-5,2.8L53.4,49V21.3h55.2L92.7,40.9z M129.7,93c31.1-23.7,74.9-36.2,126.4-36.2
		c51.6,0,95.3,12.5,126.4,36.2c28.3,21.6,44.3,51.1,46.4,85.7H83.3C85.4,144.1,101.3,114.6,129.7,93z M36.9,272c0-4.4,3.6-8,8-8
		h17.4c-4.1,31.3-9.4,63.3-13.4,87.2c-0.6,3.7-1.2,7.2-1.7,10.4c-6.7-13.4-10.3-28.1-10.3-42.6V272z M62.1,369.8
		c0.8-4.7,1.7-10.1,2.6-16c3.3-19.8,7.5-45.3,11.2-71.4c2.4,1.3,4.7,2.6,7.1,3.8c26.2,14.1,50.9,27.5,63.8,51.3
		c27.5,50.6,30.3,102.2,29.9,125.7L72.5,393.6C64.7,388.3,60.6,379,62.1,369.8z M287.8,490.7H224l9.5-206.2l0-0.4
		c0-5.2-3.8-9.5-8.9-10.1c-59.4-7-101-24.1-114.8-30.4l0.3-6.8h291.6l0.3,6.8C388.3,250,346.6,267,287.2,274
		c-5.1,0.6-8.9,4.9-8.9,10v0.2L287.8,490.7z M303.5,484.4l-9-195.1c65.7-8.6,109.7-28.8,118.1-32.9l0.5-0.2c3.2-1.8,5.1-5.1,5.1-8.8
		l-0.8-16.9l0-0.3c-0.4-5.3-4.9-9.2-10.3-9.2H104.7c-5.4,0-9.8,4-10.3,9.2l-0.8,16.6c-0.3,3.8,1.7,7.4,5.1,9.4l0.5,0.2
		c8.3,4.1,52.4,24.3,118.1,32.9l-9,195l-15.9-10.6c1.3-17.2,3-80.3-31.4-143.7c-15.2-28-43.2-43.1-70.3-57.8
		c-4.1-2.2-8.2-4.4-12.3-6.7c2-15.1,3.6-30,4.7-43.8l0-26.9h346.2V221l0,0.6c1.1,13.9,2.8,29,4.8,44.2c-0.5,0.3-1.1,0.6-1.6,0.9
		c-30.1,17.1-58.4,33.2-80.1,67.6c-35,52.3-33.1,120-31.9,138.7L303.5,484.4z M439.8,393.5L336,462.7c-0.5-24.7,2-78.2,29.6-119.5
		l0.1-0.2c18.6-29.6,42.7-44.2,70.5-60c3.7,26.1,8,51.7,11.3,71.5c0.9,5.7,1.8,10.8,2.5,15.3c1.1,6.9-0.9,13.9-5.2,19.1
		c-0.3,0.3-0.6,0.6-0.9,0.9l0.1,0.1C442.8,391.2,441.4,392.5,439.8,393.5z M475.1,318.9c0,14.4-3.6,29-10.2,42.3
		c-0.5-2.9-1-6.1-1.6-9.4c-4-24-9.4-56.3-13.5-87.8h17.2c4.4,0,8,3.6,8,8V318.9z"/>
</g>
</svg>
