<?xml version="1.0" encoding="utf-8"?>
<!-- Generator: Adobe Illustrator 21.0.0, SVG Export Plug-In . SVG Version: 6.00 Build 0)  -->
<svg version="1.1" id="Layer_1" xmlns="http://www.w3.org/2000/svg" xmlns:xlink="http://www.w3.org/1999/xlink" x="0px" y="0px"
	 viewBox="0 0 512 512" style="enable-background:new 0 0 512 512;" xml:space="preserve">
<style type="text/css">
	.st0{fill:#555E6B;}
</style>
<g>
	<path class="st0" d="M365.8,288c0-22.7-18.5-41.2-41.2-41.2s-41.2,18.5-41.2,41.2s18.5,41.2,41.2,41.2S365.8,310.7,365.8,288z
		 M299.4,288c0-13.9,11.3-25.2,25.2-25.2c13.9,0,25.2,11.3,25.2,25.2s-11.3,25.2-25.2,25.2C310.7,313.2,299.4,301.9,299.4,288z"/>
	<circle class="st0" cx="324.6" cy="288" r="10"/>
	<path class="st0" d="M187.4,329.2c22.7,0,41.2-18.5,41.2-41.2s-18.5-41.2-41.2-41.2s-41.2,18.5-41.2,41.2S164.7,329.2,187.4,329.2z
		 M187.4,262.8c13.9,0,25.2,11.3,25.2,25.2s-11.3,25.2-25.2,25.2c-13.9,0-25.2-11.3-25.2-25.2S173.5,262.8,187.4,262.8z"/>
	<circle class="st0" cx="187.4" cy="288" r="10"/>
	<path class="st0" d="M238.7,388l17.3-14.7l17.3,14.7c1.5,1.3,3.3,1.9,5.2,1.9c2.3,0,4.5-1,6.1-2.8c2.9-3.4,2.4-8.4-0.9-11.3
		l-19.6-16.6c-4.7-4.1-11.5-4.1-16.2,0l-19.6,16.6c-3.4,2.9-3.8,7.9-0.9,11.3C230.3,390.4,235.3,390.9,238.7,388z"/>
	<path class="st0" d="M477.1,274.8l-11.6-11.1c-1.9-1.8-3-4.4-3-6.9c-0.3-29.3-2.5-53.7-6.8-76.5c-6.8-34.9-18.9-64.4-36.1-87.6
		c-19.1-25.7-44.4-45.2-75.1-58c-10-4.2-20.6-7.7-31.6-10.4c-7.7-1.9-15.2-4.3-22.8-7.6c-5.4-2.3-10.7-5.6-16.5-10.3
		C268.6,2.2,262.5,0,256,0c-6.4,0-12.4,2.1-17.5,6.1l-0.1,0.1c-5.7,4.7-11.1,8.1-16.4,10.3c-7.7,3.3-15.2,5.7-22.9,7.6
		c-11,2.7-21.6,6.2-31.6,10.4C136.7,47.4,111.4,67,92.4,92.7c-17.2,23.4-29.4,52.9-36.1,87.6c-4.4,22.9-6.5,47.2-6.8,76.4
		c-0.1,2.7-1.1,5.2-2.9,7l-11.7,11.2c-6.4,6.1-9.2,14.9-7.4,23.7l11.5,57.3c1.6,8.3,7.2,15.2,15,18.6l9.2,4c2.6,1.1,4.6,3.4,5.5,6.2
		c1.3,4.6,1.1,14.4,0.9,21.2c-10.1,2-17.7,10.9-17.7,21.6v35.1c0,12.1,9.9,22,22,22h7.4c12.1,0,22-9.9,22-22v-9.5h28.1
		c3,6.8,5.6,12.3,7.5,16.3c2.5,5,6.4,9.1,11.6,11.8c18.5,9.3,66,30.8,105.7,30.8c16.2,0,51.5-4,105.6-30.7l0.1-0.1
		c5-2.6,9.1-6.8,11.6-11.8c1.9-4,4.5-9.5,7.5-16.3H409v9.5c0,12.1,9.9,22,22,22h7.4c12.1,0,22-9.9,22-22v-35.1
		c0-10.7-7.7-19.7-17.9-21.6c-0.2-6.8-0.5-16.6,0.9-21.2c0.8-2.8,2.8-5,5.5-6.2l9.2-4c7.8-3.4,13.4-10.3,15-18.6l11.5-57.4
		C486.3,289.9,483.4,280.8,477.1,274.8z M87.1,462.6c0,3.3-2.7,6-6,6h-7.4c-3.3,0-6-2.7-6-6v-35.1c0-3.3,2.7-6,6-6h7.4
		c3.3,0,6,2.7,6,6V462.6z M358.9,462.4c-0.9,1.9-2.5,3.6-4.4,4.6c-17.8,8.8-62.7,29-98.5,29c-37.3,0-84.8-22.3-98.4-29.1
		c-2-1-3.5-2.6-4.5-4.5c-1-2.1-2.5-5.3-4.4-9.3h62.6H256h44.5h62.8C361.9,456.2,360.4,459.3,358.9,462.4z M256,251.1
		c-13.3-24.7-39.5-41-68.7-41c-31.5,0-57.5,19.2-67.8,49.4h-18.7c0.3-41.2,4.5-97.9,32.9-136.4c34.7-47,91.5-54,122.3-54
		c24.7,0,48.4,4.5,68.7,12.9c22.2,9.3,40.2,23.1,53.6,41.1c13.9,18.8,32.2,53.4,32.9,136.4h-18.7c-10.3-30.2-36.3-49.4-67.8-49.4
		C295.5,210.1,269.3,226.4,256,251.1z M131.7,275.5l1.6-6c6.9-26.8,27.6-43.4,54.1-43.4c29.3,0,54.8,20.6,60.7,49.2v25.4
		c-4.5,20.7-20.2,36.6-42.1,42.5c-4.3,1.2-6.8,5.6-5.6,9.8c1,3.6,4.2,5.9,7.7,5.9c0.7,0,1.4-0.1,2.1-0.3
		c20.3-5.5,36.4-17.9,45.9-34.5c9.5,16.7,25.6,29,45.9,34.5c0.7,0.2,1.4,0.3,2.1,0.3c3.5,0,6.8-2.3,7.7-5.9c1.2-4.3-1.4-8.7-5.6-9.8
		c-21.9-5.9-37.6-21.8-42.1-42.5v-25.4c6-28.6,31.4-49.2,60.7-49.2c26.4,0,47.1,16.6,54.1,43.4l1.6,6h30.6
		c-1.3,27.4-8.3,86.1-40.5,161.6h-69.9v-13.6c0-13.2-10.8-24-24-24h-41.1c-13.2,0-24,10.8-24,24v13.6h-69.6
		c-15-35.8-38.1-100.1-40.7-161.6H131.7z M284.5,437.1H256h-28.6v-13.6c0-4.4,3.6-8,8-8h41.1c4.4,0,8,3.6,8,8V437.1z M444.4,462.6
		c0,3.3-2.7,6-6,6H431c-3.3,0-6-2.7-6-6v-35.1c0-3.3,2.7-6,6-6h7.4c3.3,0,6,2.7,6,6V462.6z M468.9,295.3l-11.5,57.5
		c-0.6,3.1-2.7,5.7-5.6,7l-9.2,4c-7.1,3-12.3,9-14.5,16.4c-2,7-1.8,17.2-1.5,25.8c-10,2.1-17.5,10.9-17.5,21.5v9.6h-21.4
		c16.9-41.3,39.6-108.8,39.6-172.8c0-43.7-3.7-106.8-36.1-150.7c-15.1-20.4-35.3-36-60.3-46.4C308.7,58,282.8,53.1,256,53.1
		c-26.8,0-52.7,4.9-74.9,14.1c-24.9,10.4-45.2,26-60.3,46.4C106.6,133,96.8,157,91,186.9c-4.2,22-6.2,46.6-6.2,77.4
		c0,64.3,22.7,131.6,39.6,172.8h-21.3v-9.6c0-10.7-7.6-19.6-17.7-21.6c0.3-8.5,0.5-18.8-1.5-25.7c-2.2-7.4-7.5-13.4-14.5-16.3
		l-9.2-4c-2.9-1.3-5-3.9-5.6-7L43,295.4c-0.7-3.3,0.4-6.7,2.8-9l11.7-11.2c4.9-4.8,7.7-11.2,7.8-18.3c0.3-28.4,2.4-51.8,6.6-73.7
		c6.3-32.4,17.5-59.7,33.3-81.2c17.3-23.3,40.3-41.1,68.5-52.9c9.4-3.9,18.9-7.1,29.2-9.6c8.4-2,17-4.9,25.3-8.4
		c6.7-2.8,13.4-7,20.3-12.7c1.5-1.2,4.1-2.6,7.5-2.6c2.7,0,5.3,0.9,7.5,2.7c6.9,5.6,13.6,9.7,20.3,12.6c8.4,3.6,16.9,6.4,25.3,8.4
		c10.3,2.6,19.9,5.7,29.3,9.6c28.1,11.7,51.1,29.4,68.4,52.8c15.8,21.3,27,48.6,33.3,81.1c4.2,21.9,6.3,45.3,6.6,73.6
		c0,6.8,2.9,13.5,7.9,18.4l11.6,11.1C468.5,288.7,469.5,292.1,468.9,295.3z"/>
</g>
</svg>
