<?xml version="1.0" encoding="utf-8"?>
<!-- Generator: Adobe Illustrator 21.0.0, SVG Export Plug-In . SVG Version: 6.00 Build 0)  -->
<svg version="1.1" id="Layer_1" xmlns="http://www.w3.org/2000/svg" xmlns:xlink="http://www.w3.org/1999/xlink" x="0px" y="0px"
	 viewBox="0 0 512 512" style="enable-background:new 0 0 512 512;" xml:space="preserve">
<style type="text/css">
	.st0{fill:#555E6B;}
</style>
<g>
	<path class="st0" d="M326.7,235.2L326.7,235.2c-23.1,1-36.6,4.9-45,13.1c-9.7,9.3-9.7,21.1-9.7,29.7v0.3c0,11.6,1.3,23.6,10.6,32.3
		c7.7,7.2,18.7,10.4,35.9,10.4c3,0,6.3-0.1,9.5-0.3c25.7-1.4,43.3-4.9,51.4-17.9c5.2-8.3,5.3-18.5,0.3-30.3
		C374.3,258.9,364,233.7,326.7,235.2z M365.9,294.3c-4.7,7.5-21.4,9.5-38.8,10.5c-3,0.2-5.9,0.3-8.6,0.3c-12.6,0-20.5-1.9-24.9-6
		c-4-3.8-5.6-9.6-5.6-20.7V278c0-8.2,0.3-13.9,4.8-18.2c5.2-5.1,16.2-7.8,34.6-8.6c26.1-1.1,32.5,14.7,37.7,27.3l0,0.1
		C369.3,288.8,366.8,292.9,365.9,294.3z"/>
	<path class="st0" d="M296,480.5c4.4,0,8-3.6,8-8v-34c0-4.4-3.6-8-8-8s-8,3.6-8,8v34C288,476.9,291.6,480.5,296,480.5z"/>
	<path class="st0" d="M256,480.5c4.4,0,8-3.6,8-8v-54c0-4.4-3.6-8-8-8c-4.4,0-8,3.6-8,8v54C248,476.9,251.6,480.5,256,480.5z"/>
	<path class="st0" d="M185.2,235.4c-37-1.8-47.5,23.6-53.2,37.2l7.4,3.1l-7.4-3.1l0,0c-4.9,11.9-4.8,22.1,0.3,30.3
		c6.1,9.6,16.8,16,51.4,17.9c3.5,0.2,6.6,0.3,9.6,0.3c17.3,0,28.3-3.2,35.9-10.4c9.3-8.8,10.6-20.7,10.6-32.3v-0.3
		c0-8.6,0-20.4-9.6-29.6C221.7,240.3,208.2,236.4,185.2,235.4z M223.8,278.5c0,11.1-1.6,16.9-5.6,20.7c-4.3,4.1-12.2,6-24.9,6
		c-2.6,0-5.4-0.1-8.6-0.3c-17.3-1-34-2.9-38.8-10.5c-0.8-1.3-3.3-5.3,0.9-15.7l0,0c5.6-13.4,11.9-28.6,37.7-27.3
		c18.3,0.8,29.3,3.5,34.6,8.7c4.4,4.2,4.7,9.7,4.7,18.1V278.5z"/>
	<path class="st0" d="M216,480.5c4.4,0,8-3.6,8-8v-34c0-4.4-3.6-8-8-8s-8,3.6-8,8v34C208,476.9,211.6,480.5,216,480.5z"/>
	<path class="st0" d="M495.9,423.1l-1-3.2c-10.9-34.7-20.7-65.1-29.3-90.8c-3.8-18.4-25.9-122.6-39.9-141.9
		c-0.2-0.2-0.3-0.4-0.5-0.6c-0.3-26.1-4.5-83.3-33.2-120.6c-31.7-41.1-83-48.2-108.6-49c-0.7-1.1-1.4-2.2-2.2-3.2l-0.8-1
		C274.5,5.3,265.6,1,256,1c-9.6,0-18.5,4.3-24.3,11.8l-0.9,1.1c-0.8,1-1.5,2.1-2.2,3.2c-14.1,0.4-33.5,2.7-53.4,9.9
		c-23.1,8.4-41.6,21.6-55.1,39.1c-28.7,37.2-32.9,94.4-33.2,120.5c-0.2,0.2-0.3,0.4-0.5,0.6C72,207,49.1,316.1,46.1,330.4
		c-15.4,45.7-29.3,90.7-29.9,92.7c-1.4,4.3,0.3,9,4.1,11.4l105.3,68.2c8.1,5.2,17.4,8,27.1,8.2l0,0c0,0,0.1,0,0.1,0
		c0.4,0,0.8,0,1.2,0h203.6c0.4,0,0.8,0,1.2,0c0,0,0.1,0,0.1,0l0,0c9.4-0.3,18.7-3.1,27-8.2l105.6-68.3l0.3-0.2
		C495.8,431.7,497.3,427.2,495.9,423.1z M139.7,490.3c-3-3-4.6-6.9-4.6-11.2c0-4.3,1.7-8.3,4.7-11.4c6.1-6.2,16.3-6.2,22.6,0.1
		c3,3,4.7,6.9,4.7,11.2c0,4.3-1.7,8.3-4.8,11.4c-2.5,2.6-5.9,4.2-9.6,4.5c-2.5-0.1-5-0.5-7.4-1C143.3,493.2,141.3,491.9,139.7,490.3
		z M173.6,456.4c-3.9-3.8-8.4-6.5-13.3-7.9l65-60.3c5.5,5.9,12.8,6.8,16.9,6.8H256h13.8c8.2,0,13.5-3.2,16.9-6.8l65,60.3
		c-4.9,1.5-9.4,4.1-13.3,7.9c-6.1,6-9.4,14-9.4,22.5c0,5.7,1.5,11.2,4.3,16.1H178.8c2.8-4.8,4.3-10.3,4.3-16.1
		C183,470.4,179.7,462.4,173.6,456.4z M233.9,364.4c0-12.2,5.7-26.4,21.9-26.4h0.2h0.2c16.2,0,21.9,14.2,21.9,26.4
		c0,14.6-5.4,14.6-8.3,14.6H256h-13.8C239.3,379,233.9,379,233.9,364.4z M349.7,490.3c-3-3-4.7-7.1-4.7-11.4c0-4.2,1.7-8.2,4.7-11.2
		c6.3-6.2,16.4-6.3,22.6-0.1c6.2,6.3,6.3,16.4,0,22.6c-1.5,1.5-3.4,2.7-5.2,3.4c-2.5,0.7-5.1,1-7.7,1.2
		C355.7,494.6,352.3,493,349.7,490.3z M381.8,454.6l-88.3-82c0.4-2.5,0.6-5.3,0.6-8.3c0-25-15.6-42.4-37.9-42.4H256h-0.2
		c-22.3,0-37.9,17.4-37.9,42.4c0,3,0.2,5.8,0.6,8.3l-88.3,82c-4.5-20.4-12-50.1-22.6-75.9c-13.8-33.5-29.3-58.2-37.2-69.8
		c7.5-21.4,14.7-41,20.4-53.8c7.1-16.1,16.8-38.2,59.7-38.2c20.4,0,36.9,4.5,51.5,8.5c12.6,3.4,24.5,6.6,37,6.6h34.2
		c12.5,0,24.4-3.2,37-6.6c14.6-4,31.1-8.5,51.5-8.5c42.8,0,52.6,22.1,59.7,38.2c5.1,11.5,11.9,29.7,20.3,53.7
		c-7.9,11.6-23.5,36.3-37.3,69.9C393.8,404.5,386.3,434.2,381.8,454.6z M224.2,167v47.4c-5.7-1.1-11.6-2.7-18-4.5
		c-15.6-4.2-33.2-9-55.7-9c-35,0-52.9,13.4-63.2,27.3c4.6-15.4,8.8-27.2,11.9-31.5C120.7,167.3,170.8,167,224.2,167z M287.8,167
		c53.3,0,103.5,0.3,124.9,29.7c3.1,4.3,7.3,15.9,11.8,31.1c-10.3-13.8-28.2-26.9-62.8-26.9c-22.5,0-40.1,4.8-55.7,9
		c-6.5,1.8-12.4,3.4-18.2,4.5V167z M379.3,75.9c21.1,27.4,27.5,67.9,29.3,95c-29.1-19.7-73.8-19.9-120.8-19.9V33.3
		C311.9,34.8,353.5,42.5,379.3,75.9z M243.3,23.8l0.8-1.1c2.9-3.6,7.2-5.7,11.8-5.7s8.9,2.1,11.9,5.8l0.8,1c2,2.6,3.2,5.9,3.2,9.2
		v183h-31.6V33C240.2,29.7,241.3,26.4,243.3,23.8z M132.7,75.9c25.8-33.4,67.4-41.1,91.5-42.6V151c-47,0-91.7,0.2-120.8,19.9
		C105.2,143.7,111.6,103.3,132.7,75.9z M63.8,328.1c8,12.8,19,32.3,29,56.7c15,36.5,23.9,83.1,26,94.3l-85.9-55.6
		C37,410.3,50.1,368.5,63.8,328.1z M393.2,479.2c2-11.2,10.9-57.8,26-94.4c10.1-24.5,21.1-44,29.1-56.8c0.6,1.8,1.2,3.6,1.9,5.5
		c0,0.2,0.1,0.4,0.1,0.5l0.1,0c8.6,25.5,18.3,55.6,29,89.6L393.2,479.2z"/>
</g>
</svg>
