<?xml version="1.0" encoding="utf-8"?>
<!-- Generator: Adobe Illustrator 21.0.0, SVG Export Plug-In . SVG Version: 6.00 Build 0)  -->
<svg version="1.1" id="Layer_1" xmlns="http://www.w3.org/2000/svg" xmlns:xlink="http://www.w3.org/1999/xlink" x="0px" y="0px"
	 viewBox="0 0 512 512" style="enable-background:new 0 0 512 512;" xml:space="preserve">
<style type="text/css">
	.st0{fill:#555E6B;}
</style>
<g>
	<path class="st0" d="M268.2,196.5c16.6,7.3,33.9,11,50.5,11c8.8,0,17.4-1,25.6-3.2c23.9-6.2,41.8-20.7,50.4-40.8
		c9-21.1,6.7-45.5-6.4-68.6c-12.4-21.9-33.2-40.2-58.5-51.3c-25.4-11.2-52.4-14-76.1-7.9c-23.9,6.2-41.8,20.7-50.4,40.8
		c-9,21.1-6.7,45.5,6.4,68.6C222.1,167.1,242.9,185.3,268.2,196.5z M239.4,157.9l27.6-13.7c10.6,10.4,25.5,16.6,40,16.6
		c2.7,0,5.4-0.2,8-0.7l19.7,29.9C301.9,196.1,264.1,182.7,239.4,157.9z M270,106.5c2.1-5,6.8-8.7,13.2-10.3c2.5-0.6,5.1-0.9,7.7-0.9
		c13.6,0,28.4,8,35,19.9l0,0c3.6,6.4,4.3,12.9,2,18.3c-2.1,5-6.8,8.7-13.2,10.3c-15.2,3.9-34.8-4.8-42.7-19
		C268.5,118.5,267.7,111.9,270,106.5z M379.9,157.2c-5.3,12.5-15.5,22.2-29.2,28.1l-20.4-30.9c5.5-3.6,9.8-8.5,12.3-14.5
		c4.2-9.8,3.2-21.4-2.5-32l28.4-14.2c2.1,2.9,4.1,5.9,5.8,9C384.9,121.5,386.9,140.8,379.9,157.2z M357.7,81.2L330.1,95
		c-12.9-12.1-31.8-18.2-48.7-14.8l-19.8-30c5.8-1.2,11.8-1.8,17.8-1.8C307.6,48.5,337,60.9,357.7,81.2z M218.1,82.8
		c5.1-12.1,14.8-21.5,27.7-27.4l20.6,31.2c-4.9,3.5-8.7,8.1-11.1,13.7c-4,9.5-3.3,20.6,2,30.9l-28.5,14.1c-1.8-2.6-3.6-5.3-5.1-8.1
		C213.1,118.5,211.1,99.2,218.1,82.8z"/>
	<path class="st0" d="M436.3,75.7C388.1,27.5,324.1,1,256,1S123.9,27.5,75.7,75.7C39.8,111.6,15.9,156.3,6.1,205
		c-0.1,0.3-0.1,0.6-0.2,0.9c-2.6,13.3-4.2,26.9-4.7,40.7c-0.1,0.6-0.1,1.1-0.1,1.7C1.1,250.8,1,253.4,1,256
		c0,54.3,16.9,106,48.1,149.2c0,0,0,0.1,0.1,0.1c7.9,10.9,16.7,21.3,26.5,31C123.9,484.5,187.9,511,256,511
		c68.1,0,132.1-26.5,180.3-74.7C484.5,388.1,511,324.1,511,256C511,187.9,484.5,123.9,436.3,75.7z M87,87c45.1-45.1,105.2-70,169-70
		c63.8,0,123.9,24.9,169,70c20.8,20.8,37.3,44.8,49,70.8c-13.9,10.9-59.8,44.2-134.2,74c-145.6,58.1-276.5,80.4-314.8,86
		c-2.1-7.8-3.7-15.7-5-23.7c18.6-2.7,38.2-5.9,57.1-9.4c55.4-10.3,111-25.5,148.7-40.6c4.1-1.6,6.1-6.3,4.4-10.4
		c-1.6-4.1-6.3-6.1-10.4-4.4c-36.8,14.8-91.2,29.6-145.7,39.8c-18.7,3.5-37.9,6.6-56.2,9.3c-0.7-7.3-1-14.8-1-22.2
		c0-0.4,0-0.9,0-1.3c8.9-1.2,22.8-3.3,40.9-6.4c30.7-5.2,74.1-13.9,107-25.7c4.2-1.5,6.3-6.1,4.8-10.2c-1.5-4.2-6.1-6.3-10.2-4.8
		c-31.8,11.4-74.3,19.8-104.4,25c-16.2,2.8-28.8,4.7-37.6,5.9c0.6-8.2,1.6-16.2,3-24.2c7.1-1,14.5-2.1,22.2-3.2
		c19.4-3.1,48.2-8.6,71-15c4.3-1.2,6.7-5.6,5.5-9.9c-1.2-4.3-5.6-6.7-9.9-5.5c-22.1,6.2-50.3,11.6-69.2,14.6
		c-5.6,0.9-11,1.7-16.2,2.4c2.1-8.5,4.7-16.9,7.8-25.1c16.2-2.4,37.7-6,55.6-10.5c4.3-1.1,6.9-5.4,5.8-9.7c-1.1-4.3-5.4-6.9-9.7-5.8
		c-14.3,3.5-31.2,6.6-44.5,8.7C50.8,130.2,66.9,107.1,87,87z M425,425c-45.1,45.1-105.2,70-169,70c-38.2,0-74.9-8.9-108-25.7
		c17.8-4.2,33.3-8.6,46.4-13.2c4.2-1.5,6.4-6,4.9-10.2c-1.5-4.2-6-6.4-10.2-4.9c-16.6,5.8-37.4,11.3-61.8,16.5
		c-8.4-5.4-16.5-11.3-24.3-17.8c26.2-5.8,51.7-12.8,71.7-19.9c4.2-1.5,6.3-6,4.9-10.2s-6-6.3-10.2-4.9
		c-22.2,7.9-51.5,15.7-80.9,21.7c-0.5-0.5-1-1-1.5-1.4c-6-6-11.7-12.3-17-18.9c38.3-7.2,77.8-17.1,107.8-27
		c4.2-1.4,6.5-5.9,5.1-10.1c-1.4-4.2-5.9-6.5-10.1-5.1c-36.6,12.1-81.6,22.2-113.5,27.9c-4.9-7-9.3-14.3-13.4-21.7
		c33.6-5.7,108-19.9,163.6-40.7c4.1-1.6,6.2-6.2,4.7-10.3c-1.6-4.1-6.2-6.2-10.3-4.7c-57.1,21.4-135.1,35.7-165.5,40.7
		c-3.3-7.1-6.2-14.4-8.7-21.9c41.6-6.3,171.8-29.1,316-86.6c71.5-28.6,116.7-59.8,134.6-73.4C490,199.4,495,227.3,495,256
		C495,319.8,470.1,379.9,425,425z"/>
</g>
</svg>
