<?xml version="1.0" encoding="utf-8"?>
<!-- Generator: Adobe Illustrator 21.0.0, SVG Export Plug-In . SVG Version: 6.00 Build 0)  -->
<svg version="1.1" id="Layer_1" xmlns="http://www.w3.org/2000/svg" xmlns:xlink="http://www.w3.org/1999/xlink" x="0px" y="0px"
	 viewBox="0 0 512 512" style="enable-background:new 0 0 512 512;" xml:space="preserve">
<style type="text/css">
	.st0{fill:#555E6B;}
</style>
<g>
	<path class="st0" d="M173,302.4c37.1,0,67.3-30.2,67.3-67.3c0-37.1-30.2-67.3-67.3-67.3s-67.3,30.2-67.3,67.3
		C105.7,272.2,135.9,302.4,173,302.4z M173,183.8c28.3,0,51.3,23,51.3,51.3c0,28.3-23,51.3-51.3,51.3s-51.3-23-51.3-51.3
		C121.7,206.8,144.7,183.8,173,183.8z"/>
	<path class="st0" d="M349.3,252.2c22.2,0,40.3-18.1,40.3-40.3c0-22.2-18.1-40.3-40.3-40.3S309,189.7,309,211.9
		C309,234.1,327.1,252.2,349.3,252.2z M349.3,187.6c13.4,0,24.3,10.9,24.3,24.3c0,13.4-10.9,24.3-24.3,24.3S325,225.3,325,211.9
		C325,198.5,335.9,187.6,349.3,187.6z"/>
	<path class="st0" d="M501.8,114.1c-16.1-27.9-57-38.3-115.4-29.6c-37.3-28.5-82.7-44-130.5-44c-57.6,0-111.7,22.4-152.4,63.1
		S40.5,198.4,40.5,256c0,9.2,0.6,18.3,1.7,27.3C5.5,329.4-5.9,370.1,10.2,398c12.4,21.5,39.5,32.6,78,32.6c11.5,0,24-1,37.4-3
		c37.3,28.5,82.7,43.9,130.4,43.9c57.6,0,111.7-22.4,152.4-63.1c40.7-40.7,63.1-94.8,63.1-152.4c0-9.1-0.6-18.2-1.7-27.1
		c18.2-22.9,30.7-45.2,36.1-65.4C511.1,144.3,509.7,127.7,501.8,114.1z M256,56.5c99.2,0,181.6,72.7,196.9,167.6
		c-33.7,40.3-86,83-147.1,118.3c-60.6,35-122.7,59-175.7,68.2C85.2,374,56.5,318.3,56.5,256C56.5,146,146,56.5,256,56.5z M24,390
		c-11.2-19.4-3.2-50,22-85.2c9,38.9,28.7,74.7,57.6,103.6c1.8,1.8,3.5,3.5,5.4,5.2C65.8,417.7,35.2,409.4,24,390z M372.2,418.1
		c-3-5.5-4.8-11.8-4.8-17.6c0-19.4,15.7-35.1,35.1-35.1c5.7,0,11.8,1.7,17.2,4.5C406.7,388.5,390.6,404.8,372.2,418.1z M455.5,256
		c0,36.6-9.9,70.9-27.2,100.4c-8-4.5-17.1-7-25.8-7c-28.2,0-51.1,22.9-51.1,51.1c0,9,2.7,18.4,7.4,26.4
		c-30,18.1-65.2,28.6-102.8,28.6c-39.9,0-77-11.8-108.2-32c51.3-11.1,109.4-34.5,166-67.2c57.6-33.2,106.8-72.1,141.5-110.3
		C455.4,249.3,455.5,252.7,455.5,256z M490.5,159.3c-4,14.8-12.4,31.1-24.5,48c-9-39-28.6-74.7-57.6-103.7c-1.7-1.7-3.5-3.4-5.3-5.1
		c43.2-4.1,73.7,4.2,84.9,23.6C493.6,131.9,494.5,144.4,490.5,159.3z"/>
</g>
</svg>
