<?xml version="1.0" encoding="utf-8"?>
<!-- Generator: Adobe Illustrator 21.0.0, SVG Export Plug-In . SVG Version: 6.00 Build 0)  -->
<svg version="1.1" id="Layer_1" xmlns="http://www.w3.org/2000/svg" xmlns:xlink="http://www.w3.org/1999/xlink" x="0px" y="0px"
	 viewBox="0 0 512 512" style="enable-background:new 0 0 512 512;" xml:space="preserve">
<style type="text/css">
	.st0{fill:#555E6B;}
</style>
<g>
	<path class="st0" d="M220.8,271.2c-49.6,0-90,40.4-90,90s40.4,90,90,90s90-40.4,90-90S270.4,271.2,220.8,271.2z M280.5,317.6
		l-29.8,17.1c-5.6-6.4-13.3-10.9-21.9-12.7v-34.4C250,289.9,268.5,301.2,280.5,317.6z M294.8,361.2c0,10.6-2.3,20.8-6.3,29.9
		L258.7,374c1.4-4,2.1-8.3,2.1-12.8c0-4.4-0.7-8.7-2.1-12.7l29.8-17.1C292.5,340.5,294.8,350.6,294.8,361.2z M220.8,385.2
		c-13.2,0-24-10.8-24-24s10.8-24,24-24s24,10.8,24,24S234,385.2,220.8,385.2z M146.8,361.2c0-10.6,2.3-20.8,6.3-29.9l29.7,17.2
		c-1.3,4-2.1,8.2-2.1,12.7c0,4.4,0.7,8.7,2.1,12.7l-29.8,17.2C149.1,381.9,146.8,371.8,146.8,361.2z M212.8,287.6V322
		c-8.6,1.8-16.3,6.3-21.9,12.7l-29.7-17.2C173.2,301.1,191.7,289.9,212.8,287.6z M161.1,404.9l29.8-17.2
		c5.6,6.4,13.3,10.9,21.9,12.7v34.4C191.6,432.5,173.1,421.2,161.1,404.9z M228.8,434.8v-34.4c8.6-1.8,16.2-6.3,21.9-12.6l29.8,17.2
		C268.4,421.3,249.9,432.5,228.8,434.8z"/>
	<path class="st0" d="M450.4,205.7c-7.5-11.6-22-17.3-36.9-14.4l-0.1,0c-1,0.2-9.8,2.2-17.6,10.1l-62.6,68.4
		c-0.6,0.5-1.6,1.3-2.5,1.7c-0.9-1.9-2.2-6.5-1.7-16.6L338,66.4c0.3-5.8-1.1-11.6-3.8-16.7l-1-1.9c-4.8-8.7-13.5-14.8-23.3-16.3
		l-1.7-0.2c-5.3-0.7-10.3-0.3-14.8,1.2c-11.9,3.9-20.3,14.4-21.5,26.7l-8.4,78.1l-0.9-102.1c0-2.7-0.3-5.3-0.9-7.7
		c-3.2-12.9-13.8-22.2-26.9-23.9L231,3.4c-10.1-1.3-20.4,2.5-27.4,10.1l-2.4,2.7c-5,5.4-7.9,12.6-8.2,20.2l-3.4,95.9L184.1,64l0-0.1
		c-1.4-14.5-8.6-23.2-10.7-25.4c-5.7-7.1-15.5-10.4-22.9-10.4c-8,0-18.6,3.7-24.1,12.1c-1.6,2.2-7.8,11.7-7.8,29.5V70l6.1,82.4
		l-7.6-38.9c-2.1-10.6-5.3-21.2-14.6-27.6c-8.5-5.8-20.8-3.6-26.6-1.4c-19.4,7.3-17.7,34.2-17.2,43.1l0,0c0,0.9,0.1,2,0.2,3.1
		c0.2,1.9,0.4,4.8,0.7,8.4c0.6,7.3,1.5,17.7,2.6,30.3c1.9,22.3,5,56.9,8.4,95c5.9,64.8,13.7,147,17.5,170
		c7.1,43.6,38.7,59.7,52,64.6l0.1,0c21.1,7.6,37,9.9,68.1,9.9c33.6,0,55.9-0.7,81.5-10.9c25.7-10.1,48.2-33.1,66.8-68.3l91.4-172.1
		l0.2-0.4c4.7-10.1,7.2-21,7.5-32.4C455.8,218,454,211.3,450.4,205.7z M433.8,250.4l-90.9,171.1l-0.4,0.8
		c-16.8,31.8-36.5,52.3-58.6,60.9c-23.5,9.3-44,9.7-75.7,9.7c-32.3,0-45.4-2.8-62.7-8.9c-13.2-4.9-36.2-18.1-41.7-52.1
		c-7-43.5-28.8-298.9-29.3-305.2l0-0.2c-1-15.9,1.3-25,6.8-27.1c4.2-1.6,10-1.8,11.9-0.4c4.6,3.2,6.5,10.3,8,17.6l12.7,64.8
		l9.4,48.5c0.6,3.2,2.6,5.9,5.3,7.6c2.7,1.7,6,2.1,9.1,1.3c5.2-1.4,8.7-6.4,8.3-12L134.6,69.4c0.1-12.7,4-18.8,4.6-19.6l0.5-0.6
		c1.8-2.8,6.7-5.1,10.9-5.1c3.9,0,8.6,2,10.4,4.4l0.2,0.4l0.5,0.5c0.2,0.2,5.5,5.7,6.5,15.9l11.7,145.5l0,0.2
		c0.7,6.3,6.3,10.9,12.6,10.3l0.1,0c5.5-0.6,9.9-5.4,10.3-11.1L209,37c0.1-3.8,1.5-7.3,4-9.9l2.5-2.8c3.5-3.8,8.5-5.7,13.5-5
		l3.5,0.4c6.5,0.8,11.7,5.5,13.4,12c0.3,1.1,0.4,2.3,0.4,3.7l1.6,179.3c0,3.3,1.4,6.4,3.9,8.6c2.5,2.2,5.8,3.2,9.1,2.7
		c5.1-0.7,9.2-4.9,9.9-10.2l16.7-154.9c0.6-6.1,4.8-11.3,10.7-13.2c2.2-0.7,4.9-0.9,7.8-0.6l1.5,0.2c4.9,0.8,9.2,3.8,11.5,8.1l1,1.8
		l0.1,0.1c1.4,2.5,2,5.4,1.9,8.2l-9.1,188.5c-0.5,10.5,0,25.2,9.4,31.8l0.5,0.4l0.6,0.3c7.6,3.6,16-0.7,20.9-5.5l0.2-0.2l62.6-68.4
		c4.3-4.2,9.1-5.5,9.4-5.6c6.5-1.2,15.6,0,20.3,7.4c1.9,2.9,2.8,6.5,2.8,10.3C439.5,233.7,437.5,242.4,433.8,250.4z"/>
</g>
</svg>
