<?xml version="1.0" encoding="utf-8"?>
<!-- Generator: Adobe Illustrator 21.0.0, SVG Export Plug-In . SVG Version: 6.00 Build 0)  -->
<svg version="1.1" id="Layer_1" xmlns="http://www.w3.org/2000/svg" xmlns:xlink="http://www.w3.org/1999/xlink" x="0px" y="0px"
	 viewBox="0 0 512 512" style="enable-background:new 0 0 512 512;" xml:space="preserve">
<style type="text/css">
	.st0{fill:#555E6B;}
</style>
<g>
	<path class="st0" d="M349,288c19.3,0,35-15.7,35-35s-15.7-35-35-35s-35,15.7-35,35S329.7,288,349,288z M349,234
		c10.5,0,19,8.5,19,19s-8.5,19-19,19s-19-8.5-19-19S338.5,234,349,234z"/>
	<path class="st0" d="M470.5,237.1L447,212.8v-46.1C447,74.8,372.2,0,280.3,0H256h-24.3C139.8,0,65,74.8,65,166.7v46.1l-23.5,24.4
		c-2.9,3-4.5,6.9-4.5,11.1v93.3c0,4.4,1.9,8.7,5.1,11.7l23.4,21.8c0.3,1.1,0.7,2.2,1.2,3.2l21.9,43.9c2.7,5.5,8.2,8.8,14.3,8.8h14.1
		l18.6,37.2c2.7,5.5,8.2,8.8,14.3,8.8h23.9v4c0,8.8,7.2,16,16,16H202c0.5,8.4,7.5,15,15.9,15h76.1c8.5,0,15.4-6.6,15.9-15h12.1
		c8.8,0,16-7.2,16-16v-4h23.9c6.1,0,11.6-3.4,14.3-8.8l18.6-37.2h14.1c6.1,0,11.6-3.4,14.3-8.8l21.9-43.9c0.5-1,0.9-2.1,1.2-3.2
		l23.4-21.8c3.2-3,5.1-7.3,5.1-11.7v-93.3C475,244.1,473.4,240.1,470.5,237.1z M81,166.7C81,83.6,148.6,16,231.7,16H256h24.3
		C363.4,16,431,83.6,431,166.7v161.1l-98.1,9.2l-22.7-18.4c-2.8-2.3-6.4-3.6-10.1-3.6H256h-44.2c-3.7,0-7.2,1.3-10.1,3.6L179.1,337
		L81,327.7V166.7z M53,248.2l12-12.4V335v7.3v10.4l-12-11.2V248.2z M149.9,461l-18.6-37.2c-2.7-5.5-8.2-8.8-14.3-8.8h-14.1L81,371.1
		v-27.3l92.9,8.8V461H149.9z M264.1,426v70h-16.1v-70H264.1z M231.9,496h-14v-70h14V496z M294.1,496h-14v-70h14V496z M310.1,481v-55
		c0-8.8-7.2-16-16-16h-76.1c-8.8,0-16,7.2-16,16v55h-12.1V348.8l22-17.8H256h44.2l22,17.8V481H310.1z M409.1,415h-14.1
		c-6.1,0-11.6,3.4-14.3,8.8L362.1,461h-23.9V352.5l92.9-8.8v27.3L409.1,415z M459,341.5l-12,11.2v-10.4V335v-99.2l12,12.4V341.5z"/>
	<path class="st0" d="M198,253c0-19.3-15.7-35-35-35s-35,15.7-35,35s15.7,35,35,35S198,272.3,198,253z M163,272
		c-10.5,0-19-8.5-19-19s8.5-19,19-19s19,8.5,19,19S173.5,272,163,272z"/>
</g>
</svg>
