<?xml version="1.0" encoding="utf-8"?>
<!-- Generator: Adobe Illustrator 21.0.0, SVG Export Plug-In . SVG Version: 6.00 Build 0)  -->
<svg version="1.1" id="Layer_1" xmlns="http://www.w3.org/2000/svg" xmlns:xlink="http://www.w3.org/1999/xlink" x="0px" y="0px"
	 viewBox="0 0 512 512" style="enable-background:new 0 0 512 512;" xml:space="preserve">
<style type="text/css">
	.st0{fill:#555E6B;}
</style>
<g>
	<path class="st0" d="M488.3,378.6c-2.5-13.2-6.7-34.9-11.5-59.5l0.1,0c0-0.1-0.1-0.4-0.2-0.7c-0.9-4.4-1.7-9-2.6-13.6l0.1,0
		c-0.1-0.4-0.4-1.7-0.8-3.6c-11.6-59.7-25.2-128.4-27.8-138c-13.5-48.9-33.4-85.6-61-112C351.7,20,308.6,4.1,256,4.1
		c-52.6,0-95.7,15.9-128.4,47.2c-27.6,26.5-47.6,63.1-61,112c-4,14.7-33.8,168.5-42.8,215.4c-1.4,7.6,2.8,15.1,10,17.9l57.1,21.8
		l0.1,0l71.2,61.9l5.5,16.6c1.5,4.7,5,8.3,9.7,10c1.8,0.7,3.7,1,5.5,1c2.9,0,5.8-0.8,8.4-2.4l27.3-17c5.1-3.1,10.9-4.8,16.9-4.8H256
		h20.6c6,0,11.8,1.7,16.9,4.8l27.3,17c2.6,1.6,5.5,2.4,8.4,2.4c1.9,0,3.7-0.3,5.6-1c4.6-1.7,8.1-5.3,9.7-10l5.5-16.6l71.2-61.9
		l57.2-21.8C485.5,393.8,489.7,386.2,488.3,378.6z M256,20.1c76.7,0,129.5,35.3,160.2,107.5c-16.9-20.7-36.6-31.2-58.8-31.2H154.6
		c-22.2,0-41.9,10.5-58.8,31.1C126.6,55.3,179.3,20.1,256,20.1z M424.8,179.3c-18.7-28.5-41.3-42.9-67.4-42.9H154.6
		c-26.1,0-48.7,14.4-67.4,42.9c4.4-13.1,8.5-23.6,12.1-29.3c15.8-24.9,34.4-37.6,55.2-37.6h202.8c20.9,0,39.5,12.6,55.2,37.6
		C416.2,155.7,420.4,166.2,424.8,179.3z M336.1,471.1l-6.9,20.8l-27.3-17c-7.6-4.7-16.4-7.2-25.3-7.2H256h-20.6
		c-9,0-17.7,2.5-25.3,7.2l-27.3,17l-6.9-20.8L105.6,410l121.7-179.9l0.2-0.3H256l28.6,0c0.1,0.1,0.1,0.2,0.2,0.2L406.4,410
		L336.1,471.1z M297.3,220c-3-3.9-7.6-6.2-12.7-6.2H256h-28.5c-4.5,0-8.8,1.9-11.8,5.2l0,0c-0.2,0.2-17.1,20.7-42.7,29.2
		c-31.6,10.4-36.1,9.7-41.3,7.5c-1.6-0.7-4.6-2.4-6.1-6.4c-2.2-5.7-0.8-14,4-24.1c11.1-23.6,32.9-35.6,64.7-35.7
		c5.1,0.5,48,5,61.7,5s56.6-4.5,61.7-5c31.8,0.1,53.5,12.1,64.7,35.7c4.8,10.1,6.2,18.4,4,24.1c-1.5,4-4.5,5.7-6.1,6.4
		c-5.2,2.1-9.7,2.9-41.2-7.5C317,240.8,301.2,224.4,297.3,220z M420.1,401.7l-96.3-142.4c3.2,1.5,6.6,2.9,10.2,4
		c20.5,6.7,31.6,9.6,40,9.6c4.6,0,8.4-0.9,12.4-2.5c4-1.7,11.3-5.9,15-15.4c3.9-10,2.3-22.4-4.5-36.7
		c-17.5-37.1-52.9-44.9-79.5-44.9l-0.8,0c-0.5,0-47,5-60.5,5c-13.4,0-60-4.9-60.5-5l-0.8,0c-26.6,0-62,7.8-79.5,44.9
		c-6.8,14.4-8.4,26.7-4.5,36.7c3.7,9.5,11,13.8,15,15.4c4,1.6,7.7,2.5,12.4,2.5c8.3,0,19.5-2.9,40-9.6c3.6-1.2,7-2.6,10.3-4.1
		L91.9,401.7l-52.4-20c0,0,0,0,0,0c1.9-10,6.2-32.1,11.3-58.4c2.1-7,31.6-106.4,48.6-133.2c15.8-24.9,34.4-37.6,55.2-37.6h202.8
		c20.9,0,39.5,12.6,55.2,37.6c16.4,26,44.7,119.9,48.4,132.3c3.8,19.6,7.7,39.7,11.5,59.3c0,0,0,0.1,0,0.1L420.1,401.7z"/>
	<path class="st0" d="M236,267.1h40c4.4,0,8-3.6,8-8c0-4.4-3.6-8-8-8h-40c-4.4,0-8,3.6-8,8C228,263.5,231.6,267.1,236,267.1z"/>
	<path class="st0" d="M288,281.1h-64c-4.4,0-8,3.6-8,8s3.6,8,8,8h64c4.4,0,8-3.6,8-8S292.4,281.1,288,281.1z"/>
</g>
</svg>
