<?xml version="1.0" encoding="utf-8"?>
<!-- Generator: Adobe Illustrator 21.0.0, SVG Export Plug-In . SVG Version: 6.00 Build 0)  -->
<svg version="1.1" id="Layer_1" xmlns="http://www.w3.org/2000/svg" xmlns:xlink="http://www.w3.org/1999/xlink" x="0px" y="0px"
	 viewBox="0 0 512 512" style="enable-background:new 0 0 512 512;" xml:space="preserve">
<style type="text/css">
	.st0{fill:#555E6B;}
</style>
<path class="st0" d="M484.7,56.4l-31.1-31.1c-4-4-10.2-3.9-14.1,0l-32.5,32.4c-2.4-1.4-5.1-2.4-7.9-3c-7.8-1.4-15.7,1.1-21.3,6.6
	l-38.8,38.8c-4,4-4,10.2,0,14.1l4.3,4.3l-22.6,22.6l-4.3-4.3c-3.1-3.1-8.2-3.1-11.3,0c-3.1,3.1-3.1,8.2,0,11.3l4.3,4.3l-90.5,90.5
	l-4.2-4.2c-3.9-3.9-10.2-3.9-14.1,0l-157,157c-4.6,4.6-7.1,10.7-7.1,17.1c0,6.4,2.6,12.4,7.1,16.8l36.8,36.8c4.7,4.7,10.8,7,17,7
	c6.1,0,12.3-2.3,17-7l157-157c4-4,4-10.2,0-14.1l-4.2-4.2l90.5-90.5l4.3,4.3c1.6,1.6,3.6,2.3,5.7,2.3s4.1-0.8,5.7-2.3
	c3.1-3.1,3.1-8.2,0-11.3l-4.3-4.3l22.6-22.6l4.2,4.2c1.9,1.9,4.4,2.9,7.1,2.9c0.2,0,0.5,0,0.7,0c2.5-0.2,4.8-1.3,6.5-3.1l25.8-25.8
	c7.2-7,9.2-17.8,5-27l-0.3-0.6l-0.4-0.5c-0.2-0.3-0.4-0.6-0.6-0.9l45.3-45.3C488.5,66.7,488.5,60.3,484.7,56.4z M286.7,197.9
	l25.4,25.4L289.5,246L264,220.5L286.7,197.9z M102.8,455.2c-3.1,3.1-8.2,3.1-11.3,0l-36.8-36.8c-1.5-1.5-2.3-3.4-2.3-5.5
	c0-2.1,0.8-4.2,2.4-5.7L71.9,390c10.5,1,31,4.1,41.1,9.9c8,4.7,18.4,14.4,24.6,20.6L102.8,455.2z M148.9,409.2
	c-6.8-6.8-18.3-17.6-27.9-23.1c-9.4-5.4-23.6-8.6-34.8-10.3l121.3-121.3l48.1,48.1L148.9,409.2z M230.1,254.4l22.6-22.6l25.5,25.5
	l-22.6,22.6L230.1,254.4z M323.4,212L298,186.6l22.6-22.6l25.4,25.4L323.4,212z M357.4,178L332,152.6l22.6-22.6l25.4,25.4L357.4,178
	z M424.3,133.5l-21.8,21.8l-48-48l34.5-34.5c1.9-1.9,4.5-2.7,7.1-2.2c2.5,0.5,4.5,2,5.7,4.2c1.3,4.2,6.3,19.5,8.3,23.9
	c3.2,7,13.6,22.8,16.1,26.5C427.4,128,426.7,131.3,424.3,133.5z M430.5,102.1c-2.5-4.1-4.7-7.9-5.8-10.1c-1.3-2.8-5.2-14.5-7.5-21.8
	l29.3-29.2l22.6,22.6L430.5,102.1z"/>
</svg>
