<?xml version="1.0" encoding="utf-8"?>
<!-- Generator: Adobe Illustrator 21.0.0, SVG Export Plug-In . SVG Version: 6.00 Build 0)  -->
<svg version="1.1" id="Layer_1" xmlns="http://www.w3.org/2000/svg" xmlns:xlink="http://www.w3.org/1999/xlink" x="0px" y="0px"
	 viewBox="0 0 512 512" style="enable-background:new 0 0 512 512;" xml:space="preserve">
<style type="text/css">
	.st0{fill:#555E6B;}
</style>
<path class="st0" d="M447.4,86.9l0-0.1c-2.7-6-8.8-9.9-15.4-9.9c-6.7,0-12.8,3.9-15.4,10l-19.2,44.4v17.8l-5.4,5L319.5,12.5
	l-0.3-0.5c-4.4-7.4-12.6-12-21.4-12h-25.2c-9,0-16.3,7.2-16.3,16v58.8h-22.1V16c0-8.8-7.3-16-16.3-16h-25.2c-8.7,0-16.9,4.6-21.4,12
	l-0.1,0.2L67.6,214.4c-4.8,7.9-9,16.2-12.7,24.7l-0.2,0.4l0,0c-0.1,0.2-0.2,0.4-0.3,0.7c-1.6,3.9-1.6,8.3,0,12.2
	c1.7,4,4.8,7.1,8.9,8.7l46.9,18.6l-47.7-3c-4.5-0.3-9.1,1.3-12.4,4.4c-3.2,3-5,7.2-5,11.5v42.9c0,4.3,1.8,8.5,5,11.5
	c3.1,2.9,7.1,4.5,11.3,4.5c0.3,0,0.7,0,1,0l47.1-3l-46.4,18.4c-4.1,1.6-7.2,4.7-8.9,8.7c-1.6,3.9-1.6,8.2,0,12.2
	c15.2,36.3,40.9,67.3,74.5,89.5C163.3,500,203.4,512,245.1,512v0c0.1,0,0.1,0,0.2,0c0,0,0.1,0,0.1,0c0.1,0,0.1,0,0.2,0v0
	c41.7,0,81.8-12,116.1-34.7c33.6-22.2,59.4-53.2,74.5-89.5c1.6-3.9,1.6-8.3,0-12.2c-1.7-4-4.8-7.1-8.9-8.7l-46.4-18.4l47.3,3.1
	c0.3,0,0.7,0,1,0c4.2,0,8.3-1.6,11.3-4.5c3.2-3,5-7.2,5-11.5v-42.9c0-4.3-1.8-8.5-5-11.5c-3.3-3.1-7.8-4.7-12.4-4.4l-47.8,3.1
	l47-18.7c4.1-1.6,7.2-4.7,8.9-8.7c1.6-3.9,1.6-8.2,0-12.2c-2.9-6.8-6.3-13.8-10.2-20.8l33.6-22.1c4.5-3,7.2-8,7.2-13.4v-52.7
	L447.4,86.9z M431.2,93.3c0.1-0.2,0.4-0.4,0.8-0.4c0.3,0,0.7,0.2,0.8,0.5l13.7,31.6h-29L431.2,93.3z M387.8,295.2v37.6l-94.7-6.1
	c1.2-4.1,1.8-8.3,1.8-12.7c0-0.2,0-0.5,0-0.7l0,0l0-0.1c0-1.5-0.1-3-0.3-4.5l-0.5-7.5L387.8,295.2z M197.5,326.8l-94.6,6v-37.7
	l93.6,6l-0.5,7.5c-0.2,1.5-0.3,3-0.3,4.5l0,0.1l0,0c0,0.2,0,0.5,0,0.7C195.7,318.4,196.3,322.7,197.5,326.8z M225.8,91.8l0-0.5
	l0-0.4c0,0,0.1-0.1,0.3-0.1h38.4c0.2,0,0.3,0.1,0.3,0.1l0,0.4l11.8,185.5C268,270,257.1,266,245.3,266c-11.8,0-22.7,4-31.2,10.7
	L225.8,91.8z M211.9,310.2c2-15.9,16.2-28.2,33.4-28.2c17.2,0,31.4,12.3,33.4,28.2l0.2,3.8c0,17.6-15.1,32-33.6,32
	c-18.5,0-33.6-14.3-33.6-32L211.9,310.2z M287.7,199.5c12.7,4.4,24.8,10.7,35.4,18.6l-32.3,30.1L287.7,199.5z M335,207.1
	c-14.3-11.1-30.8-19.6-48.4-24.7l-3-46.6c31.5,6.1,60.6,19.9,85.1,40L335,207.1z M272.7,16h25.2c3.1,0,5.9,1.5,7.5,4l73.4,143.4
	c-27.5-22.7-60.6-37.9-96.2-44.1l-1.8-28.1c0.1-4.1-1.4-8.2-4.3-11.2c-1.2-1.3-2.6-2.3-4.1-3.2V16.1C272.4,16.1,272.5,16,272.7,16z
	 M185.3,20c1.6-2.5,4.4-4,7.5-4H218c0.2,0,0.3,0.1,0.3,0.1v60.7c-1.6,0.8-3,1.9-4.2,3.2c-2.9,3-4.4,7.1-4.3,11.2l-1.8,28.1
	c-33.5,5.9-65.2,19.8-91.8,40.6c-1.5,1.2-3,2.4-4.5,3.6L185.3,20z M69.3,246.2c0-0.1,0-0.1,0.1-0.2l12.2-23.8
	c27-44.2,72.8-76.1,125.4-86.4l-3,46.7c-21.1,6.2-40.7,17.2-56.8,32c-15,13.7-26.7,30.5-34.2,48.9L69.3,246.2
	C69.4,246.2,69.4,246.2,69.3,246.2z M127.8,269.4c6.7-16.2,17-30.9,30.2-43c12.9-11.8,28.2-20.9,44.9-26.7l-5.4,85.5L162,283
	L127.8,269.4z M61.7,335.5c-0.2,0-0.3-0.1-0.4-0.1v-42.7c0.1-0.1,0.2-0.1,0.4-0.1l25.2,1.6v39.7L61.7,335.5z M421.3,381.7
	c-13.9,33.3-37.6,61.8-68.5,82.2c-31.7,21-68.8,32-107.4,32c0,0-0.1,0-0.1,0c-38.6,0-75.7-11.1-107.4-32
	c-30.9-20.5-54.6-48.9-68.5-82.2c0,0,0,0,0,0l43.5-17.3c21.4,52.3,73.5,86.8,132.5,86.9v0c0,0,0.1,0,0.1,0s0.1,0,0.1,0v0
	c58.9-0.1,111.1-34.6,132.4-86.9L421.3,381.7C421.2,381.7,421.2,381.7,421.3,381.7z M363.1,358.6c-19,46.2-65.3,76.7-117.7,76.8
	c-52.4,0-98.7-30.6-117.7-76.8l33.7-13.4l43.9-2.8c9,11.9,23.6,19.6,40,19.6c16.4,0,31-7.8,40-19.7l43.6,2.8L363.1,358.6z
	 M429,292.6c0.2,0,0.3,0.1,0.4,0.1v42.7c-0.1,0.1-0.2,0.1-0.4,0.1l-25.2-1.6v-39.7L429,292.6z M421.3,246.2
	C421.3,246.2,421.3,246.2,421.3,246.2L330,282.4l82.5-54.2C415.8,234.2,418.8,240.3,421.3,246.2z M296.9,285l-3.8,0.2l-1-16.4
	l121.3-112.8V141h37.3l0,42.9L296.9,285z"/>
</svg>
