<?xml version="1.0" encoding="utf-8"?>
<!-- Generator: Adobe Illustrator 21.0.0, SVG Export Plug-In . SVG Version: 6.00 Build 0)  -->
<svg version="1.1" id="Layer_1" xmlns="http://www.w3.org/2000/svg" xmlns:xlink="http://www.w3.org/1999/xlink" x="0px" y="0px"
	 viewBox="0 0 512 512" style="enable-background:new 0 0 512 512;" xml:space="preserve">
<style type="text/css">
	.st0{fill:#555E6B;}
</style>
<path class="st0" d="M498.4,95.2L475.1,55c-7.1-12.3-20.4-19.9-34.6-19.9l-359,0.1v-0.1c-0.7,0-1.4,0-2.1,0.1l-6.2,0
	c-13.9,0-27.1,7.4-34.2,19.3l-25,41.3c-7.6,12.8-7.7,28.6-0.1,41.1l187.6,320.4c7.3,12.2,20.1,19.5,34.4,19.5h43
	c14.2,0,27.4-7.6,34.5-19.8l180.4-313.6l0,0c0,0,0,0,0,0l4.6-7.9C505.6,123.1,505.7,107.7,498.4,95.2z M440.5,51.1
	c8.5,0,16.5,4.6,20.8,11.9l23.3,40.2c1.7,2.9,2.7,6,3.1,9.2c-4.1-3.2-9.2-5-14.7-5c-0.1,0-0.1,0-0.2,0H203.5
	c-8.7,0-16.5,4.5-20.8,12.1c-4.3,7.6-4.3,16.6,0.2,24.2l64.5,108.7l-24.8,42.9c-2.1,3.6-5.5,4-6.9,4c0,0,0,0,0,0
	c-1.4,0-4.8-0.4-6.9-4.1l-134-232c-2.1-3.6-0.8-6.9-0.1-8.1c0.6-1.1,2.3-3.4,5.7-3.9L440.5,51.1z M256.5,236.5l-25.2-42.6H281
	L256.5,236.5z M27.6,104l25-41.3c1.3-2.2,3-4.1,4.9-5.8c-0.5,4.9,0.6,9.9,3.2,14.3l134,231.8c4.3,7.6,12,12.1,20.7,12.2
	c0,0,0.1,0,0.1,0c8.7,0,16.4-4.5,20.8-12l63.2-109.4h49.1c4.2,0,6.2,2.8,6.9,4c0.7,1.2,2.1,4.3,0,7.9L221.7,437.7l-0.3,0.5
	c-1.5,3.1-4.5,3.5-5.7,3.6c-2.9,0.1-5.6-1.4-7.1-4l-0.1,0l-181-309C23,121.2,23.1,111.7,27.6,104z M299.5,449
	c-4.2,7.3-12.2,11.8-20.7,11.8h-43c-4.9,0-9.5-1.5-13.4-4.1c5.7-1.8,10.5-5.7,13.3-11.3l133.8-231.7c4.3-7.5,4.3-16.5-0.1-23.9
	c-4.3-7.5-12.1-11.9-20.8-11.9H221.7l-25.1-42.4c-2.1-3.6-0.8-6.9-0.1-8.1c0.7-1.2,2.8-4,7-4l269.4,0c4.2,0,6.3,2.8,7,4
	c0.7,1.2,2.1,4.4,0,8h0L299.5,449z"/>
</svg>
