<?xml version="1.0" encoding="utf-8"?>
<!-- Generator: Adobe Illustrator 21.0.0, SVG Export Plug-In . SVG Version: 6.00 Build 0)  -->
<svg version="1.1" id="Layer_1" xmlns="http://www.w3.org/2000/svg" xmlns:xlink="http://www.w3.org/1999/xlink" x="0px" y="0px"
	 viewBox="0 0 512 512" style="enable-background:new 0 0 512 512;" xml:space="preserve">
<style type="text/css">
	.st0{fill:#555E6B;}
</style>
<g>
	<path class="st0" d="M471.7,231.9l-0.1-0.2c-0.6-1.2-1.1-2.3-1.6-3.4c-0.3-0.6-0.5-1.1-0.8-1.7l-0.1-0.2
		c-5.3-10.7-10.1-19-12.2-22.6c-0.3-45.5-8.3-100-12.5-111.5c-5.1-14-15.6-21.8-38-27.8c-2.4-10-9.9-30.7-32.9-42.6
		C345.3,7.2,306.8,0,256,0s-89.3,7.2-117.7,21.9c-23,11.9-30.5,32.6-32.9,42.6c-22.4,5.9-32.9,13.7-38,27.8
		c-4.2,11.6-12.2,66.1-12.5,111.5c-2.1,3.6-6.8,11.9-12.2,22.6l-0.1,0.2c-0.3,0.5-0.5,1.1-0.8,1.7c-0.5,1.1-1.1,2.3-1.6,3.5
		l-0.1,0.2c-13.8,29.4-18.8,62.2-14.6,94.8c0.1,0.6,0.1,1.2,0.2,1.8c0.1,0.4,0.1,0.8,0.2,1.2l0,0.2c2.4,20.7,24,33.5,24.9,34
		l31.1,17.2c7.8,26.3,8.9,44.9,8.9,58.6c0,16,19,22.1,34.3,26.9c5.9,1.9,11.4,3.6,14.8,5.5c10.4,5.8,37.2,23.3,47.9,33.5
		c4.3,4.2,10.1,6.4,16.5,6.4H256h51.5c6.3,0,12.2-2.3,16.4-6.4c10.8-10.2,37.6-27.8,48-33.5c3.4-1.9,8.9-3.6,14.8-5.5
		c15.3-4.9,34.3-10.9,34.3-26.9c0-13.7,1.1-32.3,8.9-58.6l31-17.1l0.1-0.1c0.6-0.3,5.8-3.4,11.3-8.8c7.9-7.7,12.6-16.4,13.6-25.2
		l0-0.2c0-0.4,0.1-0.8,0.2-1.2c0.1-0.6,0.2-1.2,0.2-1.8C490.5,294.1,485.5,261.3,471.7,231.9z M145.7,36.1
		C171.8,22.6,207.9,16,256,16s84.2,6.6,110.3,20.1c12.6,6.5,18.9,16.5,22.2,24.3C362.1,54.9,313.7,47,256,47
		c-57.7,0-106,7.9-132.5,13.4C126.8,52.6,133.2,42.6,145.7,36.1z M42,328.1c-0.1-0.6-0.1-1.3-0.2-1.9c-0.1-0.4-0.1-0.8-0.2-1.2
		l0-0.3c-3.8-29.6,0.7-59.3,13.2-86c0.5-1.1,1-2.1,1.5-3.2c2.8,39.8,10.2,91.7,19,123.4l-16.2-9C58.1,349.5,43.5,340.4,42,328.1z
		 M214,496V354c0-23.2,18.8-42,42-42c23.2,0,42,18.8,42,42v142h-42H214z M405,439.7c0,4.3-15.7,9.3-23.2,11.7
		c-6.6,2.1-12.9,4.1-17.7,6.7c-10.6,5.8-37.2,23.1-50.1,34.9V354c0-32-26-58-58-58s-58,26-58,58v139c-12.9-11.7-39.5-29-50.1-34.9
		c-4.8-2.6-11-4.6-17.7-6.7c-7.5-2.4-23.2-7.4-23.2-11.7c0-16.8-1.5-40.6-13.4-75.3C81.4,329,71,247.7,71,206
		c0-44.2,8.1-98.8,11.5-108.3c2.5-6.9,6.6-13,31.7-18.9C134.4,74,188.6,63,256,63s121.6,11,141.8,15.8c25.1,5.9,29.2,12.1,31.7,18.9
		c3.4,9.4,11.5,64,11.5,108.3c0,41.7-10.4,123-22.6,158.4C406.5,399.1,405,422.9,405,439.7z M470.5,324.8l0,0.3
		c0,0.4-0.1,0.8-0.2,1.2c-0.1,0.6-0.2,1.2-0.2,1.9c-1.3,10.5-12.7,19.3-17,21.9l-16.2,9c8.8-31.7,16.2-83.6,19-123.4
		c0.5,1,1,2.1,1.5,3.1C469.7,265.4,474.3,295.2,470.5,324.8z"/>
	<path class="st0" d="M283,132c4.4,0,8-3.6,8-8V88c0-4.4-3.6-8-8-8s-8,3.6-8,8v36C275,128.4,278.6,132,283,132z"/>
	<path class="st0" d="M256,130c4.4,0,8-3.6,8-8V86c0-4.4-3.6-8-8-8c-4.4,0-8,3.6-8,8v36C248,126.4,251.6,130,256,130z"/>
	<path class="st0" d="M229,132c4.4,0,8-3.6,8-8V88c0-4.4-3.6-8-8-8s-8,3.6-8,8v36C221,128.4,224.6,132,229,132z"/>
	<path class="st0" d="M396,164.5c-23.1-9.9-92.5-19.5-140-19.5s-116.9,9.7-140,19.5c-20.3,8.6-39.6,22.7-29.7,61.3
		c7.3,28.5,21,81.5,52.5,101.3c5.7,3.6,11.5,5.4,17.3,5.4c2.8,0,5.6-0.4,8.3-1.3c19.7-6.2,30.8-32.8,35.5-44.2l0.4-1.1
		c5.7-13.4,12.1-24.9,19.1-34.3c11.9-15.8,24.1-23.9,36.5-23.9s24.7,8,36.5,23.9c7,9.4,13.4,20.9,19.1,34.2l0.5,1.1
		c4.7,11.3,15.8,37.9,35.5,44.2c2.7,0.9,5.5,1.3,8.3,1.3c5.8,0,11.6-1.8,17.3-5.4c31.5-19.8,45.2-72.8,52.5-101.3
		C435.7,187.2,416.3,173.2,396,164.5z M410.3,221.8c-6.8,26.3-19.4,75.3-45.5,91.7c-5.9,3.7-9.9,3.1-12.3,2.4
		c-12.6-4-22.4-27.4-25.6-35.1l-0.5-1.1c-10.7-25.4-34.2-67.9-70.4-67.9s-59.6,42.5-70.4,67.9l-0.5,1.1c-3.2,7.7-13,31.1-25.6,35.1
		c-2.4,0.8-6.4,1.4-12.3-2.4c-26.1-16.4-38.7-65.4-45.5-91.7c-6.6-25.8,1.7-34.5,20.5-42.5C141.5,171,207,161,256,161
		s114.5,10,133.8,18.3C408.5,187.3,416.9,196.1,410.3,221.8z"/>
	<path class="st0" d="M256,436.3c-14.3,0-26,11.7-26,26s11.7,26,26,26c14.3,0,26-11.7,26-26S270.3,436.3,256,436.3z M256,472.3
		c-5.5,0-10-4.5-10-10s4.5-10,10-10c5.5,0,10,4.5,10,10S261.5,472.3,256,472.3z"/>
</g>
</svg>
