<?xml version="1.0" encoding="utf-8"?>
<!-- Generator: Adobe Illustrator 21.0.0, SVG Export Plug-In . SVG Version: 6.00 Build 0)  -->
<svg version="1.1" id="Layer_1" xmlns="http://www.w3.org/2000/svg" xmlns:xlink="http://www.w3.org/1999/xlink" x="0px" y="0px"
	 viewBox="0 0 512 512" style="enable-background:new 0 0 512 512;" xml:space="preserve">
<style type="text/css">
	.st0{fill:#555E6B;}
</style>
<g>
	<path class="st0" d="M489.5,81.5l-78.8-28.7c-9.6-3.5-20.1-0.4-26.4,7c-2.8-0.3-5.5-0.5-8.1-0.5h-2.9v0
		c-46.2,0.5-70.4,40.9-70.4,80.7c0,3.8,0.1,7.7,0.3,11.5c0.5,13.5,0.9,27.6-4.4,35.5c-0.6,0.9-1.2,1.8-1.9,2.7
		c-13.3-3.3-27-4.9-40.9-4.9s-27.7,1.7-40.9,4.9c-0.7-0.9-1.3-1.8-1.9-2.7c-5.3-8-4.8-22-4.3-35.5c0.1-3.8,0.3-7.7,0.3-11.5
		c0-39.8-24.2-80.2-70.4-80.7l-2.9,0c-2.6,0-5.3,0.2-8.1,0.6c-6.3-7.4-16.8-10.5-26.4-7L22.4,81.5c-6,2.2-10.8,6.6-13.6,12.4
		c-2.7,5.8-3,12.3-0.8,18.4l11.6,31.9c2.2,6,6.6,10.8,12.4,13.6c3.2,1.5,6.7,2.3,10.2,2.3c2.8,0,5.5-0.5,8.2-1.4l79-28.7
		c6-2.2,10.9-6.6,13.6-12.4c0.4-0.9,0.8-1.9,1.1-2.8c4.3,3.9,5.2,12,5.2,18.5l0,2.8c0,24.4,0,57,10.7,78.6c-1.7,1.2-3.5,2.4-5.2,3.7
		c-29.5,21.8-50.9,51.9-61.7,87l-16.8,54.7c-7.4,23.9-3.1,49.1,11.8,69.3c14.9,20.2,37.8,31.7,62.8,31.7h210.4
		c25,0,47.9-11.6,62.8-31.7c14.8-20.1,19.1-45.4,11.8-69.2L418.9,305c-10.8-35.1-32.1-65.2-61.7-87c-1.7-1.3-3.4-2.5-5.2-3.7
		c10.8-21.6,10.7-54.2,10.7-78.6l0-2.8c0-6.4,1-14.6,5.2-18.5c0.3,1,0.7,1.9,1.1,2.8c2.7,5.8,7.5,10.3,13.6,12.4l78.9,28.7
		c2.7,1,5.4,1.4,8.2,1.4c3.5,0,6.9-0.8,10.2-2.3c5.8-2.7,10.2-7.5,12.4-13.5l11.6-31.9C508.4,99.8,502,86,489.5,81.5z M128.4,110.7
		c-0.9,1.9-2.5,3.4-4.5,4.1l-79,28.7c-4.2,1.5-8.8-0.6-10.3-4.8L23,106.8c-0.7-2-0.6-4.2,0.3-6.1c0.9-1.9,2.5-3.4,4.5-4.1l78.9-28.7
		c0.9-0.3,1.8-0.5,2.7-0.5c3.3,0,6.4,2,7.5,5.3l11.6,32C129.3,106.6,129.3,108.7,128.4,110.7z M165.2,135.8l0-2.8
		c0-16.3-4.8-27.5-14.4-33.3c-2.5-1.5-5.2-2.5-8.1-3l-7.8-21.5c0.3,0,0.6,0,0.9,0h2c17.2,0,31.6,7,41.6,20.3
		c8.7,11.7,13.7,27.9,13.7,44.4c0,3.5-0.1,7.1-0.3,10.9c-0.5,15.5-1,31.5,6.2,43.6c-8.8,3.1-17.3,6.9-25.4,11.5
		C165.2,187.7,165.2,158,165.2,135.8z M165,444.7c3.6-13.8,16.1-24,31-24h120c14.9,0,27.4,10.2,31,24H165z M403.7,309.7l16.8,54.7
		c5.9,19,2.5,39-9.3,55c-11.4,15.5-28.7,24.5-47.8,25.1c-3.8-22.6-23.6-39.9-47.3-39.9H196c-23.7,0-43.5,17.3-47.3,39.9
		c-19.1-0.6-36.4-9.7-47.8-25.1c-11.8-16-15.2-36.1-9.3-55l16.8-54.7c9.8-31.8,29.1-59.1,55.9-78.8c26.8-19.8,58.5-30.2,91.8-30.2
		c33.3,0,65,10.4,91.8,30.2C374.5,250.7,393.9,277.9,403.7,309.7z M361.2,99.7c-9.5,5.7-14.4,16.9-14.4,33.3l0,2.8
		c0,22.3,0,51.9-8.4,70.1c-8.2-4.5-16.7-8.4-25.5-11.5c7.2-12.1,6.7-28.1,6.2-43.6c-0.1-3.8-0.3-7.5-0.3-10.9
		c0-16.5,5-32.6,13.7-44.4c9.9-13.3,24.3-20.3,41.6-20.3h2c0.3,0,0.6,0,0.9,0l-7.8,21.5C366.4,97.3,363.7,98.3,361.2,99.7z
		 M488.9,106.8l-11.6,31.9c-0.7,2-2.2,3.6-4.1,4.5c-1.9,0.9-4.1,1-6.1,0.3l-78.9-28.7l0,0c-2-0.7-3.6-2.2-4.5-4.1
		c-0.9-1.9-1-4.1-0.2-6.1L395,72.6c0.7-2,2.2-3.6,4.1-4.5c1.1-0.5,2.3-0.8,3.4-0.8c0.9,0,1.8,0.2,2.7,0.5l78.8,28.7
		C488.2,98,490.4,102.6,488.9,106.8z"/>
	<path class="st0" d="M334.7,264.1c-3.1-2.8-7.6-3.2-11.1-0.8c-24.6,16.6-82.9,56.1-91.2,64.3c-6.1,6-9.4,14-9.4,22.5
		c0,8.6,3.3,16.7,9.4,22.7c6,6.1,14,9.4,22.5,9.4c0,0,0.1,0,0.1,0c8.5,0,16.6-3.3,22.6-9.4l0,0c2.2-2.2,9-9.1,58.8-97.7
		C338.5,271.4,337.8,266.9,334.7,264.1z M266.3,361.6c-3,3-7,4.7-11.3,4.7c0,0,0,0,0,0c-4.2,0-8.2-1.7-11.2-4.7
		c-3-3-4.7-7.1-4.7-11.4c0-4.2,1.7-8.2,4.7-11.2c4.1-4.1,28.3-21.3,64-45.7C275.3,350.3,267.9,360,266.3,361.6z"/>
	<path class="st0" d="M343.9,311.1c-1.6-4.1-6.2-6.2-10.3-4.6c-4.1,1.6-6.2,6.2-4.6,10.3c2.7,7,4.1,14.3,4.1,21.7v3.9
		c0,4.4,3.6,8,8,8c0.4,0,0.8,0,1.2-0.1H361c4.4,0,8-3.6,8-8s-3.6-8-8-8h-12.1C348.4,326.5,346.8,318.7,343.9,311.1z"/>
	<path class="st0" d="M279.8,272.7c4.2,1.3,8.7-1,10-5.2c1.3-4.2-1-8.7-5.2-10c-6.7-2.1-13.6-3.4-20.6-4v-12.3c0-4.4-3.6-8-8-8
		c-4.4,0-8,3.6-8,8v12.3c-31.8,2.7-60.4,21-76,49.2c-5.3,9.5-8.3,20.4-8.9,31.8H151c-4.4,0-8,3.6-8,8s3.6,8,8,8h20c4.4,0,8-3.6,8-8
		v-3.9c0-10.1,2.4-19.8,7-28.1c14.1-25.5,40.9-41.3,70-41.3C264.1,269.1,272.1,270.3,279.8,272.7z"/>
</g>
</svg>
