<?xml version="1.0" encoding="utf-8"?>
<!-- Generator: Adobe Illustrator 21.0.0, SVG Export Plug-In . SVG Version: 6.00 Build 0)  -->
<svg version="1.1" id="Layer_1" xmlns="http://www.w3.org/2000/svg" xmlns:xlink="http://www.w3.org/1999/xlink" x="0px" y="0px"
	 viewBox="0 0 512 512" style="enable-background:new 0 0 512 512;" xml:space="preserve">
<style type="text/css">
	.st0{fill:#555E6B;}
</style>
<g>
	<path class="st0" d="M487.7,338.4c-15.2-25.2-21.2-75.4-21.8-80.4v-82.3h0c0-46.1-17.9-89.9-50.4-123.3
		C382.7,18.8,339.4,0.2,293.6,0.2H256h-37.6c-45.8,0-89.1,18.6-121.9,52.2C64,85.8,46.1,129.6,46.1,175.7h0V258
		c-0.6,5-6.6,55.2-21.8,80.4c-9,14.9-9.9,34.6-2.6,56.8c5.8,17.9,16.6,36.6,30.4,52.7l0.2,0.2c24.2,28.3,54.3,63.6,98.9,63.6
		c21.7,0,37.2-8,52.2-15.8c15.5-8.1,30.2-15.7,52.6-15.7c22.5,0,37.1,7.6,52.6,15.7c15,7.8,30.4,15.8,52.2,15.8
		c44.6,0,74.7-35.3,98.9-63.6l0.2-0.2c13.8-16.1,24.6-34.8,30.4-52.7C497.5,372.9,496.6,353.3,487.7,338.4z M62.1,183.8h387.8v23
		H62.1V183.8z M255.9,244.8C255.9,244.8,255.9,244.8,255.9,244.8L255.9,244.8c-34.3,0-44.9,13.9-54.3,26.2c-2.3,3-4.5,5.8-7,8.5
		c-21.5,23.1-59.4,25.5-77.6,12.2c-24.5-18-36-38.3-38.3-68.9h354.6c-2.3,30.6-13.8,51-38.3,68.9c-18.2,13.3-56.1,10.9-77.7-12.2
		c-2.5-2.7-4.7-5.5-7-8.5C300.9,258.7,290.3,244.8,255.9,244.8L255.9,244.8C256,244.8,256,244.8,255.9,244.8z M62.1,222.8h0.6
		c2.5,36,16.2,60.8,44.9,81.9c10.7,7.8,23.9,11.3,37.3,11.3c23.1,0,47.2-10.1,61.4-25.5c3.1-3.3,5.6-6.6,8-9.7
		c8.5-11.1,15.2-19.9,41.6-19.9c26.4,0,33.1,8.8,41.6,19.9c2.4,3.2,4.9,6.5,8,9.7c14.3,15.3,38.4,25.4,61.6,25.4
		c13.5,0,26.6-3.4,37.3-11.3c28.7-21,42.4-45.8,44.9-81.9h0.6v35.6l0,0.1h-0.1c0,27.2-14.5,61.7-38.7,92.2
		c-21.1,26.6-45.9,45.1-60.2,45.1c-17.5,0-28.7-10.1-41.8-21.8c-13.7-12.3-29.1-26.2-53.1-26.2c-24,0-39.5,13.9-53.1,26.2
		c-13.1,11.7-24.3,21.8-41.8,21.8c-14.4,0-39.1-18.6-60.2-45.1c-24.2-30.5-38.7-64.9-38.7-92.2h-0.1V222.8z M108,63.6
		c29.7-30.6,68.9-47.4,110.4-47.4H256h37.6c41.5,0,80.7,16.8,110.4,47.4c27.7,28.5,43.7,65.2,45.7,104.2H62.3
		C64.2,128.8,80.3,92.1,108,63.6z M475.1,390.2c-5.1,15.7-15.1,33-27.4,47.3l-0.2,0.2c-23.2,27.2-49.5,58-86.7,58
		c-17.8,0-30.3-6.5-44.8-14c-15.8-8.2-33.6-17.5-60-17.5s-44.3,9.3-60,17.5c-14.5,7.5-27,14-44.8,14c-37.2,0-63.5-30.8-86.7-58
		l-0.2-0.2c-12.3-14.3-22.2-31.6-27.4-47.3c-4-12.3-7.1-29.9,1.1-43.6c7.4-12.3,12.8-29.2,16.5-44.8c7.1,19.6,18.6,39.8,33.8,58.8
		c24.7,31.1,53.3,51.2,72.8,51.2c23.6,0,38.9-13.8,52.5-25.9c13.2-11.8,24.6-22.1,42.4-22.1c17.8,0,29.2,10.2,42.4,22.1
		c13.5,12.2,28.9,25.9,52.5,25.9c19.5,0,48.1-20.1,72.8-51.2c15.1-19.1,26.6-39.3,33.8-58.8c3.8,15.6,9.1,32.5,16.5,44.8
		C482.2,360.3,479.1,377.9,475.1,390.2z"/>
	<path class="st0" d="M368.7,424.8c-14.3,0-26,11.7-26,26s11.7,26,26,26s26-11.7,26-26S383,424.8,368.7,424.8z M368.7,460.8
		c-5.5,0-10-4.5-10-10s4.5-10,10-10s10,4.5,10,10S374.2,460.8,368.7,460.8z"/>
	<path class="st0" d="M69.1,347.9c-3.1-3.1-8.2-3.1-11.3,0l-16.3,16.3c-3.1,3.1-3.1,8.2,0,11.3c1.6,1.6,3.6,2.3,5.7,2.3
		s4.1-0.8,5.7-2.3l16.3-16.3C72.2,356.1,72.2,351.1,69.1,347.9z"/>
	<path class="st0" d="M84.6,371.9c-3.1-3.1-8.2-3.1-11.3,0l-16.3,16.3c-3.1,3.1-3.1,8.2,0,11.3c1.6,1.6,3.6,2.3,5.7,2.3
		s4.1-0.8,5.7-2.3l16.3-16.3C87.7,380.1,87.7,375.1,84.6,371.9z"/>
	<path class="st0" d="M88.7,395.9l-16.3,16.3c-3.1,3.1-3.1,8.2,0,11.3c1.6,1.6,3.6,2.3,5.7,2.3s4.1-0.8,5.7-2.3l16.3-16.3
		c3.1-3.1,3.1-8.2,0-11.3C96.9,392.8,91.9,392.8,88.7,395.9z"/>
</g>
</svg>
