<?xml version="1.0" encoding="utf-8"?>
<!-- Generator: Adobe Illustrator 21.0.0, SVG Export Plug-In . SVG Version: 6.00 Build 0)  -->
<svg version="1.1" id="Layer_1" xmlns="http://www.w3.org/2000/svg" xmlns:xlink="http://www.w3.org/1999/xlink" x="0px" y="0px"
	 viewBox="0 0 512 512" style="enable-background:new 0 0 512 512;" xml:space="preserve">
<style type="text/css">
	.st0{fill:#555E6B;}
</style>
<g>
	<path class="st0" d="M497.5,332.7V189.5h6.5c4.4,0,8-3.6,8-8s-3.6-8-8-8h-6.5v-19.3c0-4.4-3.6-8-8-8s-8,3.6-8,8v19.3H475
		c-4.4,0-8,3.6-8,8s3.6,8,8,8h6.5v143.2c-8.2,3.2-14,11.2-14,20.5v7.9h-22.9c-1,0-2.1,0-3.1,0V219.3h4.2c4.4,0,8-3.6,8-8s-3.6-8-8-8
		h-4.2v-19.2c0-4.4-3.6-8-8-8s-8,3.6-8,8v19.2h-4.3c-4.4,0-8,3.6-8,8s3.6,8,8,8h4.3v141.2c-24.5-1.5-48.8-5.9-72.4-13.1
		c-4.4-5.7-11.3-9.4-19-9.4h-16.9L281.4,23.8C280,11,269.6,1.2,257,0.3V0.2c-0.3,0-0.7,0-1,0c-0.3,0-0.7,0-1,0v0.1
		c-12.6,0.9-23,10.7-24.4,23.5l-35.8,314.3h-16.9c-7.7,0-14.6,3.7-19,9.4c-23.6,7.2-47.9,11.6-72.4,13.1V219.3h4.3c4.4,0,8-3.6,8-8
		s-3.6-8-8-8h-4.3v-19.2c0-4.4-3.6-8-8-8s-8,3.6-8,8v19.2h-4.2c-4.4,0-8,3.6-8,8s3.6,8,8,8h4.2v141.8c-1,0-2.1,0-3.1,0H44.5v-7.9
		c0-9.3-5.8-17.3-14-20.5V189.5H37c4.4,0,8-3.6,8-8s-3.6-8-8-8h-6.5v-19.3c0-4.4-3.6-8-8-8s-8,3.6-8,8v19.3H8c-4.4,0-8,3.6-8,8
		s3.6,8,8,8h6.5v143.2c-8.2,3.2-14,11.2-14,20.5v92c0,12.1,9.9,22,22,22c8.7,0,16.3-5.1,19.9-12.5l48.8,10.6
		c28.5,6.2,58,9.5,87.7,9.9v28.7c0,4.4,3.6,8,8,8s8-3.6,8-8v-24.7l5.2,2.2c17.5,7.4,35.9,11.3,54.9,11.5v0c0.3,0,0.7,0,1,0
		c0.3,0,0.7,0,1,0v0c19-0.3,37.5-4.1,54.9-11.5l5.2-2.2v24.7c0,4.4,3.6,8,8,8s8-3.6,8-8V475c30.6-0.6,61.1-4.3,90.8-11.2l45.1-10.5
		c3.2,8.1,11.2,13.9,20.4,13.9c12.1,0,22-9.9,22-22v-92C511.5,343.9,505.7,335.9,497.5,332.7z M342.1,362.1v49.7c0,9.4-7.6,17-17,17
		s-17-7.6-17-17v-49.7c0-4.4,3.6-8,8-8h18C338.5,354.1,342.1,357.7,342.1,362.1z M256,16.2c4.9,0.5,9,4.3,9.6,9.4l5,43.9
		c-4.2-1.5-9.1-2.7-14.5-2.7c-5.5,0-10.4,1.1-14.5,2.5l5-43.7C247,20.6,251.1,16.7,256,16.2z M169.9,362.1c0-4.4,3.6-8,8-8h18
		c4.4,0,8,3.6,8,8v49.7c0,9.4-7.6,17-17,17s-17-7.6-17-17V362.1z M28.5,445.2c0,3.3-2.7,6-6,6s-6-2.7-6-6v-92c0-3.3,2.7-6,6-6
		s6,2.7,6,6V445.2z M44.5,438.7v-61.6h22.9c3.2,0,6.4-0.1,9.6-0.2c0.5,0.1,1,0.2,1.5,0.2c0.7,0,1.4-0.1,2-0.3
		c24.8-1,49.4-4.8,73.4-11.3v46.2c0,15.4,10.7,28.4,25,32v15.3c-28.5-0.3-56.9-3.5-84.3-9.5L44.5,438.7z M305.7,466.5
		c-15.8,6.7-32.5,10.1-49.7,10.3c-17.2-0.1-33.9-3.6-49.7-10.3l-11.4-4.8v-17.9c14.3-3.6,25-16.6,25-32v-49.7
		c0-7.8-3.8-14.8-9.6-19.2l29-254.6c1.8-1.4,8.1-5.5,16.7-5.5c7.8,0,14.4,4,16.7,5.6l29,254.5c-5.8,4.4-9.6,11.3-9.6,19.2v49.7
		c0,15.4,10.7,28.4,25,32v17.9L305.7,466.5z M420.3,448.2c-28.5,6.6-57.8,10.3-87.2,10.8v-15.2c14.3-3.6,25-16.6,25-32v-46.2
		c24,6.5,48.6,10.3,73.4,11.3c0.6,0.2,1.3,0.3,2,0.3c0.5,0,1-0.1,1.5-0.2c3.2,0.1,6.4,0.2,9.6,0.2h22.9v60.1L420.3,448.2z
		 M495.5,445.2c0,3.3-2.7,6-6,6s-6-2.7-6-6v-92c0-3.3,2.7-6,6-6s6,2.7,6,6V445.2z"/>
	<path class="st0" d="M276.1,212.2c-1.3-10-10-17.6-20.1-17.6c-10.2,0-18.8,7.5-20.1,17.5l-7.3,52.1c-1.6,11.1-0.2,22.7,3.9,33.4
		c3,7.8,10.6,13,19,13h4.6h4.6c8.4,0,16-5.2,19-13c4.1-10.7,5.4-22.2,3.9-33.4L276.1,212.2z M264.6,291.8c-0.6,1.6-2.3,2.8-4,2.8
		H256h-4.6c-1.7,0-3.4-1.1-4-2.8c-3.1-8.2-4.1-17-2.9-25.4l7.3-52.2c0.3-2.1,2.1-3.6,4.3-3.6c2.1,0,4,1.6,4.3,3.7l7.3,52.1
		C268.8,274.9,267.8,283.7,264.6,291.8z"/>
	<path class="st0" d="M256,330.3c-13.2,0-24,10.8-24,24s10.8,24,24,24c13.2,0,24-10.8,24-24S269.2,330.3,256,330.3z M256,362.3
		c-4.4,0-8-3.6-8-8s3.6-8,8-8s8,3.6,8,8S260.4,362.3,256,362.3z"/>
</g>
</svg>
