<?xml version="1.0" encoding="utf-8"?>
<!-- Generator: Adobe Illustrator 21.0.0, SVG Export Plug-In . SVG Version: 6.00 Build 0)  -->
<svg version="1.1" id="Layer_1" xmlns="http://www.w3.org/2000/svg" xmlns:xlink="http://www.w3.org/1999/xlink" x="0px" y="0px"
	 viewBox="0 0 512 512" style="enable-background:new 0 0 512 512;" xml:space="preserve">
<style type="text/css">
	.st0{fill:none;stroke:#555E6B;stroke-width:16;stroke-miterlimit:10;}
	.st1{fill:none;stroke:#555E6B;stroke-width:16;stroke-linecap:round;stroke-miterlimit:10;}
	.st2{fill:#555E6B;}
</style>
<g>
	<g>
		<g>
			<path class="st0" d="M1477.1,1238.8l19.5,112.2c0.3,1.6,1,3,2.1,4.1l64.3,67.7c4.4,4.6,12.1,2.5,13.6-3.6l34.8-140.8l13.7-69.6
				c0-0.3,0-0.5,0-0.8l-13.7-69.6l-34.6-157.2c-1.5-6.6-10-8.5-14.2-3.2l-65.2,85c-0.2,0.3-0.3,0.6-0.4,0.9l-19.9,114.2"/>
			<line class="st1" x1="1524.7" y1="1222.3" x2="1570.2" y2="1425.1"/>
			<line class="st1" x1="1570.7" y1="975" x2="1524.9" y2="1193.4"/>
			<line class="st1" x1="1534.9" y1="1208.3" x2="1625" y2="1208.3"/>
		</g>
	</g>
	<g>
		<g>
			<path class="st0" d="M1322.9,1238.8l-19.5,112.2c-0.3,1.6-1,3-2.1,4.1l-64.3,67.7c-4.4,4.6-12.1,2.5-13.6-3.6l-34.8-140.8
				l-13.7-69.6c0-0.3,0-0.5,0-0.8l13.7-69.6l34.6-157.2c1.5-6.6,10-8.5,14.2-3.2l63.1,82.2c1.6,2.1,2.6,4.5,3.1,7l19.3,110.8"/>
			<line class="st1" x1="1275.3" y1="1222.3" x2="1229.8" y2="1425.1"/>
			<line class="st1" x1="1229.2" y1="975" x2="1275.3" y2="1194.4"/>
			<line class="st1" x1="1265.1" y1="1208.3" x2="1175" y2="1208.3"/>
		</g>
	</g>
	<g>
		<path class="st0" d="M1400,1136.3c39.8,0,72,32.2,72,72s-32.2,72-72,72"/>
		<path class="st0" d="M1400,1136.3c-39.8,0-72,32.2-72,72s32.2,72,72,72"/>
	</g>
	<g>
		<path class="st0" d="M1400,1180.3c14.4,0,26,11.6,26,26s-11.6,26-26,26"/>
		<path class="st0" d="M1400,1180.3c-14.4,0-26,11.6-26,26s11.6,26,26,26"/>
	</g>
	<g>
		<g>
			<g>
				<path class="st0" d="M1534.9,1208.4v-0.3c0-8-6-13.6-14-14.5c-19.7-2.2-43-11-68.2-34.4"/>
			</g>
		</g>
		<g>
			<g>
				<path class="st0" d="M1534.9,1208.4v0.3c0,8-6,13.6-14,14.5c-20,2.2-43.5,11.2-69.1,35.2"/>
			</g>
		</g>
	</g>
	<g>
		<g>
			<g>
				<path class="st0" d="M1265.1,1208.4v-0.3c0-8,6-13.6,14-14.5c19.7-2.2,43-11,68.2-34.4"/>
			</g>
		</g>
		<g>
			<g>
				<path class="st0" d="M1265.1,1208.4v0.3c0,8,6,13.6,14,14.5c20,2.2,43.5,11.2,69.1,35.2"/>
			</g>
		</g>
	</g>
</g>
<g>
	<path class="st2" d="M475.2,188.9L440.5,31.3c-1.3-5.6-5.3-9.9-10.6-11.7c-0.5-0.2-1-0.4-1.5-0.5c-0.3-0.1-0.7-0.1-1-0.1
		c-5.7-0.9-11.4,1.3-15.1,5.9L347,110l-0.3,0.4c-0.8,1.2-1.2,2.3-1.3,2.8l-0.2,0.6l-17.9,102.4c-4.4-3.3-8.8-6.9-13.1-10.9l0,0.1
		c-14.6-15.4-35.2-25.1-58.1-25.1c-22.9,0-43.5,9.7-58.1,25.1l0-0.1c-4.3,4-8.7,7.7-13.1,10.9l-17.2-98.6l0-0.2
		c-0.8-3.8-2.3-7.3-4.6-10.3L99.8,25l-0.1-0.1c-3.6-4.6-9.3-6.8-15-5.9c-0.4,0-0.8,0.1-1.2,0.1c-0.6,0.1-1.2,0.3-1.8,0.6
		c-5.2,1.8-9.1,6.1-10.3,11.6L36.9,188.6L23,259.1v2.4l13.9,70.4l0,0.2l34.7,141.1c1.4,5.7,5.8,10.1,11.4,11.6
		c1.4,0.4,2.8,0.5,4.1,0.5c4.3,0,8.5-1.8,11.6-5l64.2-67.6c2.2-2.2,3.6-5,4.2-8.2l17.4-100c4.7,3.5,9.4,7.4,14.1,11.8l0.1-0.1
		c14.5,14.9,34.8,24.1,57.2,24.1s42.7-9.3,57.2-24.1l0.1,0.1c4.7-4.4,9.3-8.3,14.1-11.8l17.4,99.9l0,0.1c0.6,3.2,2.1,6,4.2,8.2
		l64.3,67.7c3.1,3.2,7.3,5,11.6,5c1.4,0,2.8-0.2,4.1-0.5c5.7-1.5,10-6,11.4-11.6l34.8-140.8l13.9-70.7v-2.4L475.2,188.9z M459.6,192
		l11.9,60.3h-73.9c-1.5-4.1-4.2-7.6-7.8-10.2l39.4-187.9L459.6,192z M333.1,281.6c1.9-6.8,2.9-13.9,2.9-21.3c0-7.3-1-14.3-2.8-21.1
		c13.9,7.9,28.3,12.7,42.8,14.3c3.3,0.4,6.9,2.3,6.9,6.5v0.3v0.3c0,3-1.8,4.9-4.1,5.8c-0.5,0.1-0.9,0.3-1.4,0.5
		c-0.5,0.1-1,0.2-1.5,0.3C361.5,268.9,347.1,273.7,333.1,281.6z M360.5,118.6L413.9,49l-39.5,188.2c-11-1.7-21.9-5.5-32.6-11.4
		L360.5,118.6z M136,267.2c-0.5-0.1-1-0.2-1.5-0.3c-0.4-0.2-0.9-0.3-1.3-0.4c-2.3-0.9-4.1-2.8-4.1-5.8v-0.3v-0.3
		c0-4.3,3.6-6.2,6.9-6.5c14.6-1.6,28.9-6.4,42.8-14.3C177,246,176,253,176,260.3c0,7.4,1,14.5,2.9,21.3
		C164.9,273.7,150.6,268.9,136,267.2z M150.2,116.9c0.8,1,1.3,2.2,1.6,3.6l18.3,105.2c-10.7,5.9-21.6,9.8-32.6,11.4L98,48.9
		L150.2,116.9z M82.8,54.4l39.5,187.8c-3.6,2.6-6.2,6.1-7.7,10.2H40.6l11.9-60.4L82.8,54.4z M52.5,328.6l-11.9-60.3h73.8
		c1.5,4.1,4.1,7.7,7.7,10.3L83.1,452.7L52.5,328.6z M151.5,401.6C151.5,401.6,151.5,401.6,151.5,401.6l-53.1,55.9l39-173.9
		c11,1.6,21.9,5.4,32.6,11.4L151.5,401.6z M256,324.3c-35.3,0-64-28.7-64-64c0-35.3,28.7-64,64-64c35.3,0,64,28.7,64,64
		C320,295.6,291.3,324.3,256,324.3z M360.5,401.6L360.5,401.6C360.5,401.6,360.5,401.6,360.5,401.6L341.9,295
		c10.8-5.9,21.7-9.8,32.6-11.4l39,173.9L360.5,401.6z M428.9,452.7l-39.1-174.1c3.6-2.6,6.2-6.2,7.7-10.3h73.9l-11.9,60.4
		L428.9,452.7z"/>
	<path class="st2" d="M256,224.3c-18.7,0-34,15.3-34,34c0,18.7,15.3,34,34,34c18.7,0,34-15.3,34-34C290,239.6,274.7,224.3,256,224.3
		z M256,276.3c-9.9,0-18-8.1-18-18c0-9.9,8.1-18,18-18c9.9,0,18,8.1,18,18C274,268.2,265.9,276.3,256,276.3z"/>
</g>
</svg>
