<?xml version="1.0" encoding="utf-8"?>
<!-- Generator: Adobe Illustrator 21.0.0, SVG Export Plug-In . SVG Version: 6.00 Build 0)  -->
<svg version="1.1" id="Layer_1" xmlns="http://www.w3.org/2000/svg" xmlns:xlink="http://www.w3.org/1999/xlink" x="0px" y="0px"
	 viewBox="0 0 512 512" style="enable-background:new 0 0 512 512;" xml:space="preserve">
<style type="text/css">
	.st0{fill:#C9CBCF;}
	.st1{fill:#555E6B;}
</style>
<g>
	<g>
		<path class="st0" d="M140.5,318.2c0-48,39-87,87-87s87,39,87,87s-39,87-87,87S140.5,366.2,140.5,318.2z M429,261.7
			c-27.4-1.7-53.6-12.4-74.3-30.6c-19.5-17.1-33.1-39.8-38.9-64.8c29.7,7.3,56.9,22.6,78.9,44.8C409.3,226,420.9,243.1,429,261.7z
			 M394,446.6c-17.1,17.1-37.3,30-59.2,38.3c0-1.2-0.1-2.5-0.1-3.7c0-32.3,12-63.2,33.7-87.1c19.3-21.2,44.8-35.3,72.7-40.4
			C435.8,388.8,419.5,421.1,394,446.6z"/>
	</g>
	<g>
		<path class="st0" d="M141.5,103.1c12.1,0,22,9.9,22,22s-9.9,22-22,22s-22-9.9-22-22S129.3,103.1,141.5,103.1z"/>
	</g>
	<g>
		<path class="st0" d="M226.5,96.6c4.4,0,8,3.6,8,8s-3.6,8-8,8s-8-3.6-8-8S222.1,96.6,226.5,96.6z"/>
	</g>
</g>
<g>
	<path class="st1" d="M406.1,199.9c-31.6-31.9-72.9-50.8-117.3-53.9l-0.7-32.7l0,0c0-2.7-0.6-5.5-2-8L278,90.9
		C248.2,39.3,185.6,18,131.5,38.3L112,4.4c-2.2-3.8-7.1-5.1-10.9-2.9c-3.8,2.2-5.1,7.1-2.9,10.9l18.7,32.4c-1.2,0.6-2.3,1.3-3.5,1.9
		c-4.3,2.5-8.3,5.2-12.2,8.1L90.9,37c-2.2-3.8-7.1-5.1-10.9-2.9c-3.8,2.2-5.1,7.1-2.9,10.9l11.8,20.5C73.8,80.4,62.9,99,57.2,120
		c-8.3,31.1-4.1,63.6,12,91.4l8,14.2c1.5,2.6,3.6,4.7,6.1,6.1l0,0l28,16.9c-12.1,24.8-18.4,52.3-18.4,80.1c0,100.9,82.1,183,183,183
		c100.9,0,183-82.1,183-183C458.9,280.1,440.1,234.4,406.1,199.9z M442.7,337.2c-33.1,4.9-63.5,21.1-86.2,46.1c-2.7,3-5.2,6-7.7,9.2
		l-32.3-22.6c8.8-15.2,13.9-32.8,13.9-51.6c0-31.7-14.4-60-36.9-78.9l27-22.9c6.6,9.8,14.5,18.7,23.5,26.7
		c25.2,22.1,57.4,34.4,90.9,34.8c5.1,16.2,7.8,33.2,7.8,50.7C442.9,331.5,442.8,334.3,442.7,337.2z M140.5,318.2c0-48,39-87,87-87
		c48,0,87,39,87,87s-39,87-87,87C179.5,405.2,140.5,366.2,140.5,318.2z M272.8,147.4l-152.3,87.9l-13.7-8.2l165.7-95.6L272.8,147.4z
		 M280.2,161.6c6.3,0.2,12.5,0.7,18.6,1.5c2.5,13.8,7.1,27.1,13.5,39.4l-32.2,27.2c-15.4-9.2-33.4-14.5-52.6-14.5
		c-29,0-55.3,12.1-74.1,31.5l-7.7-7.4L280.2,161.6z M429,261.7c-27.4-1.7-53.6-12.4-74.3-30.6c-19.5-17.1-33.1-39.8-38.9-64.8
		c29.7,7.3,56.9,22.6,78.9,44.8C409.3,226,420.9,243.1,429,261.7z M121.4,60.7c16.4-9.5,34.4-14,52.1-14c36.1,0,71.3,18.7,90.6,52.2
		l8.1,14.3c0,0,0,0,0,0v0l-181,104.5l-8-14.3C54.3,153.5,71.5,89.5,121.4,60.7z M129.1,248.9l2.1-1.2l11.9,11.5
		c-11.8,16.7-18.7,37.1-18.7,59.1c0,31.6,14.3,59.8,36.7,78.8l-13.7,38.2c-24.1-28.9-38.6-66.1-38.6-106.6
		C108.9,300.7,115.9,273.2,129.1,248.9z M159.7,448.4l15-41.7c15.4,9.3,33.5,14.6,52.8,14.6c32.3,0,61.1-14.9,80-38.2l32.3,22.7
		c-13.7,22.6-21.1,48.6-21.1,75.5c0,2.9,0.1,5.8,0.3,8.7c-13.7,3.7-28.2,5.6-43.1,5.6C230.8,495.6,189.8,477.6,159.7,448.4z
		 M334.7,484.8c0-1.2-0.1-2.4-0.1-3.6c0-32.3,12-63.2,33.7-87.1c19.3-21.2,44.8-35.3,72.7-40.4C431.8,414,390.3,463.9,334.7,484.8z"
		/>
	<path class="st1" d="M141.5,163.1c21,0,38-17,38-38s-17-38-38-38s-38,17-38,38S120.5,163.1,141.5,163.1z M141.5,103.1
		c12.1,0,22,9.9,22,22s-9.9,22-22,22s-22-9.9-22-22S129.3,103.1,141.5,103.1z"/>
	<path class="st1" d="M226.5,128.6c13.2,0,24-10.8,24-24s-10.8-24-24-24s-24,10.8-24,24S213.2,128.6,226.5,128.6z M226.5,96.6
		c4.4,0,8,3.6,8,8s-3.6,8-8,8s-8-3.6-8-8S222.1,96.6,226.5,96.6z"/>
	<circle class="st1" cx="272.1" cy="195.6" r="10"/>
	<circle class="st1" cx="332.6" cy="257.2" r="10"/>
	<circle class="st1" cx="423.1" cy="308.6" r="10"/>
	<circle class="st1" cx="345.1" cy="359.6" r="10"/>
	<circle class="st1" cx="303.1" cy="417.6" r="10"/>
	<circle class="st1" cx="189.1" cy="441.6" r="10"/>
	<circle class="st1" cx="141.1" cy="400.6" r="10"/>
</g>
</svg>
