<?xml version="1.0" encoding="utf-8"?>
<!-- Generator: Adobe Illustrator 21.0.0, SVG Export Plug-In . SVG Version: 6.00 Build 0)  -->
<svg version="1.1" id="Layer_1" xmlns="http://www.w3.org/2000/svg" xmlns:xlink="http://www.w3.org/1999/xlink" x="0px" y="0px"
	 viewBox="0 0 512 512" style="enable-background:new 0 0 512 512;" xml:space="preserve">
<style type="text/css">
	.st0{fill:#C9CBCF;}
	.st1{fill:#555E6B;}
</style>
<g>
	<g>
		<path class="st0" d="M256,321.3c-34.2,0-62-27.8-62-62s27.8-62,62-62s62,27.8,62,62S290.2,321.3,256,321.3z"/>
	</g>
	<g>
		<path class="st0" d="M365,344.3c-9.4,0-17-7.6-17-17s7.6-17,17-17s17,7.6,17,17S374.4,344.3,365,344.3z"/>
	</g>
	<g>
		<path class="st0" d="M485.2,360.3H462c-9.6,0-17.5-7.9-17.5-17.5s7.9-17.5,17.5-17.5h14.9C480.6,336.7,483.3,348.4,485.2,360.3z
			 M35.1,325.3h91.4c9.6,0,17.5,7.9,17.5,17.5s-7.9,17.5-17.5,17.5H26.8C28.7,348.4,31.4,336.7,35.1,325.3z"/>
	</g>
</g>
<g>
	<path class="st1" d="M256,181.3c-43,0-78,35-78,78c0,43,35,78,78,78c43,0,78-35,78-78C334,216.3,299,181.3,256,181.3z M256,321.3
		c-34.2,0-62-27.8-62-62c0-34.2,27.8-62,62-62c34.2,0,62,27.8,62,62C318,293.5,290.2,321.3,256,321.3z"/>
	<path class="st1" d="M365,294.3c-18.2,0-33,14.8-33,33s14.8,33,33,33s33-14.8,33-33S383.2,294.3,365,294.3z M365,344.3
		c-9.4,0-17-7.6-17-17s7.6-17,17-17s17,7.6,17,17S374.4,344.3,365,344.3z"/>
	<path class="st1" d="M431.4,221.1c-36.3-36.3-81.9-59.9-131.4-68.8v-113c0-4.4-3.6-8-8-8s-8,3.6-8,8V150c-9.2-1-18.6-1.6-28-1.6
		c-10.1,0-20.1,0.6-30,1.8V97.3c0-4.4-3.6-8-8-8s-8,3.6-8,8v55.4c-48.7,9.1-93.6,32.6-129.4,68.4C33.8,267.9,8,330.2,8,396.4v12.3
		v7.7v0.3c0,35.3,28.7,64,64,64h368c35.3,0,64-28.7,64-64v-0.3v-7.7v-12.3C504,330.2,478.2,267.9,431.4,221.1z M485.2,360.3H462
		c-9.6,0-17.5-7.9-17.5-17.5s7.9-17.5,17.5-17.5h14.9C480.6,336.7,483.3,348.4,485.2,360.3z M35.1,325.3h91.4
		c9.6,0,17.5,7.9,17.5,17.5s-7.9,17.5-17.5,17.5H26.8C28.7,348.4,31.4,336.7,35.1,325.3z M440,464.7H72c-23.7,0-43.5-17.3-47.3-40
		h462.7C483.5,447.4,463.7,464.7,440,464.7z M24,408.7v-12.3c0-6.8,0.3-13.5,0.9-20.1h101.6c18.5,0,33.5-15,33.5-33.5
		s-15-33.5-33.5-33.5H40.9c11.5-28.4,28.7-54.6,51.1-76.9c43.8-43.8,102.1-68,164-68c11.6,0,23.1,0.8,34.3,2.5
		c0.2,0.1,0.5,0.1,0.8,0.1c48.6,7.3,93.5,29.9,128.9,65.3c22.4,22.3,39.6,48.5,51.1,76.9H462c-18.5,0-33.5,15-33.5,33.5
		s15,33.5,33.5,33.5h25.1c0.6,6.7,0.9,13.4,0.9,20.1v12.3H24z"/>
</g>
</svg>
