<?xml version="1.0" encoding="utf-8"?>
<!-- Generator: Adobe Illustrator 21.0.0, SVG Export Plug-In . SVG Version: 6.00 Build 0)  -->
<svg version="1.1" id="Layer_1" xmlns="http://www.w3.org/2000/svg" xmlns:xlink="http://www.w3.org/1999/xlink" x="0px" y="0px"
	 viewBox="0 0 512 512" style="enable-background:new 0 0 512 512;" xml:space="preserve">
<style type="text/css">
	.st0{fill:#C9CBCF;}
	.st1{fill:#555E6B;}
</style>
<g>
	<g>
		<path class="st0" d="M92.7,40.9c-1.3,1.5-3,2.6-5,2.9L53.4,49V21.3h55.2L92.7,40.9z M36.9,271.9c0-4.4,3.6-8,8-8h17.3
			c-4.1,31.3-9.4,63.3-13.4,87.2c-0.6,3.7-1.2,7.1-1.7,10.3c-6.6-13.4-10.3-28.1-10.3-42.6V271.9z M303.8,484.2l-9-194.9
			c65.6-8.5,109.6-28.8,118-32.8c3.6-1.8,5.8-5.5,5.6-9.5l-0.8-16.5c-0.3-5.4-4.7-9.5-10.3-9.5H104.8c-5.6,0-10,4.1-10.3,9.5
			L93.7,247c-0.2,4,2,7.7,5.6,9.5c8.3,4.1,52.4,24.3,118,32.8l-9,194.9l-15.9-10.6c1.2-17.1,3-80.3-31.5-143.7
			c-15.2-28-43.2-43.1-70.2-57.6c-4.1-2.2-8.3-4.5-12.5-6.8c2-15.1,3.6-30.1,4.7-43.9l0-26.8h346.2v26.2l0,0.6
			c1.1,14,2.8,29.1,4.8,44.4c-0.5,0.3-1.1,0.6-1.6,0.9c-30,17.1-58.4,33.2-80,67.5c-34.9,52.3-33.1,119.9-31.8,138.7L303.8,484.2z
			 M475.1,318.8c0,14.5-3.6,29.2-10.3,42.6c-0.5-3.2-1.1-6.7-1.7-10.3c-4-23.8-9.3-55.9-13.4-87.2h17.3c4.4,0,8,3.6,8,8V318.8z"/>
	</g>
</g>
<g>
	<path class="st1" d="M393.1,168.8c4.4,0,8-3.6,8-8v-30c0-4.4-3.6-8-8-8s-8,3.6-8,8v30C385.1,165.3,388.7,168.8,393.1,168.8z"/>
	<path class="st1" d="M365.1,168.8c4.4,0,8-3.6,8-8v-30c0-4.4-3.6-8-8-8s-8,3.6-8,8v30C357.1,165.3,360.7,168.8,365.1,168.8z"/>
	<path class="st1" d="M337.1,168.8c4.4,0,8-3.6,8-8v-30c0-4.4-3.6-8-8-8s-8,3.6-8,8v30C329.1,165.3,332.7,168.8,337.1,168.8z"/>
	<path class="st1" d="M467.1,247.9h-19.3c-1.1-9.4-2-18.6-2.7-27.3v-33.9c0-43.3-18.3-80.2-53-106.5c-33.9-25.8-81-39.5-136.1-39.5
		S153.8,54.3,119.9,80.2c-34.7,26.4-53,63.2-53,106.5v33.9c-0.7,8.7-1.6,17.9-2.7,27.3H53.4V65.2l36.7-5.6c5.9-0.9,11.2-4,15-8.6
		l25.2-31c2.2-2.7,2.6-6.4,1.1-9.5c-1.5-3.1-4.7-5.1-8.1-5.1H47.4c-4.8,0-8.9,3.4-9.8,8h-0.2v2v52.3v181.5
		c-9.6,3.2-16.5,12.2-16.5,22.8v46.9c0,30.1,13.4,60.9,35.9,82.3c2,2.1,4.2,4,6.7,5.6l143.6,95.8c4,2.6,8.6,4,13.3,4h71.2
		c4.8,0,9.4-1.4,13.3-4l143.6-95.8c2.5-1.6,4.7-3.5,6.7-5.6c22.5-21.4,35.9-52.2,35.9-82.3v-46.9
		C491.1,258.7,480.3,247.9,467.1,247.9z M92.7,40.9c-1.3,1.5-3,2.6-5,2.9L53.4,49V21.3h55.2L92.7,40.9z M129.6,92.9
		c31.1-23.7,74.8-36.2,126.4-36.2s95.3,12.5,126.4,36.2c28.4,21.6,44.3,51.1,46.4,85.8H83.2C85.3,144,101.2,114.5,129.6,92.9z
		 M36.9,271.9c0-4.4,3.6-8,8-8h17.3c-4.1,31.3-9.4,63.3-13.4,87.2c-0.6,3.7-1.2,7.1-1.7,10.3c-6.6-13.4-10.3-28.1-10.3-42.6V271.9z
		 M62,369.7c0.8-4.7,1.7-10.1,2.6-16c3.3-19.8,7.5-45.3,11.2-71.3c2.4,1.3,4.8,2.6,7.2,3.9c26.1,14.1,50.8,27.4,63.7,51.2
		c27.5,50.6,30.3,102.2,29.9,125.6L72.4,393.5C64.6,388.3,60.5,379,62,369.7z M288.1,490.7H224l9.5-206.2c0.2-5.2-3.6-9.8-8.8-10.4
		c-59.4-7-101.1-24.1-114.8-30.3l0.3-6.7h291.6l0.3,6.7c-13.8,6.3-55.4,23.3-114.8,30.3c-5.2,0.6-9.1,5.2-8.8,10.4L288.1,490.7z
		 M303.8,484.2l-9-194.9c65.6-8.5,109.6-28.8,118-32.8c3.6-1.8,5.8-5.5,5.6-9.5l-0.8-16.5c-0.3-5.4-4.7-9.5-10.3-9.5H104.8
		c-5.6,0-10,4.1-10.3,9.5L93.7,247c-0.2,4,2,7.7,5.6,9.5c8.3,4.1,52.4,24.3,118,32.8l-9,194.9l-15.9-10.6
		c1.2-17.1,3-80.3-31.5-143.7c-15.2-28-43.2-43.1-70.2-57.6c-4.1-2.2-8.3-4.5-12.5-6.8c2-15.1,3.6-30.1,4.7-43.9l0-26.8h346.2v26.2
		l0,0.6c1.1,14,2.8,29.1,4.8,44.4c-0.5,0.3-1.1,0.6-1.6,0.9c-30,17.1-58.4,33.2-80,67.5c-34.9,52.3-33.1,119.9-31.8,138.7
		L303.8,484.2z M439.6,393.5l-103.5,69.1c-0.5-24.7,2-78.2,29.6-119.5l0.1-0.2c18.6-29.6,42.6-44.1,70.4-60
		c3.7,25.9,7.9,51.1,11.1,70.7c1,5.9,1.9,11.3,2.6,16C451.5,379,447.4,388.3,439.6,393.5z M475.1,318.8c0,14.5-3.6,29.2-10.3,42.6
		c-0.5-3.2-1.1-6.6-1.7-10.3c-4-23.8-9.3-55.9-13.4-87.2h17.3c4.4,0,8,3.6,8,8V318.8z"/>
</g>
</svg>
