<?xml version="1.0" encoding="utf-8"?>
<!-- Generator: Adobe Illustrator 21.0.0, SVG Export Plug-In . SVG Version: 6.00 Build 0)  -->
<svg version="1.1" id="Layer_1" xmlns="http://www.w3.org/2000/svg" xmlns:xlink="http://www.w3.org/1999/xlink" x="0px" y="0px"
	 viewBox="0 0 512 512" style="enable-background:new 0 0 512 512;" xml:space="preserve">
<style type="text/css">
	.st0{fill:#C9CBCF;}
	.st1{fill:#555E6B;}
</style>
<g>
	<path class="st0" d="M422.9,340.5h-43.7c-0.7-8.7-1.2-17.3-1.5-26h46.6C424.1,323.1,423.6,331.8,422.9,340.5z M248.8,171.9
		l4.4-66.2c0-0.7,0.3-1.3,0.8-1.8c1.1-1.1,2.9-1.1,4,0c0.5,0.5,0.8,1.1,0.8,1.8l4.4,66.2H248.8z M132.9,340.5H89.1
		c-0.7-8.7-1.2-17.3-1.5-26h46.6C134.1,323.1,133.6,331.8,132.9,340.5z M287.9,410.8c0,4.4-3.6,8-8,8h-47.9c-4.4,0-8-3.6-8-8V266.7
		h63.9V410.8z"/>
</g>
<path class="st1" d="M401,212.3c-21.8,0-39.5,17.7-39.5,39.5v22.5h-57.6v-7.6c0-8-5.9-14.7-13.7-15.8v-63.5
	c7.5-1.3,14.5-5.1,19.5-11c6.3-7.3,9.2-16.9,7.8-26.5L301.7,38.9c-1.1-8-8.1-14.1-16.2-14.1h-5.7V8c0-4.4-3.6-8-8-8s-8,3.6-8,8v16.8
	h-15.5V8c0-4.4-3.6-8-8-8s-8,3.6-8,8v16.8h-5.7c-8.1,0-15.1,6.1-16.2,14.1L194.4,150c-1.4,9.5,1.5,19.2,7.8,26.5
	c5.1,5.9,12,9.7,19.5,11v63.5c-7.7,1.1-13.7,7.8-13.7,15.8v7.6h-57.6v-22.5c0-21.8-17.7-39.5-39.5-39.5c-21.8,0-39.5,17.7-39.5,39.5
	v42v7.6v194.2c0,9,7.4,16.4,16.4,16.4h46.2c9,0,16.4-7.4,16.4-16.4v-157h57.6v72.2c0,13.2,10.8,24,24,24h47.9c13.2,0,24-10.8,24-24
	v-72.2h57.6v157c0,9,7.4,16.4,16.4,16.4h46.2c9,0,16.4-7.4,16.4-16.4V301.4v-7.6v-42C440.5,230,422.8,212.3,401,212.3z M422.9,340.5
	h-43.7c-0.7-8.7-1.2-17.3-1.5-26h46.6C424.1,323.1,423.6,331.8,422.9,340.5z M421.2,356.5c-2.9,24.4-7.8,48.5-14.5,72.2
	c-0.7,2.5-3.1,4.3-5.7,4.3s-5-1.8-5.7-4.3c-6.8-23.7-11.6-47.8-14.5-72.2H421.2z M274.3,187.9v62.8h-36.5v-62.8H274.3z M248.8,171.9
	l4.4-66.2c0-0.7,0.3-1.3,0.8-1.8c0.7-0.7,1.5-0.8,2-0.8c0.4,0,1.3,0.1,2,0.8c0.5,0.5,0.8,1.1,0.8,1.8l4.4,66.2H248.8z M214.3,166
	c-3.3-3.8-4.7-8.8-4-13.7l15.9-111.1c0-0.2,0.2-0.3,0.4-0.3h59c0.2,0,0.4,0.1,0.4,0.3l15.9,111.1c0.7,4.9-0.8,9.9-4,13.7
	c-3.3,3.8-8,5.9-13,5.9h-5.5l-4.5-67.3c-0.3-4.5-2.2-8.8-5.5-12c-3.6-3.6-8.3-5.5-13.3-5.5s-9.7,2-13.3,5.5c-3.2,3.2-5.2,7.5-5.5,12
	l-4.5,67.3h-5.5C222.3,171.9,217.6,169.7,214.3,166z M132.9,340.5H89.1c-0.7-8.7-1.2-17.3-1.5-26h46.6
	C134.1,323.1,133.6,331.8,132.9,340.5z M131.2,356.5c-2.9,24.4-7.8,48.5-14.5,72.2c-0.7,2.5-3.1,4.3-5.7,4.3s-5-1.8-5.7-4.3
	c-6.8-23.7-11.6-47.8-14.5-72.2H131.2z M87.5,251.8c0-13,10.6-23.5,23.5-23.5c13,0,23.5,10.6,23.5,23.5v42v4.6h-47v-4.6V251.8z
	 M134.1,496H87.9c-0.2,0-0.4-0.2-0.4-0.4v-71.4c0.8,3,1.6,5.9,2.4,8.9c2.7,9.4,11.3,15.9,21.1,15.9c9.7,0,18.4-6.5,21.1-15.9
	c0.8-2.9,1.7-5.9,2.4-8.9v71.4C134.5,495.8,134.3,496,134.1,496z M150.5,322.6v-21.2v-7.6v-3.6h57.6v32.3H150.5z M287.9,410.8
	c0,4.4-3.6,8-8,8h-47.9c-4.4,0-8-3.6-8-8V266.7h63.9V410.8z M303.9,322.6v-32.3h57.6v3.6v7.6v21.2H303.9z M424.5,495.6
	c0,0.2-0.2,0.4-0.4,0.4h-46.2c-0.2,0-0.4-0.2-0.4-0.4v-71.4c0.8,3,1.6,5.9,2.4,8.9c2.7,9.4,11.3,15.9,21.1,15.9
	c9.7,0,18.4-6.5,21.1-15.9c0.8-2.9,1.7-5.9,2.4-8.9V495.6z M424.5,298.4h-47v-4.6v-42c0-13,10.6-23.5,23.5-23.5s23.5,10.6,23.5,23.5
	v42V298.4z"/>
</svg>
