<?xml version="1.0" encoding="utf-8"?>
<!-- Generator: Adobe Illustrator 21.0.0, SVG Export Plug-In . SVG Version: 6.00 Build 0)  -->
<svg version="1.1" id="Layer_1" xmlns="http://www.w3.org/2000/svg" xmlns:xlink="http://www.w3.org/1999/xlink" x="0px" y="0px"
	 viewBox="0 0 512 512" style="enable-background:new 0 0 512 512;" xml:space="preserve">
<style type="text/css">
	.st0{fill:#C9CBCF;}
	.st1{fill:#555E6B;}
</style>
<g>
	<g>
		<path class="st0" d="M299.4,288c0-13.9,11.3-25.2,25.2-25.2s25.2,11.3,25.2,25.2s-11.3,25.2-25.2,25.2S299.4,301.9,299.4,288z"/>
	</g>
	<g>
		<path class="st0" d="M187.4,262.8c13.9,0,25.2,11.3,25.2,25.2s-11.3,25.2-25.2,25.2s-25.2-11.3-25.2-25.2S173.5,262.8,187.4,262.8
			z"/>
	</g>
	<g>
		<path class="st0" d="M87.1,462.6c0,3.3-2.7,6-6,6h-7.4c-3.3,0-6-2.7-6-6v-35.1c0-3.3,2.7-6,6-6h7.4c3.3,0,6,2.7,6,6V462.6z
			 M256,437.1h-28.5v-13.6c0-4.4,3.6-8,8-8h41.1c4.4,0,8,3.6,8,8v13.6H256z M444.4,462.6c0,3.3-2.7,6-6,6h-7.4c-3.3,0-6-2.7-6-6
			v-35.1c0-3.3,2.7-6,6-6h7.4c3.3,0,6,2.7,6,6V462.6z"/>
	</g>
</g>
<g>
	<path class="st1" d="M365.9,288c0-22.7-18.5-41.2-41.2-41.2s-41.2,18.5-41.2,41.2s18.5,41.2,41.2,41.2S365.9,310.8,365.9,288z
		 M299.4,288c0-13.9,11.3-25.2,25.2-25.2s25.2,11.3,25.2,25.2s-11.3,25.2-25.2,25.2S299.4,301.9,299.4,288z"/>
	<circle class="st1" cx="324.6" cy="288" r="10"/>
	<path class="st1" d="M187.4,329.2c22.7,0,41.2-18.5,41.2-41.2s-18.5-41.2-41.2-41.2s-41.2,18.5-41.2,41.2S164.6,329.2,187.4,329.2z
		 M187.4,262.8c13.9,0,25.2,11.3,25.2,25.2s-11.3,25.2-25.2,25.2c-13.9,0-25.2-11.3-25.2-25.2S173.5,262.8,187.4,262.8z"/>
	<circle class="st1" cx="187.4" cy="288" r="10"/>
	<path class="st1" d="M233.5,389.9c1.8,0,3.7-0.6,5.2-1.9l17.4-14.7l17.4,14.7c3.4,2.8,8.4,2.4,11.3-1c2.8-3.4,2.4-8.4-1-11.3
		l-19.6-16.5c-4.6-4-11.6-4-16.2,0l-19.6,16.5c-3.4,2.8-3.8,7.9-1,11.3C228.9,389,231.2,389.9,233.5,389.9z"/>
	<path class="st1" d="M477.2,275l-11.7-11.2c-1.9-1.8-2.9-4.3-3-6.9c-0.3-29.7-2.5-54-6.8-76.5c-6.7-34.8-18.8-64.3-36.1-87.6
		c-18.9-25.6-44.2-45.2-75.2-58.1c-10.2-4.3-20.9-7.7-31.6-10.4c-7.9-1.9-15.6-4.5-22.8-7.6c-5.3-2.2-10.6-5.6-16.5-10.4
		c-5-4-11.2-6.2-17.6-6.2s-12.6,2.2-17.6,6.2c-5.8,4.7-11.2,8.1-16.5,10.4c-7.3,3.1-14.9,5.7-22.8,7.6c-10.8,2.6-21.4,6.1-31.6,10.4
		C136.6,47.5,111.3,67,92.4,92.7C75.1,116,63,145.5,56.3,180.3c-4.3,22.5-6.5,46.9-6.8,76.5c0,2.6-1.1,5.1-3,6.9L34.8,275
		c-6.4,6.1-9.1,14.9-7.4,23.6L39,355.9c1.7,8.2,7.3,15.2,15,18.5l9.2,4c2.7,1.2,4.7,3.4,5.5,6.2c1.4,4.7,1.1,14.4,0.9,21.2
		c-10.2,1.9-17.9,10.9-17.9,21.6v35.1c0,12.1,9.9,22,22,22h7.4c12.1,0,22-9.9,22-22v-9.6h28.2c3,6.8,5.5,12.3,7.5,16.2
		c2.4,5.1,6.6,9.3,11.6,11.8C205.9,509,242.7,512,256,512c13.3,0,50.1-3,105.7-30.8c5.1-2.5,9.2-6.7,11.6-11.8
		c1.9-4,4.5-9.5,7.5-16.2h28.2v9.6c0,12.1,9.9,22,22,22h7.4c12.1,0,22-9.9,22-22v-35.1c0-10.7-7.7-19.7-17.9-21.6
		c-0.2-6.8-0.5-16.6,0.9-21.2c0.8-2.8,2.8-5.1,5.5-6.2l9.2-4c7.7-3.3,13.3-10.3,15-18.5l11.5-57.4
		C486.3,289.9,483.5,281.1,477.2,275z M87.1,462.6c0,3.3-2.7,6-6,6h-7.4c-3.3,0-6-2.7-6-6v-35.1c0-3.3,2.7-6,6-6h7.4
		c3.3,0,6,2.7,6,6V462.6z M358.9,462.4c-0.9,2-2.5,3.5-4.4,4.5c-13.6,6.8-61,29.1-98.5,29.1c-37.5,0-84.9-22.3-98.5-29.1
		c-1.9-1-3.4-2.5-4.4-4.5c-1.5-3.1-3-6.2-4.4-9.3h62.7v0h89.1v0h62.7C361.8,456.1,360.4,459.2,358.9,462.4z M256,251.1
		c-13.3-24.7-39.5-41.1-68.7-41.1c-31.5,0-57.5,19.2-67.8,49.4l-18.6,0c0.3-41.2,4.5-97.9,32.9-136.3
		c34.7-47.1,91.5-54.1,122.3-54.1c71.6,0,107.4,33.9,122.3,54.1c13.9,18.8,32.2,53.2,32.9,136.3l-18.6,0
		c-10.3-30.2-36.3-49.4-67.8-49.4C295.5,210.1,269.3,226.4,256,251.1z M131.6,275.5l1.6-6c6.9-26.8,27.7-43.4,54.1-43.4
		c29.3,0,54.7,20.7,60.7,49.2v25.4c-4.5,20.7-20.1,36.6-42.1,42.5c-4.3,1.2-6.8,5.5-5.6,9.8c1,3.6,4.2,5.9,7.7,5.9
		c0.7,0,1.4-0.1,2.1-0.3c20.3-5.5,36.4-17.8,45.9-34.5c9.5,16.6,25.6,29,45.9,34.5c0.7,0.2,1.4,0.3,2.1,0.3c3.5,0,6.8-2.3,7.7-5.9
		c1.2-4.3-1.4-8.7-5.6-9.8c-21.9-5.9-37.6-21.8-42.1-42.5v-25.4c6-28.6,31.4-49.2,60.7-49.2c26.4,0,47.1,16.6,54.1,43.4l1.6,6
		l30.5,0c-1.3,27.4-8.3,86.1-40.5,161.6h-69.8v-13.6c0-13.2-10.8-24-24-24h-41.1c-13.2,0-24,10.8-24,24v13.6h-69.8
		c-32.2-75.5-39.2-134.2-40.5-161.6L131.6,275.5z M256,437.1h-28.5v-13.6c0-4.4,3.6-8,8-8h41.1c4.4,0,8,3.6,8,8v13.6H256z
		 M444.4,462.6c0,3.3-2.7,6-6,6h-7.4c-3.3,0-6-2.7-6-6v-35.1c0-3.3,2.7-6,6-6h7.4c3.3,0,6,2.7,6,6V462.6z M468.9,295.4l-11.5,57.4
		c-0.6,3.1-2.7,5.7-5.7,7l-9.2,4c-7,3.1-12.3,9.1-14.5,16.5c-2,6.9-1.8,17.2-1.5,25.8c-10,2.1-17.5,10.9-17.5,21.5v9.6h-21.4
		c16.6-40.6,38.8-106.5,39.6-169.5c0,0,0-0.1,0-0.1c0,0,0,0,0-0.1c0-1,0-2.1,0-3.1c0-30.7-2-55.3-6.2-77.3
		c-5.8-30-15.5-53.9-29.8-73.3c-15.1-20.4-35.3-36-60.3-46.4c-22.2-9.2-48-14.1-74.8-14.1s-52.7,4.9-74.8,14.1
		c-24.9,10.4-45.2,26-60.3,46.4C106.6,133,96.8,157,91.1,187c-4.2,22-6.2,46.6-6.2,77.3c0,1,0,2.1,0,3.1c0,0,0,0,0,0.1
		c0,0,0,0.1,0,0.1c0.8,63,23,128.9,39.6,169.5h-21.4v-9.6c0-10.6-7.5-19.5-17.5-21.5c0.3-8.6,0.5-18.8-1.5-25.8
		c-2.2-7.4-7.4-13.4-14.5-16.5l-9.2-4c-2.9-1.3-5-3.9-5.7-7l-11.5-57.4c-0.7-3.3,0.4-6.6,2.8-8.9l11.7-11.2
		c4.9-4.8,7.8-11.4,7.9-18.3c0.3-28.7,2.4-52.1,6.5-73.7c6.2-32.4,17.4-59.7,33.2-81.1c17.2-23.3,40.2-41,68.4-52.8
		c9.4-3.9,19.3-7.2,29.2-9.6c8.7-2.1,17.3-5,25.3-8.4c6.6-2.8,13.3-7,20.3-12.7c2.1-1.7,4.7-2.7,7.5-2.7c2.8,0,5.4,0.9,7.5,2.7
		c7,5.7,13.6,9.8,20.3,12.7c8.1,3.5,16.6,6.3,25.3,8.4c9.9,2.4,19.8,5.6,29.2,9.6c28.2,11.8,51.3,29.6,68.4,52.8
		c15.8,21.4,27,48.7,33.2,81.1c4.2,21.6,6.2,45,6.5,73.7c0.1,6.9,2.9,13.5,7.9,18.3l11.7,11.2C468.5,288.8,469.5,292.1,468.9,295.4z
		"/>
</g>
</svg>
