<?xml version="1.0" encoding="utf-8"?>
<!-- Generator: Adobe Illustrator 21.0.0, SVG Export Plug-In . SVG Version: 6.00 Build 0)  -->
<svg version="1.1" id="Layer_1" xmlns="http://www.w3.org/2000/svg" xmlns:xlink="http://www.w3.org/1999/xlink" x="0px" y="0px"
	 viewBox="0 0 512 512" style="enable-background:new 0 0 512 512;" xml:space="preserve">
<style type="text/css">
	.st0{fill:#C9CBCF;}
	.st1{fill:#555E6B;}
</style>
<g>
	<path class="st0" d="M365.2,278.8c-5.4-13-11.4-27.6-35.2-27.6c-0.8,0-1.7,0-2.6,0.1h0c-18.3,0.8-29.2,3.5-34.5,8.7
		c-4.4,4.3-4.7,9.7-4.7,18.2v0.3c0,11.3,1.5,16.9,5.6,20.7c4.3,4.1,12.3,6,24.9,6c2.6,0,5.6-0.1,8.7-0.3c17.3-0.9,34-2.9,38.8-10.4
		C366.9,293.1,369.4,289.1,365.2,278.8z"/>
	<path class="st0" d="M193.4,305.1c12.7,0,20.6-1.9,24.9-6c4-3.8,5.6-9.4,5.6-20.7v-0.3c0-8.5-0.3-13.9-4.7-18.2
		c-5.3-5.1-16.3-7.9-34.5-8.7c-0.9,0-1.8-0.1-2.6-0.1c-23.8,0-29.8,14.7-35.2,27.6v0c-4.3,10.3-1.7,14.4-0.9,15.7
		c4.8,7.6,21.5,9.5,38.8,10.4C187.9,305,190.8,305.1,193.4,305.1z"/>
	<path class="st0" d="M269.7,395H256h0h-13.7c-4.1,0-11.4-1-16.9-6.8l-64.9,60.3c4.8,1.5,9.4,4.1,13.2,7.9
		c10.5,10.5,12.1,26.4,5.1,38.6H256h77.3c-7.1-12.2-5.4-28.2,5.1-38.6c3.8-3.8,8.4-6.5,13.2-7.9l-64.9-60.3
		C281.1,394,273.9,395,269.7,395z"/>
	<path class="st0" d="M271.8,33c0-3.3-1.1-6.6-3.2-9.3l-0.8-1c-2.9-3.6-7.2-5.7-11.8-5.7c-4.6,0-8.9,2.1-11.8,5.7l-0.8,1
		c-2.1,2.6-3.2,5.9-3.2,9.3v183.1h31.5V33z"/>
</g>
<g>
	<path class="st1" d="M329.9,235.1c-1.1,0-2.1,0-3.3,0.1c-23,1-36.5,4.9-45,13.2c-9.6,9.3-9.6,21.1-9.6,29.7v0.3
		c0,11.6,1.3,23.6,10.5,32.3c7.6,7.2,18.7,10.4,35.9,10.4c2.9,0,6.1-0.1,9.5-0.3c25.7-1.4,43.3-4.9,51.5-17.9
		c5.2-8.2,5.3-18.4,0.3-30.3C374.5,259.4,364.4,235.1,329.9,235.1z M366.1,294.4c-4.8,7.6-21.5,9.5-38.8,10.4
		c-3.1,0.2-6,0.3-8.7,0.3c-12.7,0-20.6-1.9-24.9-6c-4-3.8-5.6-9.4-5.6-20.7V278c0-8.5,0.3-13.9,4.7-18.2c5.3-5.1,16.3-7.9,34.5-8.7
		h0c0.9,0,1.8-0.1,2.6-0.1c23.8,0,29.8,14.7,35.2,27.6C369.4,289.1,366.9,293.1,366.1,294.4z"/>
	<path class="st1" d="M296,430.5c-4.4,0-8,3.6-8,8v34c0,4.4,3.6,8,8,8s8-3.6,8-8v-34C304,434.1,300.4,430.5,296,430.5z"/>
	<path class="st1" d="M256,410.5c-4.4,0-8,3.6-8,8v54c0,4.4,3.6,8,8,8s8-3.6,8-8v-54C264,414.1,260.4,410.5,256,410.5z"/>
	<path class="st1" d="M185.3,235.2c-37.2-1.6-47.6,23.8-53.3,37.5c-4.9,11.9-4.8,22.1,0.3,30.3c8.2,13,25.8,16.5,51.5,17.9
		c3.4,0.2,6.6,0.3,9.5,0.3c17.3,0,28.3-3.2,35.9-10.4c9.3-8.8,10.5-20.7,10.5-32.3v-0.3c0-8.6,0-20.4-9.6-29.7
		C221.8,240.1,208.4,236.2,185.3,235.2z M223.9,278.4c0,11.3-1.5,16.9-5.6,20.7c-4.3,4.1-12.3,6-24.9,6c-2.6,0-5.6-0.1-8.7-0.3
		c-17.3-0.9-34-2.9-38.8-10.4c-0.8-1.3-3.4-5.3,0.9-15.7c5.4-13,11.4-27.6,35.2-27.6c0.8,0,1.7,0,2.6,0.1
		c18.3,0.8,29.2,3.5,34.5,8.7c4.4,4.3,4.7,9.7,4.7,18.2V278.4z"/>
	<path class="st1" d="M216,430.5c-4.4,0-8,3.6-8,8v34c0,4.4,3.6,8,8,8s8-3.6,8-8v-34C224,434.1,220.4,430.5,216,430.5z"/>
	<path class="st1" d="M495.8,423.2c-2.4-7.7-15.5-50-29.9-92.8c-3-14.4-25.9-123.4-40.2-143.1c-0.2-0.2-0.3-0.4-0.5-0.6
		c-0.3-26.1-4.5-83.2-33.2-120.5c-31.7-41.1-83-48.2-108.6-49.1c-0.7-1.1-1.4-2.2-2.2-3.3l-0.8-1C274.5,5.3,265.6,1,256,1v0
		c0,0,0,0,0,0s0,0,0,0v0c-9.6,0-18.4,4.3-24.4,11.8l-0.8,1c-0.8,1-1.6,2.2-2.2,3.3c-14.2,0.4-33.5,2.7-53.4,9.9
		c-23.1,8.4-41.6,21.6-55.2,39.1c-28.7,37.3-32.9,94.4-33.2,120.5c-0.2,0.2-0.3,0.4-0.5,0.6C72,207,49.1,316,46.1,330.4
		c-14.4,42.8-27.5,85.1-29.9,92.8c-1.3,4.3,0.4,8.9,4.1,11.3l105.3,68.2l0.1,0.1c8.5,5.4,18.4,8.2,28.5,8.2h203.5
		c10.1,0,19.9-2.8,28.5-8.2l105.4-68.3C495.4,432.1,497.1,427.4,495.8,423.2z M349.7,490.3c-6.2-6.2-6.2-16.4,0-22.6
		c6.2-6.2,16.1-6.2,22.4-0.2l0.3,0.3c3,3,4.6,7,4.6,11.3c0,4.3-1.7,8.3-4.7,11.3c-1.6,1.6-3.4,2.7-5.4,3.5c-2.4,0.6-4.8,1-7.2,1.1
		C355.9,494.6,352.4,493,349.7,490.3z M381.8,454.7l-88.4-82.1c0.4-2.5,0.6-5.2,0.6-8.3c0-25-15.6-42.4-37.9-42.4H256h0h-0.2
		c-22.3,0-37.9,17.4-37.9,42.4c0,3,0.2,5.8,0.6,8.3l-88.4,82.1c-4.5-20.4-12-50.2-22.6-75.9c-13.8-33.6-29.3-58.2-37.2-69.8
		c7.5-21.4,14.7-41,20.4-53.8c7.1-16.1,16.9-38.2,59.7-38.2c20.3,0,36.9,4.5,51.5,8.5c12.6,3.4,24.5,6.6,37,6.6h34.2
		c12.5,0,24.4-3.2,37-6.6c14.6-4,31.2-8.5,51.5-8.5c42.8,0,52.6,22.1,59.7,38.2c5.7,12.8,12.9,32.3,20.4,53.8
		c-7.9,11.6-23.4,36.2-37.2,69.8C393.9,404.6,386.3,434.3,381.8,454.7z M278,364.4c0,14.6-5.4,14.6-8.3,14.6H256h0h-13.7
		c-2.9,0-8.3,0-8.3-14.6c0-12.2,5.7-26.4,21.9-26.4h0.2h0h0.2C272.3,338,278,352.2,278,364.4z M162.3,467.7c6.2,6.2,6.2,16.4,0,22.6
		c-2.7,2.7-6.2,4.3-10,4.6c-2.5-0.1-4.9-0.5-7.2-1.1c-2-0.8-3.8-2-5.4-3.5c-6.2-6.2-6.2-16.3,0-22.6l0.3-0.3
		C146.2,461.5,156.2,461.5,162.3,467.7z M224.2,167v47.5c-5.7-1.1-11.7-2.7-18.1-4.5c-15.6-4.2-33.2-9-55.7-9
		c-34.9,0-52.8,13.3-63.1,27.2c4.6-15.4,8.8-27.2,11.9-31.5C120.7,167.3,170.8,167,224.2,167z M287.8,167
		c53.4,0,103.5,0.3,124.9,29.7c3.2,4.3,7.4,16.1,11.9,31.5c-10.3-13.9-28.2-27.2-63.1-27.2c-22.5,0-40.1,4.8-55.7,9
		c-6.4,1.7-12.4,3.4-18.1,4.5V167z M379.3,76c21.1,27.4,27.5,67.8,29.3,95c-29.1-19.6-73.8-19.9-120.8-19.9V33.3
		C311.9,34.8,353.5,42.5,379.3,76z M243.4,23.7l0.8-1c2.9-3.6,7.2-5.7,11.8-5.7c4.6,0,8.9,2.1,11.8,5.7l0.8,1
		c2.1,2.6,3.2,5.9,3.2,9.3v183.1h-31.5V33C240.2,29.6,241.4,26.3,243.4,23.7z M132.7,76c25.8-33.5,67.4-41.1,91.5-42.6V151
		c-47,0-91.7,0.3-120.8,19.9C105.3,143.8,111.6,103.3,132.7,76z M63.7,328.2c7.8,12.6,19,32.2,29,56.7c15,36.5,23.9,83,26,94.3
		l-85.9-55.6C37.4,409,50.3,367.9,63.7,328.2z M178.7,495c7.1-12.2,5.4-28.2-5.1-38.6c-3.8-3.8-8.4-6.5-13.2-7.9l64.9-60.3
		c5.5,5.9,12.8,6.8,16.9,6.8H256h0h13.7c4.1,0,11.4-1,16.9-6.8l64.9,60.3c-4.8,1.5-9.4,4.1-13.2,7.9c-10.5,10.5-12.1,26.4-5.1,38.6
		H256H178.7z M393.3,479.2c2-11.3,11-57.8,26-94.3c10-24.4,21.2-44.1,29-56.7c13.4,39.6,26.4,80.8,30.9,95.4L393.3,479.2z"/>
</g>
</svg>
