<?xml version="1.0" encoding="utf-8"?>
<!-- Generator: Adobe Illustrator 21.0.0, SVG Export Plug-In . SVG Version: 6.00 Build 0)  -->
<svg version="1.1" id="Layer_1" xmlns="http://www.w3.org/2000/svg" xmlns:xlink="http://www.w3.org/1999/xlink" x="0px" y="0px"
	 viewBox="0 0 512 512" style="enable-background:new 0 0 512 512;" xml:space="preserve">
<style type="text/css">
	.st0{fill:#C9CBCF;}
	.st1{fill:#555E6B;}
</style>
<g>
	<g>
		<path class="st0" d="M374.3,102.7c10.6,18.8,12.6,38.1,5.6,54.5c-5.3,12.5-15.5,22.2-29.2,28.1l-20.4-31
			c5.6-3.6,9.8-8.6,12.4-14.6c4.1-9.7,3.2-21.3-2.6-31.9l28.4-14.1C370.7,96.6,372.6,99.6,374.3,102.7z M279.5,48.4
			c28.1,0,57.6,12.5,78.3,32.8L330.1,95c-13-12.2-31.9-18.3-48.7-14.8l-19.8-30C267.4,49,273.4,48.4,279.5,48.4z M223.7,137.3
			c-10.6-18.8-12.6-38.1-5.6-54.5c5.1-12.1,14.8-21.5,27.8-27.4l20.6,31.2c-4.9,3.5-8.8,8.2-11.1,13.7c-4,9.4-3.2,20.6,2.1,30.9
			l-28.5,14.2C227,142.7,225.2,140.1,223.7,137.3z M239.4,157.9l27.6-13.7c10.6,10.4,25.5,16.6,39.9,16.6c2.7,0,5.3-0.2,7.9-0.7
			l19.8,30C301.9,196.1,264.1,182.8,239.4,157.9z"/>
	</g>
</g>
<g>
	<path class="st1" d="M268.2,196.5c16.6,7.3,33.8,11,50.4,11c8.8,0,17.4-1.1,25.7-3.2c23.9-6.2,41.8-20.7,50.4-40.9
		c9-21.1,6.7-45.5-6.4-68.7c-12.4-22-33.2-40.2-58.4-51.3c-25.4-11.2-52.4-14-76.1-7.9c-23.9,6.2-41.8,20.7-50.4,40.9
		c-9,21.1-6.7,45.5,6.4,68.7C222.1,167.1,242.9,185.4,268.2,196.5z M239.4,157.9l27.6-13.7c10.6,10.4,25.5,16.6,39.9,16.6
		c2.7,0,5.3-0.2,7.9-0.7l19.8,30C301.9,196.1,264.1,182.8,239.4,157.9z M270,106.5c2.1-5,6.8-8.7,13.2-10.3c2.5-0.6,5-0.9,7.7-0.9
		c13.5,0,28.4,8,35.1,19.9c3.6,6.4,4.4,12.9,2.1,18.3c-2.1,5-6.8,8.7-13.2,10.3c-15.1,3.9-34.7-4.8-42.8-19
		C268.5,118.4,267.7,111.9,270,106.5z M380,157.2c-5.3,12.5-15.5,22.2-29.2,28.1l-20.4-31c5.6-3.6,9.8-8.6,12.4-14.6
		c4.1-9.7,3.2-21.3-2.6-31.9l28.4-14.1c2.1,2.9,4,5.9,5.8,9C384.9,121.5,386.9,140.8,380,157.2z M357.8,81.3L330.1,95
		c-13-12.2-31.9-18.3-48.7-14.8l-19.8-30c5.8-1.2,11.8-1.8,17.9-1.8C307.6,48.4,337.1,60.9,357.8,81.3z M218.1,82.8
		c5.1-12.1,14.8-21.5,27.8-27.4l20.6,31.2c-4.9,3.5-8.8,8.2-11.1,13.7c-4,9.4-3.2,20.6,2.1,30.9l-28.5,14.2c-1.8-2.6-3.6-5.3-5.1-8
		C213.1,118.5,211.1,99.2,218.1,82.8z"/>
	<path class="st1" d="M436.3,75.7C388.1,27.5,324.1,1,256,1S123.9,27.5,75.7,75.7c-46,46-72.3,106.6-74.5,171.3c0,0.3,0,0.6,0,1
		C1.1,250.6,1,253.3,1,256c0,68.1,26.5,132.1,74.7,180.3c1.5,1.5,3.1,3.1,4.7,4.6c0,0,0,0,0.1,0.1c47.6,45.2,109.7,70,175.5,70
		c68.1,0,132.1-26.5,180.3-74.7C484.5,388.1,511,324.1,511,256C511,187.9,484.5,123.9,436.3,75.7z M87,87c45.1-45.1,105.2-70,169-70
		c63.8,0,123.9,24.9,169,70c20.8,20.8,37.3,44.8,49,70.8c-13.8,10.9-59.6,44.1-134.3,74c-145.3,58-276.3,80.4-314.7,86
		c-2.1-7.8-3.8-15.7-5-23.8c14.4-2.1,34.3-5.2,57.1-9.4c55.2-10.2,110.7-25.4,148.7-40.6c4.1-1.6,6.1-6.3,4.5-10.4
		c-1.6-4.1-6.3-6.1-10.4-4.5c-37,14.8-91.4,29.7-145.6,39.7c-22.5,4.1-42,7.2-56.2,9.2c-0.7-7.3-1-14.7-1-22.2c0-0.4,0-0.8,0-1.3
		c7.9-1.1,21.6-3.1,41-6.4c30.6-5.2,74-13.9,107.1-25.7c4.2-1.5,6.3-6.1,4.8-10.2s-6.1-6.3-10.2-4.8c-32,11.4-74.4,19.9-104.4,25
		c-17.1,2.9-29.6,4.8-37.7,5.9c0.6-8.1,1.6-16.2,3-24.2c5.1-0.7,12.4-1.7,22.2-3.3c19.1-3,47.9-8.5,71.1-15c4.3-1.2,6.7-5.6,5.5-9.9
		c-1.2-4.3-5.6-6.7-9.9-5.5C87,187,59,192.3,40.4,195.3c-6.5,1-11.9,1.8-16.2,2.4c2.1-8.5,4.7-16.9,7.8-25.1
		c16.4-2.5,38-6.2,55.6-10.5c4.3-1.1,6.9-5.4,5.9-9.7c-1.1-4.3-5.4-6.9-9.7-5.9c-13.8,3.4-30.2,6.4-44.5,8.7
		C50.8,130.2,66.9,107.1,87,87z M425,425c-45.1,45.1-105.2,70-169,70c-38.2,0-74.9-8.9-108-25.7c18.1-4.3,33.6-8.7,46.4-13.2
		c4.2-1.5,6.4-6,4.9-10.2c-1.5-4.2-6-6.4-10.2-4.9c-16,5.6-36.7,11.2-61.7,16.5c-8.4-5.4-16.5-11.3-24.3-17.8
		c26.2-5.8,51.6-12.8,71.5-19.8c4.2-1.5,6.4-6,4.9-10.2c-1.5-4.2-6-6.4-10.2-4.9c-22.2,7.8-51.5,15.6-80.9,21.6
		c-0.5-0.5-1-1-1.5-1.5c-6-6-11.7-12.4-17-18.9c31.4-5.9,73-15.5,107.9-27.1c4.2-1.4,6.5-5.9,5.1-10.1c-1.4-4.2-5.9-6.5-10.1-5.1
		c-37.1,12.3-82,22.3-113.6,28c-4.9-7-9.3-14.3-13.4-21.7c33.8-5.8,108.4-20,163.6-40.7c4.1-1.6,6.2-6.2,4.7-10.3
		c-1.6-4.1-6.2-6.2-10.3-4.7c-56.7,21.2-135,35.6-165.5,40.7c-3.2-7.1-6.1-14.4-8.7-21.8c41.7-6.3,172-29.2,316-86.7
		c71.6-28.6,116.8-59.8,134.6-73.4C490,199.4,495,227.3,495,256C495,319.8,470.1,379.9,425,425z"/>
</g>
</svg>
