<?xml version="1.0" encoding="utf-8"?>
<!-- Generator: Adobe Illustrator 21.0.0, SVG Export Plug-In . SVG Version: 6.00 Build 0)  -->
<svg version="1.1" id="Layer_1" xmlns="http://www.w3.org/2000/svg" xmlns:xlink="http://www.w3.org/1999/xlink" x="0px" y="0px"
	 viewBox="0 0 512 512" style="enable-background:new 0 0 512 512;" xml:space="preserve">
<style type="text/css">
	.st0{fill:#C9CBCF;}
	.st1{fill:#555E6B;}
</style>
<g>
	<g>
		<path class="st0" d="M395,291.8c-12.2,9-33.4,10.8-52.5,4c-1-0.7-2.1-1.1-3.3-1.3c-8.1-3.3-15.7-8.3-21.9-14.9
			c-2.5-2.7-4.6-5.5-6.9-8.5c-9.4-12.3-20-26.3-54.4-26.3v0c0,0,0,0,0,0s0,0,0,0l0,0c-34.4,0-45,14-54.4,26.3
			c-2.3,3-4.4,5.8-6.9,8.5c-21.6,23.1-59.5,25.6-77.7,12.2c-24.5-18-36-38.3-38.3-69H256h0h71.4c0,0,0.1,0,0.1,0s0.1,0,0.1,0h39.9
			c0,0,0,0,0,0s0,0,0,0h65.8C431,253.5,419.6,273.9,395,291.8z"/>
	</g>
	<g>
		<path class="st0" d="M368.7,460.8c-5.5,0-10-4.5-10-10s4.5-10,10-10s10,4.5,10,10S374.3,460.8,368.7,460.8z"/>
	</g>
</g>
<g>
	<path class="st1" d="M487.6,338.4c-15.2-25.2-21.2-75.4-21.8-80.4l0-82.2l0,0c0-46.1-17.9-89.9-50.4-123.3
		C382.7,18.8,339.4,0.2,293.6,0.2h-75.1c-45.8,0-89.1,18.6-121.9,52.3C64,85.9,46.1,129.7,46.1,175.8l0,0l0,82.2
		c-0.6,5-6.6,55.1-21.8,80.4c-9,14.9-9.9,34.5-2.6,56.8c5.8,17.9,16.6,36.6,30.4,52.7l0.2,0.3c24.2,28.3,54.3,63.6,98.8,63.6
		c21.7,0,37.2-8,52.1-15.8c15.5-8.1,30.1-15.7,52.6-15.7c22.5,0,37.1,7.6,52.6,15.7c14.9,7.8,30.4,15.8,52.1,15.8
		c44.6,0,74.7-35.2,98.8-63.6l0.2-0.3c13.8-16.1,24.6-34.8,30.4-52.7C497.5,373,496.6,353.4,487.6,338.4z M256,347.8
		C256,347.8,256,347.8,256,347.8L256,347.8c-24,0-39.5,13.9-53.2,26.2c-13,11.7-24.3,21.8-41.8,21.8c-14.4,0-39.1-18.6-60.3-45.1
		c-24.2-30.5-38.7-64.9-38.7-92.2h0l0-35.7h0.5c2.5,36.1,16.2,60.9,44.9,81.9c10.7,7.8,23.8,11.3,37.3,11.3
		c23.1,0,47.2-10.1,61.6-25.5c3-3.2,5.5-6.5,7.9-9.7c8.5-11.2,15.2-20,41.7-20c26.5,0,33.2,8.8,41.7,20c2.4,3.2,4.9,6.4,7.9,9.7
		c7,7.5,16.4,13.8,26.8,18.2l23.6,40.9c1.5,2.6,4.2,4,6.9,4c1.4,0,2.7-0.3,4-1.1c3.8-2.2,5.1-7.1,2.9-10.9L354.6,315
		c4.2,0.6,8.4,1,12.6,1c3.1,0,6.1-0.2,9.1-0.6l12.8,22.2c1.5,2.6,4.2,4,6.9,4c1.4,0,2.7-0.3,4-1.1c3.8-2.2,5.1-7.1,2.9-10.9
		l-10.5-18.3c4.2-1.7,8.3-3.9,12-6.6c1.4-1,2.7-2,4-3l7.7,13.4c1.5,2.6,4.2,4,6.9,4c1.4,0,2.7-0.3,4-1.1c3.8-2.2,5.1-7.1,2.9-10.9
		l-9.4-16.3c17.8-18.1,26.8-39.6,28.7-68h0.5l0,35.7l0,0h0c0,27.2-14.5,61.7-38.7,92.2c-21.1,26.6-45.9,45.1-60.3,45.1
		c-17.4,0-28.7-10.1-41.8-21.8C295.5,361.7,280,347.9,256,347.8L256,347.8C256,347.8,256,347.8,256,347.8z M256,183.8L256,183.8h4.4
		l13.3,23H62.1l0-23H256z M449.9,206.8h-77.7l-13.3-23h91L449.9,206.8z M395,291.8c-12.2,9-33.4,10.8-52.5,4c-1-0.7-2.1-1.1-3.3-1.3
		c-8.1-3.3-15.7-8.3-21.9-14.9c-2.5-2.7-4.6-5.5-6.9-8.5c-9.4-12.3-20-26.3-54.4-26.3v0c0,0,0,0,0,0s0,0,0,0v0
		c-34.4,0-45,14-54.4,26.3c-2.3,3-4.4,5.8-6.9,8.5c-21.6,23.1-59.5,25.6-77.7,12.2c-24.5-18-36-38.3-38.3-69h248.8c0,0,0.1,0,0.1,0
		s0.1,0,0.1,0h39.9c0,0,0,0,0,0s0,0,0,0h65.8C431,253.5,419.6,273.9,395,291.8z M353.6,206.8h-21.5l-13.3-23h21.5L353.6,206.8z
		 M313.6,206.8h-21.5l-13.3-23h21.5L313.6,206.8z M108,63.6c29.7-30.6,69-47.4,110.4-47.4h75.1c41.5,0,80.7,16.8,110.4,47.4
		c27.7,28.5,43.7,65.2,45.7,104.2H349.6l-29.7-51.4c-2.2-3.8-7.1-5.1-10.9-2.9c-3.8,2.2-5.1,7.1-2.9,10.9l25,43.4h-21.5l-29.7-51.4
		c-2.2-3.8-7.1-5.1-10.9-2.9c-3.8,2.2-5.1,7.1-2.9,10.9l25.1,43.4h-21.5l-29.7-51.4c-2.2-3.8-7.1-5.1-10.9-2.9
		c-3.8,2.2-5.1,7.1-2.9,10.9l25.1,43.4H62.3C64.3,128.9,80.3,92.1,108,63.6z M475,390.2c-5.1,15.7-15.1,33-27.4,47.3l-0.2,0.3
		c-23.2,27.2-49.5,58-86.7,58c-17.8,0-30.3-6.5-44.7-14c-15.7-8.2-33.6-17.5-60-17.5v0c0,0,0,0,0,0s0,0,0,0v0
		c-26.4,0-44.2,9.3-60,17.5c-14.5,7.5-26.9,14-44.7,14c-37.2,0-63.5-30.8-86.7-58l-0.2-0.3C52.1,423.2,42.1,406,37,390.2
		c-4-12.3-7.1-29.9,1.1-43.5c7.4-12.3,12.7-29.1,16.5-44.7c7.1,19.5,18.6,39.6,33.7,58.6c24.7,31.1,53.3,51.2,72.8,51.2
		c23.6,0,38.9-13.8,52.4-25.9c12.6-11.4,24.6-22.1,42.5-22.1c17.9,0,29.8,10.7,42.5,22.1c13.5,12.1,28.9,25.9,52.4,25.9
		c19.5,0,48.1-20.1,72.8-51.2c15.1-19,26.6-39.1,33.7-58.6c3.8,15.6,9.1,32.4,16.5,44.7C482.1,360.4,479,377.9,475,390.2z"/>
	<path class="st1" d="M368.7,424.8c-14.3,0-26,11.7-26,26s11.7,26,26,26s26-11.7,26-26S383.1,424.8,368.7,424.8z M368.7,460.8
		c-5.5,0-10-4.5-10-10s4.5-10,10-10s10,4.5,10,10S374.3,460.8,368.7,460.8z"/>
	<path class="st1" d="M69,348c-3.1-3.1-8.2-3.1-11.3,0l-16.2,16.2c-3.1,3.1-3.1,8.2,0,11.3c1.6,1.6,3.6,2.3,5.7,2.3s4.1-0.8,5.7-2.3
		L69,359.3C72.1,356.2,72.1,351.1,69,348z"/>
	<path class="st1" d="M84.5,372c-3.1-3.1-8.2-3.1-11.3,0L57,388.2c-3.1,3.1-3.1,8.2,0,11.3c1.6,1.6,3.6,2.3,5.7,2.3s4.1-0.8,5.7-2.3
		l16.2-16.2C87.6,380.2,87.6,375.1,84.5,372z"/>
	<path class="st1" d="M88.7,396l-16.2,16.2c-3.1,3.1-3.1,8.2,0,11.3c1.6,1.6,3.6,2.3,5.7,2.3s4.1-0.8,5.7-2.3l16.2-16.2
		c3.1-3.1,3.1-8.2,0-11.3C96.9,392.9,91.8,392.9,88.7,396z"/>
</g>
</svg>
