<?xml version="1.0" encoding="utf-8"?>
<!-- Generator: Adobe Illustrator 21.0.0, SVG Export Plug-In . SVG Version: 6.00 Build 0)  -->
<svg version="1.1" id="Layer_1" xmlns="http://www.w3.org/2000/svg" xmlns:xlink="http://www.w3.org/1999/xlink" x="0px" y="0px"
	 viewBox="0 0 512 512" style="enable-background:new 0 0 512 512;" xml:space="preserve">
<style type="text/css">
	.st0{fill:#C9CBCF;}
	.st1{fill:#555E6B;}
</style>
<g>
	<g>
		<path class="st0" d="M173,183.8c28.3,0,51.3,23,51.3,51.3s-23,51.3-51.3,51.3s-51.3-23-51.3-51.3S144.8,183.8,173,183.8z"/>
	</g>
	<g>
		<path class="st0" d="M349.3,187.6c13.4,0,24.3,10.9,24.3,24.3s-10.9,24.3-24.3,24.3S325,225.3,325,211.9S335.9,187.6,349.3,187.6z
			"/>
	</g>
	<g>
		<path class="st0" d="M372.1,418.1c-3-5.5-4.8-11.8-4.8-17.6c0-19.4,15.8-35.1,35.1-35.1c5.6,0,11.8,1.7,17.2,4.6
			C406.6,388.6,390.6,404.9,372.1,418.1z"/>
	</g>
</g>
<g>
	<path class="st1" d="M173,302.4c37.1,0,67.3-30.2,67.3-67.3s-30.2-67.3-67.3-67.3s-67.3,30.2-67.3,67.3S135.9,302.4,173,302.4z
		 M173,183.8c28.3,0,51.3,23,51.3,51.3s-23,51.3-51.3,51.3s-51.3-23-51.3-51.3S144.8,183.8,173,183.8z"/>
	<path class="st1" d="M349.3,252.3c22.2,0,40.3-18.1,40.3-40.3s-18.1-40.3-40.3-40.3c-22.2,0-40.3,18.1-40.3,40.3
		S327.1,252.3,349.3,252.3z M349.3,187.6c13.4,0,24.3,10.9,24.3,24.3s-10.9,24.3-24.3,24.3c-13.4,0-24.3-10.9-24.3-24.3
		S335.9,187.6,349.3,187.6z"/>
	<path class="st1" d="M501.9,114c-16.1-27.9-57-38.4-115.4-29.6C349.1,55.9,303.8,40.5,256,40.5c-57.6,0-111.7,22.4-152.4,63.1
		S40.5,198.4,40.5,256c0,9.2,0.6,18.2,1.7,27.2C5.4,329.4-6,370.1,10.1,398c12.4,21.5,39.5,32.6,78.1,32.6c11.5,0,24-1,37.4-3
		c37.3,28.5,82.7,43.9,130.4,43.9c57.6,0,111.7-22.4,152.4-63.1c40.7-40.7,63.1-94.8,63.1-152.4c0-9.2-0.6-18.2-1.7-27.2
		C506.6,182.6,518,141.9,501.9,114z M488,122c11.2,19.4,3.1,50-22,85.3c-9-39-28.6-74.7-57.6-103.7c-1.7-1.7-3.5-3.4-5.3-5.1
		C446.3,94.3,476.8,102.6,488,122z M256,56.5c99.2,0,181.7,72.7,197,167.7c-34.4,41.4-86.4,83.2-147.1,118.2
		c-60.6,35-122.8,59.1-175.8,68.2C85.2,374,56.5,318.3,56.5,256C56.5,146,146,56.5,256,56.5z M24,390c-11.2-19.4-3.2-50,22-85.3
		c9,39,28.6,74.7,57.6,103.7c1.7,1.7,3.5,3.4,5.3,5.1C65.8,417.7,35.2,409.3,24,390z M372.1,418.1c-3.1-5.5-4.8-11.8-4.8-17.6
		c0-19.4,15.8-35.1,35.1-35.1c5.6,0,11.8,1.7,17.2,4.6C406.6,388.6,390.6,404.9,372.1,418.1z M428.3,356.5c-8-4.5-17.2-7.1-25.9-7.1
		c-28.2,0-51.1,22.9-51.1,51.1c0,8.9,2.7,18.3,7.4,26.4c-30,18.1-65.2,28.6-102.7,28.6c-39.9,0-77-11.8-108.2-32
		c51.4-11.1,109.5-34.5,166.1-67.2c56.7-32.7,106.1-71.4,141.4-110.3c0.2,3.3,0.3,6.7,0.3,10.1C455.5,292.6,445.6,326.9,428.3,356.5
		z"/>
</g>
</svg>
