<?xml version="1.0" encoding="utf-8"?>
<!-- Generator: Adobe Illustrator 21.0.0, SVG Export Plug-In . SVG Version: 6.00 Build 0)  -->
<svg version="1.1" id="Layer_1" xmlns="http://www.w3.org/2000/svg" xmlns:xlink="http://www.w3.org/1999/xlink" x="0px" y="0px"
	 viewBox="0 0 512 512" style="enable-background:new 0 0 512 512;" xml:space="preserve">
<style type="text/css">
	.st0{fill:#C9CBCF;}
	.st1{fill:#555E6B;}
</style>
<g>
	<g>
		<path class="st0" d="M228.8,287.7c21.2,2.3,39.7,13.5,51.7,29.9l-29.8,17.2c-5.6-6.4-13.3-10.9-21.9-12.7V287.7z M212.8,287.7V322
			c-8.6,1.8-16.2,6.3-21.9,12.7l-29.7-17.2C173.2,301.2,191.7,290,212.8,287.7z M153.1,391c-4-9.1-6.3-19.2-6.3-29.8
			c0-10.6,2.3-20.8,6.3-29.9l29.7,17.2c-1.3,4-2.1,8.3-2.1,12.7c0,4.4,0.7,8.7,2.1,12.6L153.1,391z M212.8,434.8
			c-21.2-2.3-39.7-13.5-51.7-29.9l29.8-17.2c5.6,6.4,13.3,10.9,21.9,12.7V434.8z M228.8,434.8v-34.4c8.6-1.8,16.2-6.3,21.9-12.6
			l29.7,17.2C268.4,421.3,249.9,432.5,228.8,434.8z M294.8,361.2c0,10.6-2.3,20.8-6.3,29.9l-29.7-17.2c1.3-4,2.1-8.3,2.1-12.7
			c0-4.4-0.7-8.7-2.1-12.6l29.8-17.2C292.5,340.5,294.8,350.6,294.8,361.2z"/>
	</g>
</g>
<g>
	<path class="st1" d="M220.8,271.2c-49.6,0-90,40.4-90,90s40.4,90,90,90c49.6,0,90-40.4,90-90S270.4,271.2,220.8,271.2z
		 M280.5,317.6l-29.8,17.2c-5.6-6.4-13.3-10.9-21.9-12.7v-34.4C250,290,268.5,301.2,280.5,317.6z M294.8,361.2
		c0,10.6-2.3,20.8-6.3,29.9l-29.7-17.2c1.3-4,2.1-8.3,2.1-12.7c0-4.4-0.7-8.7-2.1-12.6l29.8-17.2
		C292.5,340.5,294.8,350.6,294.8,361.2z M220.8,385.2c-13.2,0-24-10.8-24-24s10.8-24,24-24s24,10.8,24,24S234,385.2,220.8,385.2z
		 M146.8,361.2c0-10.6,2.3-20.8,6.3-29.9l29.7,17.2c-1.3,4-2.1,8.3-2.1,12.7c0,4.4,0.7,8.7,2.1,12.6L153.1,391
		C149.1,381.9,146.8,371.8,146.8,361.2z M212.8,287.7V322c-8.6,1.8-16.2,6.3-21.9,12.7l-29.7-17.2
		C173.2,301.2,191.7,290,212.8,287.7z M161.1,404.9l29.8-17.2c5.6,6.4,13.3,10.9,21.9,12.7v34.4
		C191.6,432.5,173.1,421.2,161.1,404.9z M228.8,434.8v-34.4c8.6-1.8,16.2-6.3,21.9-12.6l29.7,17.2
		C268.4,421.3,249.9,432.5,228.8,434.8z"/>
	<path class="st1" d="M450.4,205.6c-7.5-11.7-22-17.3-37-14.4c-1,0.2-9.9,2.2-17.7,10.1l-62.6,68.3c-0.6,0.5-1.6,1.2-2.5,1.7
		c-0.9-2-2.2-6.6-1.7-16.6l9-188.5c0.3-5.8-1.1-11.6-3.8-16.7l-1-1.9c-4.8-8.8-13.5-14.8-23.4-16.2l-1.6-0.2
		c-5.2-0.7-10.4-0.3-15,1.2c-11.8,4-20.2,14.5-21.5,26.7l-8.4,78l-0.9-102.1c0-2.8-0.3-5.2-0.9-7.6c-3.2-12.9-13.8-22.3-26.9-23.9
		L231,3.2c-10.2-1.3-20.4,2.5-27.4,10.1l-2.4,2.7c-5,5.5-8,12.7-8.2,20.2l-3.4,95.9L184,64l0-0.1c-1.4-14.5-8.6-23.2-10.7-25.4
		c-5.7-7.1-15.5-10.3-22.9-10.3c-8.1,0-18.6,3.7-24.2,12.1c-1.6,2.2-7.8,11.7-7.8,29.5v0.3l6,82l-7.5-38.3
		c-2-10.1-5.2-21.2-14.6-27.7c-8.5-5.8-20.7-3.6-26.7-1.4c-19.4,7.2-17.8,34.2-17.2,43.1l0,0.2c0.9,10.7,22.5,262.9,29.6,306.6
		c7.1,44,38.8,59.9,52.1,64.6c21.2,7.6,37.1,9.9,68.1,9.9c33.6,0,55.9-0.7,81.5-10.9c25.7-10.1,48.2-33.1,66.8-68.3l91.5-172.1
		l0.2-0.4c4.8-10.2,7.3-21.2,7.4-32.5C455.8,217.8,454,211.2,450.4,205.6z M433.9,250.4l-90.9,171.1l-0.4,0.8
		c-16.8,31.8-36.5,52.3-58.6,60.9c-23.5,9.3-44.1,9.7-75.7,9.7c-32.2,0-45.3-2.8-62.7-9c-10.6-3.8-35.9-16.5-41.7-52.1
		C97,389.1,75,132.8,74.5,126.6c-1.2-19.8,3-25.6,6.8-27c4.3-1.6,10-1.8,12-0.4c4.6,3.2,6.6,10.3,8,17.5l12.7,64.8l9.4,48.5
		c0.6,3.2,2.5,6,5.3,7.6c2.8,1.7,6.1,2.1,9.3,1.2c5.1-1.5,8.5-6.5,8.1-12L134.5,69.5c0.1-12.7,4-18.9,4.6-19.7l0.5-0.7
		c1.8-2.8,6.7-5,10.9-5c3.9,0,8.6,2,10.4,4.4l0.4,0.5l0.5,0.4c0.1,0.1,5.4,5.7,6.4,15.9l11.7,145.2c0.5,6.3,6.1,11.1,12.4,10.5
		c5.7-0.5,10.4-5.4,10.6-11.2l6.2-173.1c0.1-3.7,1.6-7.2,4.1-10l2.4-2.7c3.4-3.8,8.5-5.6,13.5-5l3.5,0.4c6.5,0.8,11.7,5.5,13.3,11.9
		c0.3,1.1,0.4,2.3,0.4,3.8l1.6,179.4c0,3.3,1.5,6.5,4,8.6c2.5,2.2,5.8,3.1,9.1,2.7c5.2-0.7,9.2-5,9.8-10.4L287.4,61
		c0.7-6.2,4.8-11.3,10.7-13.3c2.3-0.8,4.9-1,7.6-0.6l1.6,0.2c4.9,0.7,9.2,3.7,11.6,8.1l1,1.9c1.4,2.5,2,5.4,1.9,8.3L313,254
		c-0.8,16.4,2.3,26.8,9.3,31.8l0.5,0.4l0.6,0.3c7.5,3.6,16-0.6,20.9-5.4l0.2-0.2l62.7-68.5c4.2-4.2,8.9-5.4,9.4-5.6
		c6.4-1.2,15.6,0,20.3,7.4c1.9,2.9,2.8,6.5,2.7,10.4C439.6,233.6,437.6,242.3,433.9,250.4z"/>
</g>
</svg>
