<?xml version="1.0" encoding="utf-8"?>
<!-- Generator: Adobe Illustrator 21.0.0, SVG Export Plug-In . SVG Version: 6.00 Build 0)  -->
<svg version="1.1" id="Layer_1" xmlns="http://www.w3.org/2000/svg" xmlns:xlink="http://www.w3.org/1999/xlink" x="0px" y="0px"
	 viewBox="0 0 512 512" style="enable-background:new 0 0 512 512;" xml:space="preserve">
<style type="text/css">
	.st0{fill:#C9CBCF;}
	.st1{fill:#555E6B;}
</style>
<g>
	<g>
		<path class="st0" d="M350,235c10.5,0,19,8.5,19,19s-8.5,19-19,19s-19-8.5-19-19S339.5,235,350,235z"/>
	</g>
	<g>
		<path class="st0" d="M54,249.2l12-12.4V336v7.3v10.4l-12-11.2V249.2z M311.1,482v-55c0-8.8-7.2-16-16-16h-76.1
			c-8.8,0-16,7.2-16,16v55h-12.1V349.8l22-17.8H257h44.2l22,17.8V482H311.1z M460,342.5l-12,11.2v-10.4V336v-99.2l12,12.4V342.5z"/>
	</g>
	<g>
		<path class="st0" d="M164,273c-10.5,0-19-8.5-19-19s8.5-19,19-19s19,8.5,19,19S174.5,273,164,273z"/>
	</g>
</g>
<g>
	<path class="st1" d="M350,289c19.3,0,35-15.7,35-35s-15.7-35-35-35s-35,15.7-35,35S330.7,289,350,289z M350,235
		c10.5,0,19,8.5,19,19s-8.5,19-19,19s-19-8.5-19-19S339.5,235,350,235z"/>
	<path class="st1" d="M471.5,238.1L448,213.8v-46.1C448,75.8,373.2,1,281.3,1h-48.7C140.8,1,66,75.8,66,167.7v46.1l-23.5,24.4
		c-2.9,3-4.5,6.9-4.5,11.1v93.3c0,4.4,1.9,8.7,5.1,11.7l23.4,21.8c0.3,1.1,0.7,2.2,1.2,3.2l21.9,43.9c2.7,5.5,8.2,8.8,14.3,8.8h14.1
		l18.6,37.2c2.7,5.5,8.2,8.8,14.3,8.8h23.9v4c0,8.8,7.2,16,16,16H203c0.5,8.4,7.5,15,15.9,15h76.1c8.5,0,15.4-6.6,15.9-15h12.1
		c8.8,0,16-7.2,16-16v-4h23.9c6.1,0,11.6-3.4,14.3-8.8l18.6-37.2h14.1c6.1,0,11.6-3.4,14.3-8.8l21.9-43.9c0.5-1,0.9-2.1,1.2-3.2
		l23.4-21.8c3.2-3,5.1-7.3,5.1-11.7v-93.3C476,245.1,474.4,241.1,471.5,238.1z M82,167.7C82,84.6,149.6,17,232.7,17h48.7
		C364.4,17,432,84.6,432,167.7v161.1l-98.1,9.2l-22.7-18.4c-2.8-2.3-6.4-3.6-10.1-3.6h-88.3c-3.7,0-7.2,1.3-10.1,3.6L180.1,338
		L82,328.7V167.7z M54,249.2l12-12.4V336v7.3v10.4l-12-11.2V249.2z M150.9,462l-18.6-37.2c-2.7-5.5-8.2-8.8-14.3-8.8h-14.1L82,372.1
		v-27.3l92.9,8.8V462H150.9z M265.1,427v70h-16.1v-70H265.1z M232.9,497h-14v-70h14V497z M295.1,497h-14v-70h14V497z M311.1,482v-55
		c0-8.8-7.2-16-16-16h-76.1c-8.8,0-16,7.2-16,16v55h-12.1V349.8l22-17.8h88.3l22,17.8V482H311.1z M410.1,416h-14.1
		c-6.1,0-11.6,3.4-14.3,8.8L363.1,462h-23.9V353.5l92.9-8.8v27.3L410.1,416z M460,342.5l-12,11.2v-10.4V336v-99.2l12,12.4V342.5z"/>
	<path class="st1" d="M199,254c0-19.3-15.7-35-35-35s-35,15.7-35,35s15.7,35,35,35S199,273.3,199,254z M164,273
		c-10.5,0-19-8.5-19-19s8.5-19,19-19s19,8.5,19,19S174.5,273,164,273z"/>
</g>
</svg>
