<?xml version="1.0" encoding="utf-8"?>
<!-- Generator: Adobe Illustrator 21.0.0, SVG Export Plug-In . SVG Version: 6.00 Build 0)  -->
<svg version="1.1" id="Layer_1" xmlns="http://www.w3.org/2000/svg" xmlns:xlink="http://www.w3.org/1999/xlink" x="0px" y="0px"
	 viewBox="0 0 512 512" style="enable-background:new 0 0 512 512;" xml:space="preserve">
<style type="text/css">
	.st0{fill:#C9CBCF;}
	.st1{fill:#555E6B;}
</style>
<g>
	<g>
		<path class="st0" d="M256,194.4c13.7,0,56.7-4.5,61.7-5c31.7,0.1,53.5,12.1,64.7,35.8c4.8,10.1,6.2,18.4,4,24.1
			c-1.5,4-4.5,5.8-6.2,6.4c-5.2,2.2-9.7,2.9-41.3-7.5c-22.2-7.3-38.1-24-41.8-28.2c-3-3.9-7.7-6.2-12.6-6.2H256h-28.5
			c-5,0-9.7,2.4-12.7,6.3c-3.8,4.3-19.5,20.8-41.8,28.2c-31.6,10.4-36.1,9.7-41.3,7.5c-1.7-0.7-4.6-2.4-6.2-6.4
			c-2.2-5.7-0.8-14,4-24.1c11.2-23.6,33-35.7,64.7-35.8C199.3,189.9,242.3,194.4,256,194.4"/>
	</g>
</g>
<g>
	<path class="st1" d="M488.3,378.6c-9-46.8-38.9-200.8-42.9-215.4c-13.5-48.9-33.5-85.6-61-112.1C351.7,19.9,308.6,4.1,256,4.1
		s-95.7,15.9-128.4,47.1c-27.6,26.5-47.6,63.1-61,112.1c-4,14.6-33.8,168.5-42.9,215.4c-1.5,7.6,2.7,15.2,10,18l57.1,21.8l71.3,62
		l5.5,16.6c1.5,4.7,5.1,8.3,9.7,10c1.8,0.7,3.6,1,5.5,1c2.9,0,5.8-0.8,8.4-2.4l27.3-17c5.1-3.1,10.9-4.8,16.9-4.8H256v-16h-20.6
		c-9,0-17.7,2.5-25.3,7.2l-27.3,17l-6.8-20.8L105.6,410l121.7-180l0-0.1c0.1-0.1,0.1-0.2,0.2-0.2H256l28.5,0
		c0.1,0.1,0.1,0.2,0.2,0.2l121.7,180l-70.3,61.1l-6.8,20.8l-27.3-17c-7.6-4.7-16.4-7.2-25.3-7.2H256v16h20.6c6,0,11.8,1.7,16.9,4.8
		l27.3,17c2.6,1.6,5.5,2.4,8.4,2.4c1.8,0,3.7-0.3,5.5-1c4.6-1.7,8.2-5.3,9.7-10l5.5-16.6l71.3-62l57.1-21.8
		C485.5,393.8,489.7,386.3,488.3,378.6z M256,20.1c76.7,0,129.5,35.3,160.2,107.6c-16.9-20.8-36.7-31.3-58.9-31.3H154.6
		c-22.2,0-42,10.5-58.9,31.3C126.5,55.4,179.3,20.1,256,20.1z M424.8,179.4c-18.7-28.5-41.3-42.9-67.4-42.9H154.6
		c-26.1,0-48.7,14.5-67.4,43c4.4-13.1,8.5-23.6,12.2-29.3c15.8-25,34.4-37.6,55.2-37.6h202.7c20.9,0,39.5,12.7,55.2,37.6
		C416.2,155.7,420.4,166.2,424.8,179.4z M420.1,401.7l-96.3-142.4c3.2,1.5,6.6,2.8,10.2,4c20.5,6.8,31.7,9.7,40,9.7
		c4.6,0,8.4-0.9,12.4-2.6c4-1.7,11.3-5.9,15-15.5c3.8-10,2.3-22.3-4.5-36.7c-17.6-37.1-53-44.9-79.6-44.9l-0.8,0
		c-0.5,0-47.1,5-60.5,5v16c13.7,0,56.7-4.5,61.7-5c31.7,0.1,53.5,12.1,64.7,35.8c4.8,10.1,6.2,18.4,4,24.1c-1.5,4-4.5,5.7-6.2,6.4
		c-5.2,2.2-9.7,2.9-41.3-7.5c-22.2-7.3-38.1-24-41.8-28.2c-3-3.9-7.7-6.2-12.6-6.2H256h-28.5c-5,0-9.7,2.4-12.7,6.2
		c-3.8,4.3-19.5,20.8-41.8,28.2c-31.6,10.4-36.1,9.7-41.3,7.5c-1.7-0.7-4.6-2.4-6.2-6.4c-2.2-5.7-0.8-14,4-24.1
		c11.2-23.6,33-35.7,64.7-35.8c5.1,0.5,48,5,61.7,5v-16c-13.4,0-60-4.9-60.5-5l-0.8,0c-26.6,0-61.9,7.8-79.6,44.9
		c-6.8,14.3-8.3,26.7-4.5,36.7c3.7,9.6,11,13.8,15,15.5c4,1.7,7.8,2.6,12.4,2.6c8.3,0,19.5-2.9,40-9.7c3.5-1.2,6.9-2.5,10.2-4
		L91.9,401.7l-52.5-20c3.7-19,7.5-38.8,11.3-58.4C52.7,316.7,82.4,217,99.4,190c15.8-25,34.4-37.6,55.2-37.6h202.7
		c20.9,0,39.5,12.7,55.2,37.6c17,27,46.8,126.8,48.6,133.2c3.8,19.3,7.6,39.1,11.3,58.4L420.1,401.7z"/>
	<path class="st1" d="M276,267.1c4.4,0,8-3.6,8-8c0-4.4-3.6-8-8-8h-40c-4.4,0-8,3.6-8,8c0,4.4,3.6,8,8,8H276z"/>
	<path class="st1" d="M216,289.1c0,4.4,3.6,8,8,8h64c4.4,0,8-3.6,8-8s-3.6-8-8-8h-64C219.6,281.1,216,284.7,216,289.1z"/>
</g>
</svg>
