<?xml version="1.0" encoding="utf-8"?>
<!-- Generator: Adobe Illustrator 21.0.0, SVG Export Plug-In . SVG Version: 6.00 Build 0)  -->
<svg version="1.1" id="Layer_1" xmlns="http://www.w3.org/2000/svg" xmlns:xlink="http://www.w3.org/1999/xlink" x="0px" y="0px"
	 viewBox="0 0 512 512" style="enable-background:new 0 0 512 512;" xml:space="preserve">
<style type="text/css">
	.st0{fill:#C9CBCF;}
	.st1{fill:#555E6B;}
</style>
<g>
	<path class="st0" d="M142.9,417.2c-6.8-6.8-18.3-17.6-27.9-23.1c-9.4-5.4-23.6-8.6-34.8-10.4l121.3-121.3l48.1,48.1L142.9,417.2z
		 M418.5,141.6l-21.9,21.9l-48.1-48.1l34.6-34.6c1.9-1.9,4.5-2.7,7.1-2.2c2.5,0.5,4.5,2,5.7,4.2c1.1,3.5,6.3,19.4,8.3,23.9
		c3.2,7,13.6,22.7,16.1,26.5C421.4,136,420.7,139.4,418.5,141.6z"/>
</g>
<path class="st1" d="M481.6,71.5c0-2.7-1-5.2-2.9-7.1l-31.1-31.1c-3.9-3.9-10.2-3.9-14.1,0L401,65.8c-2.4-1.4-5.1-2.4-7.9-2.9
	c-7.7-1.4-15.7,1.1-21.3,6.6L333,108.3c-1.9,1.9-2.9,4.4-2.9,7.1c0,2.7,1,5.2,2.9,7.1l4.2,4.2l-22.6,22.6l-4.2-4.2
	c-3.1-3.1-8.2-3.1-11.3,0c-3.1,3.1-3.1,8.2,0,11.3l4.2,4.2l-90.5,90.5l-4.2-4.2c-1.9-1.9-4.4-2.9-7.1-2.9s-5.2,1-7.1,2.9l-157,157
	c-4.5,4.5-7,10.6-7,17s2.5,12.4,7,17l36.8,36.8c4.5,4.5,10.6,7,17,7s12.4-2.5,17-7l157-157c3.9-3.9,3.9-10.2,0-14.1l-4.2-4.2
	l90.5-90.5l4.2,4.2c1.6,1.6,3.6,2.3,5.7,2.3c2,0,4.1-0.8,5.7-2.3c3.1-3.1,3.1-8.2,0-11.3l-4.2-4.2l22.6-22.6l4.2,4.2
	c1.9,1.9,4.5,2.9,7.1,2.9s5.1-1,7.1-2.9l26.1-26.1c7-7,9-17.8,4.9-26.9l-0.3-0.6l-0.4-0.6c-0.2-0.3-0.4-0.6-0.7-1l45.3-45.3
	C480.6,76.7,481.6,74.2,481.6,71.5z M280.7,205.9l25.5,25.5l-22.6,22.6l-25.5-25.5L280.7,205.9z M96.8,463.3
	c-1.5,1.5-3.5,2.3-5.7,2.3s-4.1-0.8-5.7-2.3l-36.8-36.8c-1.5-1.5-2.3-3.5-2.3-5.7s0.8-4.1,2.3-5.7L65.9,398
	c10.5,1,30.9,4.1,41.1,9.9c8,4.7,18.4,14.4,24.6,20.6L96.8,463.3z M142.9,417.2c-6.8-6.8-18.3-17.6-27.9-23.1
	c-9.4-5.4-23.6-8.6-34.8-10.4l121.3-121.3l48.1,48.1L142.9,417.2z M224.1,262.4l22.6-22.6l25.5,25.5l-22.6,22.6L224.1,262.4z
	 M317.4,220L292,194.6l22.6-22.6l25.5,25.5L317.4,220z M351.4,186.1l-25.5-25.5l22.6-22.6l25.5,25.5L351.4,186.1z M418.5,141.6
	l-21.9,21.9l-48.1-48.1l34.6-34.6c1.9-1.9,4.5-2.7,7.1-2.2c2.5,0.5,4.5,2,5.7,4.2c1.1,3.5,6.3,19.4,8.3,23.9
	c3.2,7,13.6,22.7,16.1,26.5C421.4,136,420.7,139.4,418.5,141.6z M424.5,110.1c-2.5-4-4.7-7.8-5.7-10.1c-1.3-2.8-5.2-14.6-7.5-21.9
	l29.2-29.2l22.6,22.6L424.5,110.1z"/>
</svg>
