<?xml version="1.0" encoding="utf-8"?>
<!-- Generator: Adobe Illustrator 21.0.0, SVG Export Plug-In . SVG Version: 6.00 Build 0)  -->
<svg version="1.1" id="Layer_1" xmlns="http://www.w3.org/2000/svg" xmlns:xlink="http://www.w3.org/1999/xlink" x="0px" y="0px"
	 viewBox="0 0 512 512" style="enable-background:new 0 0 512 512;" xml:space="preserve">
<style type="text/css">
	.st0{fill:#C9CBCF;}
	.st1{fill:#555E6B;}
</style>
<g>
	<g>
		<path class="st0" d="M65.8,257.5c-5.1-7.5-14.2-12.9-27.3-16.2c-7.9-2-15.6-2.8-21-3.3c0.4-0.9,1-1.8,1.6-2.8
			c0.7-1,1.4-2.1,2.3-3.2c12,1,49.4,5.7,71,28.6c1.6,1.7,3.7,2.5,5.8,2.5c2,0,3.9-0.7,5.5-2.2c3.2-3,3.4-8.1,0.3-11.3
			c-19.5-20.6-48.3-28.7-67.1-31.9c2.5-1.3,5.1-2.1,7.6-2.1c0.2,0,0.3,0,0.5,0c11.7,0.5,40.6,8.6,50.7,11.7l0.6,0.2l0.6,0.1
			c0.6,0.1,1.2,0.2,1.8,0.2c6.1,0.6,12.1-0.3,17.5-2.5c-2.2,18.1-2.3,44.4,6.3,77.6C91.5,288.2,70.9,265.1,65.8,257.5z M132.3,226.5
			c0.1-0.4,0.1-0.8,0.2-1.2c3.1-4.6,14.3-20.8,29-30.1c16.5-10.4,27.7-10.4,33.1-10.4l0.5,0c5.2,0,24.3,8.7,32.6,20.1
			c1.6,2.2,3.9,3.6,6.6,4.9c-2.1,2.3-4.3,4.8-6.4,7.4c-6.7-6.8-17.7-13.5-35.2-13.5c-27.2,0-39.4,18-43.4,25.7L132.3,226.5z
			 M362.6,229.5c-4-7.7-16.2-25.7-43.4-25.7c-17.5,0-28.5,6.6-35.2,13.5c-2.1-2.7-4.3-5.1-6.4-7.4c2.7-1.2,5-2.7,6.6-4.9
			c8.3-11.4,27.4-20.1,32.6-20.1l0.5,0c5.4,0,16.7,0,33.1,10.4c14.8,9.3,26.2,25.7,29.1,30.2c0,0.3,0.1,0.7,0.1,1.1L362.6,229.5z
			 M446.2,257.5c-5.1,7.6-25.7,30.7-56.7,45.6c8.6-33.3,8.5-59.6,6.3-77.6c5.4,2.2,11.4,3.1,17.5,2.5c0.6-0.1,1.2-0.1,1.8-0.2
			l0.6-0.1l0.6-0.2c10.1-3.1,39-11.2,50.7-11.7c2.6-0.1,5.4,0.7,8,2.1c-18.8,3.2-47.6,11.2-67.1,31.9c-3,3.2-2.9,8.3,0.3,11.3
			c1.5,1.5,3.5,2.2,5.5,2.2c2.1,0,4.2-0.8,5.8-2.5c21.6-22.9,59-27.7,71-28.6c0.9,1.1,1.6,2.2,2.3,3.2c0.6,1,1.2,1.9,1.6,2.8
			C481.8,239.1,456.5,242.3,446.2,257.5z"/>
	</g>
</g>
<g>
	<path class="st1" d="M506.3,226.4c-1.8-2.6-6.6-9.5-13.5-15.6c-8.8-7.7-17.7-11.5-26.3-11.1c-15.2,0.6-48.8,10.6-54.1,12.2
		c-0.2,0-0.4,0.1-0.7,0.1c-9.5,1-18.6-4.7-22.2-13.8c-0.1-0.1-0.1-0.3-0.1-0.4c-5-13-12.9-32-22.5-49.2c-4.1-7.4-9.3-15.3-15.5-23.4
		c-11.8-15.5-28.8-26.2-47.8-30.1c-0.6-0.1-1.4-0.3-2.3-0.5c-8.7-1.8-26.7-5.7-45.2-5.7c-18.6,0-36.6,3.8-45.2,5.7
		c-0.9,0.2-1.6,0.3-2.3,0.5c-19.1,3.9-36,14.6-47.8,30.1c-6.2,8.1-11.4,15.9-15.5,23.4c-9.6,17.2-17.5,36.2-22.5,49.2
		c0,0.1-0.1,0.2-0.1,0.3c-3.6,9.1-12.7,14.8-22.2,13.9c-0.2,0-0.4,0-0.7-0.1c-5.2-1.6-38.9-11.5-54.1-12.2
		c-19.9-0.8-35.5,20.2-39.9,26.7c-2,2.9-8.1,13.2-4.7,20.8c1.5,3.4,4.5,5.6,8.2,6.2c0.8,0.1,1.9,0.2,3.6,0.3
		c21.7,1.6,35,5.9,39.7,12.8c6.7,10,33,39.3,72.6,55.3c2,0.8,3.5,2.4,4.3,4.4c4.8,12.4,14.8,35.1,27.3,48.7l1.6,1.8
		c16.8,18.4,42.2,46.3,97.6,46.3v-16c-48.3,0-70-23.8-85.8-41.1l-1.6-1.8c-11-12.1-20.5-34.4-24.1-43.6c-11.2-32-13.9-58.4-13.4-78
		l15.6,2.7c1.9,0.3,3.9,0.3,5.7-0.1c2.9,4.3,7.3,8.5,13.1,12.2c8.9,5.6,19.3,9.1,27.2,9.1c1.6,0,3.3-0.2,5.1-0.5
		c-7.4,8.9-15.6,19.5-21,28.6c-11.8,19.9-20.5,42.4-20.9,43.3c-1.6,4.1,0.4,8.8,4.6,10.4c1,0.4,1.9,0.5,2.9,0.5
		c3.2,0,6.2-1.9,7.5-5.1c0.1-0.2,8.7-22.2,19.8-40.9c8.3-14.1,24.7-32.8,32.2-41.1c0.4,0.2,0.8,0.4,1.2,0.5
		c14.8,5.6,26.5,1.8,32.1-1c3.5,1.7,9.4,3.9,16.9,3.9c4.5,0,9.7-0.8,15.2-2.9c0.4-0.2,0.8-0.3,1.2-0.5c7.5,8.3,23.8,27,32.2,41.1
		c11.1,18.7,19.7,40.7,19.8,40.9c1.2,3.2,4.3,5.1,7.5,5.1c1,0,1.9-0.2,2.9-0.5c4.1-1.6,6.2-6.2,4.6-10.4
		c-0.4-0.9-9.1-23.4-20.9-43.3c-5.4-9.1-13.6-19.7-21-28.6c1.8,0.3,3.5,0.5,5.1,0.5c7.9,0,18.3-3.5,27.2-9.1
		c5.8-3.7,10.2-7.8,13.1-12.2c1.8,0.4,3.8,0.4,5.7,0.1l15.7-2.7c0.4,18.4-2,45.1-13.5,78c-3.6,9.2-13.1,31.5-24.1,43.6l-1.6,1.8
		C326,383.3,304.4,407,256,407v16c55.4,0,80.8-27.9,97.6-46.3l1.6-1.8c12.4-13.6,22.4-36.4,27.3-48.7c0.8-2,2.4-3.6,4.3-4.4
		c39.7-16,65.9-45.3,72.6-55.3c4.6-6.9,18-11.1,39.7-12.8c1.6-0.1,2.7-0.2,3.6-0.3c3.7-0.5,6.7-2.8,8.2-6.2
		C514.4,239.6,508.2,229.4,506.3,226.4z M65.8,257.5c-5.1-7.5-14.2-12.9-27.3-16.2c-7.9-2-15.6-2.8-21-3.3c0.4-0.9,1-1.8,1.6-2.8
		c0.7-1,1.4-2.1,2.3-3.2c12,1,49.4,5.7,71,28.6c1.6,1.7,3.7,2.5,5.8,2.5c2,0,3.9-0.7,5.5-2.2c3.2-3,3.4-8.1,0.3-11.3
		c-19.5-20.6-48.3-28.7-67.1-31.9c2.7-1.4,5.4-2.2,8-2.1c11.7,0.5,40.6,8.6,50.7,11.7l0.6,0.2l0.6,0.1c0.6,0.1,1.2,0.2,1.8,0.2
		c6.1,0.6,12.1-0.3,17.5-2.5c-2.2,18.1-2.3,44.4,6.3,77.6C91.5,288.2,70.9,265.1,65.8,257.5z M132.3,226.5c0.1-0.4,0.1-0.8,0.2-1.2
		c3.1-4.6,14.3-20.8,29-30.1c16.5-10.4,27.7-10.4,33.1-10.4l0.5,0c5.2,0,24.3,8.7,32.6,20.1c1.6,2.2,3.9,3.6,6.6,4.9
		c-2.1,2.3-4.3,4.8-6.4,7.4c-6.7-6.8-17.7-13.5-35.2-13.5c-27.2,0-39.4,18-43.4,25.7L132.3,226.5z M164.8,234.7
		c4.4-7.2,12.6-14.9,28-14.9c11.6,0,20.3,3.7,25.9,11.1l0.3,0.4l0.4,0.4c0,0,0.2,0.2,0.4,0.6c-1.4,6.9-17.8,18.1-27.1,18.1
		C183.2,250.4,167.2,241.1,164.8,234.7z M263.1,246.8c-4.4-2.2-9.7-2.2-14.1,0c-3.5,1.7-9,3.2-16,1.5c2.9-5.7,3.7-10.9,3.3-15.3
		c5-7.7,11.6-14.4,16.4-18.9c2.3-2,3.3-5,2.8-7.9c-0.9-5.5-5.8-7.4-11-9.4c-1.3-0.5-3.4-1.3-4.4-1.9c-10.7-14-33.4-25.9-45-25.9
		l-0.5,0c-6.4,0-21.3,0-41.7,12.8c-3.2,2-6.3,4.3-9.2,6.7c4.3-10.1,9.5-21.5,15.4-32.1c3.8-6.8,8.5-14,14.2-21.4
		c9.5-12.4,23.1-21,38.3-24.1c0.7-0.1,1.5-0.3,2.4-0.5c8.1-1.7,25-5.3,41.9-5.3c16.9,0,33.8,3.6,41.9,5.3c0.9,0.2,1.7,0.4,2.4,0.5
		c15.3,3.1,28.9,11.7,38.3,24.1c5.7,7.5,10.5,14.7,14.2,21.4c5.9,10.6,11.1,22,15.4,32.1c-2.9-2.4-5.9-4.7-9.2-6.7
		c-20.4-12.9-35.3-12.9-41.7-12.8l-0.5,0c-11.6,0-34.3,11.9-45,25.9c-1,0.5-3.1,1.4-4.4,1.9c-5.2,2-10.1,3.9-11,9.4
		c-0.5,3,0.6,5.9,2.8,7.9c4.8,4.5,11.3,11.2,16.4,18.9c-0.4,4.4,0.3,9.6,3.3,15.2C272,250,266.5,248.5,263.1,246.8z M319.3,250.4
		c-9.2,0-25.5-11.2-27-18.1c0.2-0.3,0.3-0.5,0.4-0.7l0.6-0.8c5.6-7.4,14.3-11.1,25.9-11.1c15.3,0,23.6,7.7,28,14.9
		C344.8,241.1,328.8,250.4,319.3,250.4z M362.6,229.5c-4-7.7-16.2-25.7-43.4-25.7c-17.5,0-28.5,6.6-35.2,13.5
		c-2.1-2.7-4.3-5.1-6.4-7.4c2.7-1.2,5-2.7,6.6-4.9c8.3-11.4,27.4-20.1,32.6-20.1l0.5,0c5.4,0,16.7,0,33.1,10.4
		c14.8,9.3,26.2,25.7,29.1,30.2c0,0.3,0.1,0.7,0.1,1.1L362.6,229.5z M446.2,257.5c-5.1,7.6-25.7,30.7-56.7,45.6
		c8.6-33.3,8.5-59.6,6.3-77.6c5.4,2.2,11.4,3.1,17.5,2.5c0.6-0.1,1.2-0.1,1.8-0.2l0.6-0.1l0.6-0.2c10.1-3.1,39-11.2,50.7-11.7
		c0.2,0,0.3,0,0.5,0c2.5,0,5,0.8,7.6,2.1c-18.8,3.2-47.6,11.2-67.1,31.9c-3,3.2-2.9,8.3,0.3,11.3c1.5,1.5,3.5,2.2,5.5,2.2
		c2.1,0,4.2-0.8,5.8-2.5c21.6-22.9,59-27.7,71-28.6c0.9,1.1,1.6,2.2,2.3,3.2c0.6,1,1.2,1.9,1.6,2.8
		C481.8,239.1,456.5,242.3,446.2,257.5z"/>
	<path class="st1" d="M256.1,325.6c13,0,21.2-2.2,28.4-4.2c5.5-1.5,9.8-2.6,15.5-2.6c2.9,0,5.7,1.4,7.5,3.7l6.1,8.2
		c1.6,2.1,4,3.2,6.4,3.2c1.7,0,3.3-0.5,4.8-1.6c3.5-2.6,4.3-7.7,1.6-11.2l-6.1-8.2c-4.8-6.4-12.3-10.2-20.3-10.2
		c-7.8,0-13.8,1.6-19.6,3.2c-6.6,1.8-13.4,3.6-24.3,3.6c-10.9,0-17.7-1.8-24.3-3.6c-5.8-1.6-11.8-3.2-19.6-3.2
		c-7.9,0-15.5,3.8-20.3,10.2l-6.1,8.2c-2.6,3.5-1.9,8.6,1.6,11.2c1.4,1.1,3.1,1.6,4.8,1.6c2.4,0,4.8-1.1,6.4-3.2l6.1-8.2
		c1.8-2.3,4.6-3.7,7.5-3.7c5.7,0,10,1.2,15.5,2.6c7.2,2,15.4,4.2,28.4,4.2c0,0,0,0,0,0c0,0,0.1,0,0.1,0S256.1,325.6,256.1,325.6
		C256.1,325.6,256.1,325.6,256.1,325.6z"/>
	<circle class="st1" cx="319.6" cy="233.5" r="10"/>
	<circle class="st1" cx="192.4" cy="233.5" r="10"/>
</g>
</svg>
