<?xml version="1.0" encoding="utf-8"?>
<!-- Generator: Adobe Illustrator 21.0.0, SVG Export Plug-In . SVG Version: 6.00 Build 0)  -->
<svg version="1.1" id="Layer_1" xmlns="http://www.w3.org/2000/svg" xmlns:xlink="http://www.w3.org/1999/xlink" x="0px" y="0px"
	 viewBox="0 0 512 512" style="enable-background:new 0 0 512 512;" xml:space="preserve">
<style type="text/css">
	.st0{fill:#C9CBCF;}
	.st1{fill:#555E6B;}
</style>
<g>
	<path class="st0" d="M431.3,93.4c0.1-0.2,0.3-0.4,0.8-0.4c0.4,0,0.7,0.2,0.8,0.4l13.7,31.6h-28.9L431.3,93.4z M335,207.1
		c-14.3-11.1-30.8-19.6-48.3-24.7l-3-46.7c31.5,6.2,60.6,19.9,85,40.1L335,207.1z M69.3,246.2l12.4-24.3c27-44,72.7-75.8,125.2-86.2
		l-3,46.8c-41.8,12.2-75.2,42-91.2,81L69.3,246.2C69.4,246.2,69.4,246.2,69.3,246.2z M61.7,335.4c-0.2,0-0.3-0.1-0.4-0.1v-42.7
		c0.1,0,0.2-0.1,0.4-0.1l25.2,1.6v39.7L61.7,335.4z M421.3,381.8c-13.9,33.3-37.7,61.7-68.6,82.1c-31.7,20.9-68.8,32-107.4,32
		c0,0,0,0,0,0c-38.6,0-75.7-11.1-107.4-32c-30.9-20.4-54.6-48.8-68.6-82.1c0,0,0,0,0.1,0l43.5-17.3c21.4,52.2,73.5,86.8,132.4,86.9
		v0c0,0,0.1,0,0.1,0s0.1,0,0.1,0v0c58.9-0.1,111-34.6,132.4-86.8L421.3,381.8C421.3,381.8,421.3,381.8,421.3,381.8z M429,292.5
		c0.2,0,0.3,0.1,0.4,0.1v42.7c-0.1,0-0.2,0.1-0.4,0.1l-25.2-1.6v-39.7L429,292.5z M421.3,246.1C421.3,246.2,421.3,246.2,421.3,246.1
		l-91.4,36.3l82.7-54.3C415.8,234,418.7,240,421.3,246.1z"/>
</g>
<path class="st1" d="M447.5,87c-2.6-6.1-8.7-10-15.4-10s-12.8,3.9-15.4,10l-19.2,44.3v17.7l-5.4,5L319.5,12.5l-0.2-0.4
	C314.9,4.6,306.7,0,297.9,0h-25.2c-9,0-16.3,7.2-16.3,16v58.8h-22.1V16c0-8.8-7.3-16-16.3-16h-25.2c-8.8,0-17,4.6-21.4,12.1
	l-0.1,0.2L67.9,214c-5.1,8.4-9.6,17.1-13.4,26.1c-1.7,4-1.6,8.3,0,12.2c1.7,4,4.9,7.1,8.9,8.7l46.8,18.6l-47.5-3
	c-4.6-0.3-9.1,1.3-12.3,4.4c-3.2,3-5,7.2-5,11.6v42.9c0,4.3,1.8,8.6,5,11.6c3,2.9,7.1,4.4,11.3,4.4c0.4,0,0.7,0,1.1,0l47.6-3
	L63.5,367c-4.1,1.6-7.3,4.7-8.9,8.7c-1.7,3.9-1.7,8.3,0,12.2c15.2,36.3,40.9,67.2,74.5,89.4c34.2,22.6,74.4,34.6,116,34.7v0
	c0.1,0,0.1,0,0.2,0c0,0,0,0,0,0c0.1,0,0.1,0,0.2,0v0c41.7,0,81.8-12,116-34.7c33.6-22.2,59.4-53.1,74.5-89.4c1.7-4,1.7-8.3,0-12.2
	c-1.7-4-4.9-7.1-8.9-8.7l-46.8-18.6l47.6,3.1c0.4,0,0.7,0,1.1,0c4.2,0,8.3-1.6,11.3-4.4c3.2-3,5-7.2,5-11.6v-42.9
	c0-4.3-1.8-8.6-5-11.6c-3.3-3.1-7.8-4.7-12.3-4.4l-47.6,3.1l46.8-18.6c4.1-1.6,7.3-4.7,8.9-8.7c1.7-3.9,1.7-8.3,0-12.2
	c-3-7.1-6.4-14-10.1-20.7l33.5-22c4.5-3,7.2-8,7.2-13.4v-52.6L447.5,87z M431.3,93.4c0.1-0.2,0.3-0.4,0.8-0.4c0.4,0,0.7,0.2,0.8,0.4
	l13.7,31.6h-28.9L431.3,93.4z M387.8,295.2v37.6l-94.6-6.1c1.2-4.1,1.8-8.3,1.8-12.7c0-0.2,0-0.5,0-0.7l0,0l0-0.1
	c0-1.5-0.1-3-0.3-4.4l-0.5-7.5L387.8,295.2z M197.5,326.7l-94.6,6.1v-37.6l93.6,6l-0.5,7.5c-0.2,1.5-0.3,2.9-0.3,4.4l0,0.1l0,0
	c0,0.2,0,0.5,0,0.7C195.7,318.4,196.4,322.7,197.5,326.7z M225.8,90.9c0,0,0.1-0.1,0.3-0.1h38.4c0.2,0,0.3,0.1,0.3,0.1l0,0.4
	l11.8,185.5C268,270,257.2,266,245.3,266c-11.8,0-22.7,4-31.2,10.7l11.8-185.5L225.8,90.9z M212,310.2c2-15.9,16.2-28.2,33.4-28.2
	c17.2,0,31.4,12.4,33.4,28.2l0.2,3.8c0,17.6-15.1,32-33.6,32c-18.5,0-33.6-14.3-33.6-32L212,310.2z M287.7,199.6
	c12.7,4.3,24.7,10.7,35.4,18.6l-32.3,30L287.7,199.6z M335,207.1c-14.3-11.1-30.8-19.6-48.3-24.7l-3-46.7
	c31.5,6.2,60.6,19.9,85,40.1L335,207.1z M272.7,16h25.2c3.1,0,5.9,1.5,7.5,4l73.4,143.4c-27.6-22.7-60.6-37.9-96.2-44.2l-1.8-28
	c0.1-4.1-1.4-8.2-4.3-11.3c-1.2-1.3-2.6-2.4-4.2-3.2V16.1C272.4,16.1,272.5,16,272.7,16z M185.3,20c1.5-2.5,4.4-4,7.5-4h25.2
	c0.2,0,0.3,0.1,0.3,0.1v60.7c-1.5,0.8-3,1.9-4.2,3.2c-2.9,3.1-4.4,7.1-4.3,11.3l-1.8,28c-33.5,5.9-65.2,19.9-91.9,40.6
	c-1.5,1.2-3,2.4-4.5,3.6L185.3,20z M69.3,246.2l12.4-24.3c27-44,72.7-75.8,125.2-86.2l-3,46.8c-41.8,12.2-75.2,42-91.2,81
	L69.3,246.2C69.4,246.2,69.4,246.2,69.3,246.2z M127.7,269.4c13.4-32.7,40.8-58,75.2-69.7l-5.4,85.6l-35.7-2.3L127.7,269.4z
	 M61.7,335.4c-0.2,0-0.3-0.1-0.4-0.1v-42.7c0.1,0,0.2-0.1,0.4-0.1l25.2,1.6v39.7L61.7,335.4z M421.3,381.8
	c-13.9,33.3-37.7,61.7-68.6,82.1c-31.7,20.9-68.8,32-107.4,32c0,0,0,0,0,0c-38.6,0-75.7-11.1-107.4-32
	c-30.9-20.4-54.6-48.8-68.6-82.1c0,0,0,0,0.1,0l43.5-17.3c21.4,52.2,73.5,86.8,132.4,86.9v0c0,0,0.1,0,0.1,0s0.1,0,0.1,0v0
	c58.9-0.1,111-34.6,132.4-86.8L421.3,381.8C421.3,381.8,421.3,381.8,421.3,381.8z M363,358.7c-19,46.2-65.3,76.7-117.6,76.7
	c-52.4,0-98.7-30.6-117.7-76.8l34.1-13.6l43.4-2.8c9,11.9,23.6,19.7,40,19.7s31-7.8,40-19.7l43.4,2.8L363,358.7z M429,292.5
	c0.2,0,0.3,0.1,0.4,0.1v42.7c-0.1,0-0.2,0.1-0.4,0.1l-25.2-1.6v-39.7L429,292.5z M421.3,246.1C421.3,246.2,421.3,246.2,421.3,246.1
	l-91.4,36.3l82.7-54.3C415.8,234,418.7,240,421.3,246.1z M297,285l-3.8,0.2l-1-16.4l121.3-112.8V141h37.3v43L297,285z"/>
</svg>
