<?xml version="1.0" encoding="utf-8"?>
<!-- Generator: Adobe Illustrator 21.0.0, SVG Export Plug-In . SVG Version: 6.00 Build 0)  -->
<svg version="1.1" id="Layer_1" xmlns="http://www.w3.org/2000/svg" xmlns:xlink="http://www.w3.org/1999/xlink" x="0px" y="0px"
	 viewBox="0 0 512 512" style="enable-background:new 0 0 512 512;" xml:space="preserve">
<style type="text/css">
	.st0{fill:#555E6B;}
</style>
<path class="st0" d="M498.4,95.2L475.1,55c-7.1-12.3-20.4-19.9-34.6-19.9c0,0,0,0,0,0L73.2,35.2h0c-13.9,0-27,7.4-34.2,19.3L14,95.8
	c-7.7,12.7-7.7,28.5-0.2,41.1l187.8,320.5c7.2,12,20.3,19.5,34.3,19.5h43c14.1,0,27.4-7.6,34.5-19.8l180.4-313.7l0,0c0,0,0,0,0,0
	l4.5-7.8C505.6,123.1,505.6,107.7,498.4,95.2z M440.5,51.1C440.5,51.1,440.5,51.1,440.5,51.1c8.5,0,16.5,4.6,20.8,12l23.3,40.2
	c1.6,2.8,2.6,5.9,3,9c-4.1-3.2-9.1-4.9-14.5-4.9c-0.1,0-0.2,0-0.3,0l-269.3,0c-8.7,0-16.5,4.5-20.9,12.1c-4.3,7.6-4.2,16.6,0.2,24.1
	l64.4,108.6l-24.9,43c-2.1,3.6-5.5,4-6.9,4c0,0,0,0,0,0c-1.4,0-4.9-0.4-6.9-4.1L74.6,63.2c-2.1-3.6-0.8-6.8-0.1-8c0.7-1.2,2.8-4,7-4
	v0L440.5,51.1z M256.4,236.4l-25.2-42.5H281L256.4,236.4z M27.6,104.1l25-41.3c1.3-2.2,3-4.1,4.9-5.8c-0.5,4.9,0.6,9.9,3.2,14.3
	l133.9,231.9c4.3,7.5,12.1,12.1,20.8,12.1c0,0,0,0,0.1,0c8.7,0,16.4-4.5,20.8-12l63.2-109.4h49.1c4.2,0,6.2,2.8,6.9,4s2.1,4.4,0,8
	L221.6,437.7l-0.3,0.5c-1.5,3.1-4.4,3.5-5.6,3.6c-3,0.1-5.6-1.4-7.1-4l-181-309C23,121.2,23,111.7,27.6,104.1z M299.6,449
	c-4.3,7.3-12.2,11.9-20.7,11.9h-43c-4.9,0-9.6-1.5-13.5-4.2c5.7-1.8,10.5-5.7,13.2-11.3l133.8-231.7c4.3-7.5,4.3-16.5-0.1-24
	c-4.3-7.5-12.1-12-20.8-12H221.8l-25.2-42.4c-2.1-3.6-0.8-6.8-0.1-8c0.7-1.2,2.8-4,7-4l269.4,0c0,0,0.1,0,0.1,0c4.1,0,6.2,2.8,6.9,4
	c0.7,1.2,2.1,4.4,0,8L299.6,449z"/>
</svg>
