<?xml version="1.0" encoding="utf-8"?>
<!-- Generator: Adobe Illustrator 21.0.0, SVG Export Plug-In . SVG Version: 6.00 Build 0)  -->
<svg version="1.1" id="Layer_1" xmlns="http://www.w3.org/2000/svg" xmlns:xlink="http://www.w3.org/1999/xlink" x="0px" y="0px"
	 viewBox="0 0 512 512" style="enable-background:new 0 0 512 512;" xml:space="preserve">
<style type="text/css">
	.st0{fill:#C9CBCF;}
	.st1{fill:#555E6B;}
</style>
<g>
	<g>
		<path class="st0" d="M295.4,68.2l8.1,14.3l-42.6,24.6l-24.3-42.2l38.2-22.2C282.9,49.9,289.8,58.5,295.4,68.2z M152.7,30
			c16.1-9.3,34-14,52.1-14c3.8,0,7.6,0.2,11.4,0.6L109.4,78.3C118.2,58.1,133.2,41.3,152.7,30z M183,152.1l-12-20.7l20.8-12l12,20.7
			L183,152.1z M121.8,386.9l27.9,16.1h-27.9V386.9z M319.7,275.1l-38.1,22l-23-39.8l23.7-41c0.6-1,1.1-2.1,1.6-3.2L319.7,275.1z
			 M395.6,373c0.8,2.8,1.2,5.7,1.2,8.6c0,7.3-2.5,14.4-7.1,20.1c-0.4,0.4-0.9,0.8-1.4,1.4h-39.8c-2.1,0-4,0.7-5.7,1.8
			c-0.3-0.3-0.6-0.5-0.9-0.8L395.6,373z"/>
	</g>
</g>
<g>
	<path class="st1" d="M471.5,498.3l-53-90.3c-1.8-3.1-5.1-5-8.7-5h-2.2c3.3-6.6,5.1-13.9,5.1-21.4c0-6-1.1-11.9-3.3-17.4
		c3.8-3.7,6.3-8.5,7.1-13.9l7.4-51.9c3.7-3.1,6.5-7.3,7.7-12.1c1.7-6.2,0.8-12.7-2.4-18.2l-108-186.5l-12-21.3
		c-16.1-27.9-42.1-47.8-73.2-56.1c-31.1-8.3-63.6-4.1-91.4,12S96.9,58.2,88.6,89.3c-8.3,31.1-4.1,63.6,12,91.4l15.9,28.3l0.1-0.1
		l41.3,71L107,368c-0.9,1.5-1.3,3.2-1.2,4.9h0V403h-3.6c-3.6,0-6.9,1.9-8.7,5l-53,90.3c-1.7,2.7-1.8,6.1-0.2,9
		c1.6,2.9,4.6,4.7,7.9,4.7h169.3c3.3,0,6.3-1.8,7.9-4.7c1.5-2.8,1.4-6.2-0.2-9l-53-90.3c-0.1-0.2-0.3-0.4-0.4-0.6
		c0.4-0.4,0.7-0.9,1-1.4l28.9-50.1l18.9,32.7c3.2,5.6,8.4,9.5,14.6,11.2c2.1,0.6,4.2,0.8,6.2,0.8c2.8,0,5.6-0.5,8.3-1.5l50.7,18.8
		c2.7,1,5.5,1.5,8.4,1.5c4.2,0,8.3-1.1,12-3.2l7-4c1.8,2.2,3.9,4.2,6,6.1l-47,80.1c-1.7,2.7-1.8,6.1-0.2,9c1.6,2.9,4.6,4.7,7.9,4.7
		h169.3c3.3,0,6.3-1.8,7.9-4.7C473.3,504.4,473.2,501,471.5,498.3z M295.4,68.2l8.1,14.3l-42.6,24.6l-24.3-42.2l38.2-22.2
		C282.9,49.9,289.8,58.5,295.4,68.2z M152.7,30c16.1-9.3,34-14,52.1-14c3.8,0,7.6,0.2,11.4,0.6L109.4,78.3
		C118.2,58.1,133.2,41.3,152.7,30z M102.3,100.8l136.9-79.1c7.7,2.7,14.9,6.1,21.7,10.4l-32.4,18.9c-3.7,2.1-6.3,5.6-7.5,9.7
		c-1.1,4.1-0.5,8.4,1.6,12.1l24.4,42.2l-29.4,17l-12-20.7c-4.4-7.6-14.2-10.3-21.9-5.9l-20.8,12c-7.6,4.4-10.3,14.2-5.9,21.9
		l12,20.7L122.5,187l-8-14.3C101.8,150.8,97.6,125.5,102.3,100.8z M183,152.1l-12-20.7l20.8-12l12,20.7L183,152.1z M121.8,386.9
		l27.9,16.1h-27.9V386.9z M205.3,496H60.4l45.2-77h54.5L205.3,496z M162.4,391.9l-38.1-22l90.5-156.8c3.3,7.1,8.6,13.1,15.5,17.1
		c5.9,3.4,12.4,5.1,18.9,5.1c1.2,0,2.4-0.1,3.6-0.2L162.4,391.9z M319.7,275.1l-38.1,22l-23-39.8l23.7-41c0.6-1,1.1-2.1,1.6-3.2
		L319.7,275.1z M268.4,208.3L268.4,208.3c-2.9,5.1-7.7,8.7-13.4,10.3s-11.6,0.7-16.7-2.2c-5.1-2.9-8.7-7.7-10.3-13.4
		s-0.7-11.6,2.2-16.7c4.1-7,11.5-11,19.1-11c3.7,0,7.5,0.9,11,2.9C270.9,184.3,274.5,197.8,268.4,208.3z M211,339.9l38.4-66.6
		l18.4,31.8c2.1,3.7,5.6,6.3,9.7,7.5c1.4,0.4,2.8,0.6,4.2,0.6c2.8,0,5.5-0.7,8-2.1l38.1-22c7.6-4.4,10.3-14.2,5.9-21.9l-51-88.3l0,0
		c-3.2-5.8-8-10.8-14.2-14.4c-18.1-10.5-41.4-4.2-51.9,13.9l-49.4,85.6l-36.6-63l181-104.5l104,179.7c1.1,1.9,1.4,4,0.8,6.1
		c-0.6,2.1-1.9,3.8-3.7,4.8l-167.2,96.5c-1.8,1.1-4,1.3-6.1,0.8c-2.1-0.6-3.8-1.9-4.9-3.7L211,339.9z M312.8,402.3
		c-2.1,1.2-4.5,1.4-6.8,0.6l-37.9-14l138.1-79.8l-5.6,38.9c-0.4,2.4-1.8,4.6-3.9,5.8h0L312.8,402.3z M395.6,373
		c0.8,2.8,1.2,5.7,1.2,8.6c0,7.3-2.5,14.4-7.1,20c-0.4,0.4-0.9,0.8-1.4,1.4h-39.8c-2.1,0-4,0.7-5.7,1.8c-0.3-0.3-0.6-0.5-0.9-0.8
		L395.6,373z M306.7,496l45.2-77h54.5l45.2,77H306.7z"/>
	<circle class="st1" cx="274.5" cy="70.3" r="12"/>
</g>
</svg>
