<?xml version="1.0" encoding="utf-8"?>
<!-- Generator: Adobe Illustrator 21.0.0, SVG Export Plug-In . SVG Version: 6.00 Build 0)  -->
<svg version="1.1" id="Layer_1" xmlns="http://www.w3.org/2000/svg" xmlns:xlink="http://www.w3.org/1999/xlink" x="0px" y="0px"
	 viewBox="0 0 512 512" style="enable-background:new 0 0 512 512;" xml:space="preserve">
<style type="text/css">
	.st0{fill:#C9CBCF;}
	.st1{fill:#555E6B;}
</style>
<g>
	<path class="st0" d="M282.3,306.2H257h0h-25.3c-0.2-8.9-0.3-23.9-0.1-39.3H257h0h25.4C282.7,282.3,282.5,297.3,282.3,306.2z
		 M257,250.9L257,250.9h-25c0.4-9.7,1-18.7,1.9-25.5c9.8-44.5,20.2-51.4,22.2-52.4c0.5-0.3,1.3-0.3,1.9,0c2,0.9,12.4,7.9,22.2,52.4
		c1,6.8,1.6,15.8,1.9,25.5H257z M257,322.2L257,322.2h24.7l-4.4,81.3H257h-20.3l-4.4-81.3H257z M137.9,457.1L137.9,457.1V328.4H160
		v103.3v25.4L137.9,457.1z M192.1,457.1l-16,0v-9.4h16V457.1z M321.9,457.1v-9.4h16v9.4H321.9z M376.1,456.9L376.1,456.9v0.2H354
		v-25.4V328.4h22.2L376.1,456.9z"/>
</g>
<path class="st1" d="M434.1,127.4c-4.4,0-8,3.6-8,8v144.8h-14.2c-0.4-8.4-1.2-16.6-2.7-23.1c-5-20.9-21.2-51.5-22.9-54.6
	c-1.6-3.5-22.6-48.7-43.5-95.6c-11.3-25.4-18.4-77.5-20.3-92.8c-1-8-7.8-14-15.9-14h-27.8c-8.8,0-16,7.2-16,16v36.5h-11.2V16
	c0-8.8-7.2-16-16-16h-27.8c-8.1,0-14.9,6-15.9,14c-1.9,15.4-9,67.4-20.3,92.8c-20.9,46.9-41.9,92.1-43.5,95.6
	c-1.7,3.2-17.9,33.7-22.9,54.6c-1.6,6.5-2.4,14.8-2.7,23.1H87.9V135.4c0-4.4-3.6-8-8-8s-8,3.6-8,8v205c0,4.4,3.6,8,8,8s8-3.6,8-8
	v-44.2h14c0.1,6.5,0.3,12.4,0.6,17.1c0.5,8.5,7.5,15.1,16,15.1h3.3l0,128.5c-0.1,4.3,1.6,8.4,4.6,11.4c3,3.1,7.1,4.8,11.4,4.8H160
	V496h-22.9c-4.4,0-8,3.6-8,8s3.6,8,8,8h61.7c4.4,0,8-3.6,8-8s-3.6-8-8-8H176v-22.9h16c8.8,0,16-7.2,16-16v-9.4H257h0h48.9v9.4
	c0,8.8,7.2,16,16,16h16V496h-22.9c-4.4,0-8,3.6-8,8s3.6,8,8,8h61.7c4.4,0,8-3.6,8-8s-3.6-8-8-8H354v-22.9h22.2
	c4.3,0,8.4-1.7,11.4-4.8c3-3.1,4.6-7.1,4.6-11.4l0-128.5h3.3c8.5,0,15.5-6.6,16-15.1c0.3-4.7,0.5-10.6,0.6-17.1h14v44.2
	c0,4.4,3.6,8,8,8s8-3.6,8-8v-205C442.1,131,438.5,127.4,434.1,127.4z M250.2,68.5h13.6c8.2,0,14.8-6.6,14.8-14.8V16l26.1,0l-3.1,172
	c-0.3,16-1.8,31.9-4.5,47.6c-0.4-4.7-0.8-9-1.3-12.7l-0.1-0.6c-7.9-36.3-18.4-57.7-31-63.7c-4.9-2.3-10.8-2.3-15.7,0
	c-12.6,6-23,27.4-31,63.7l-0.1,0.6c-0.5,3.7-1,8.1-1.3,12.7c-2.6-15.7-4.1-31.6-4.5-47.6l-3.1-172h26.1v37.7
	C235.4,61.9,242,68.5,250.2,68.5z M282.3,306.2H257h0h-25.3c-0.2-8.9-0.3-23.9-0.1-39.3H257h0h25.4
	C282.7,282.3,282.5,297.3,282.3,306.2z M257,250.9L257,250.9h-25c0.4-9.7,1-18.7,1.9-25.5c9.8-44.5,20.2-51.4,22.2-52.4
	c0.5-0.3,1.3-0.3,1.9,0c2,0.9,12.4,7.9,22.2,52.4c1,6.8,1.6,15.8,1.9,25.5H257z M257,322.2L257,322.2h24.7l-4.4,81.3H257h-20.3
	l-4.4-81.3H257z M137.9,457.1L137.9,457.1l0-128.7H160v103.3v25.4L137.9,457.1z M192.1,457.1l-16,0v-9.4h16V457.1z M321.9,457.1
	v-9.4h16v9.4H321.9z M376.1,456.9L376.1,456.9v0.2H354v-25.4V328.4h22.2L376.1,456.9z M395.5,312.4H354c-8.8,0-16,7.2-16,16v103.3
	h-81h0h-81V328.4c0-8.8-7.2-16-16-16l-41.5,0c-0.6-10.7-1.5-37,1.9-51.6c4.7-19.6,21.4-50.6,21.6-50.9l0.2-0.4
	c0.2-0.5,21.9-47.3,43.7-96c3.2-7.2,6.1-16.1,8.6-25.6l1.8,100.6c0.8,36.5,7.2,72.4,19.2,106.9c0.1,11.1,0.3,18.9,0.4,19.8l4.8,89.3
	c0.5,8.5,7.5,15.1,16,15.1h40.7c8.5,0,15.5-6.6,16-15.1l4.8-89.1l0-0.2c0-0.9,0.2-8.8,0.4-19.8c11.9-34.5,18.4-70.4,19.2-106.9
	l1.8-100.5c2.5,9.5,5.4,18.4,8.6,25.6c21.8,48.7,43.5,95.5,43.7,96l0.2,0.4c0.2,0.3,16.9,31.4,21.6,50.9
	C397,275.4,396.1,301.7,395.5,312.4z"/>
</svg>
