<?xml version="1.0" encoding="utf-8"?>
<!-- Generator: Adobe Illustrator 21.0.0, SVG Export Plug-In . SVG Version: 6.00 Build 0)  -->
<svg version="1.1" id="Layer_1" xmlns="http://www.w3.org/2000/svg" xmlns:xlink="http://www.w3.org/1999/xlink" x="0px" y="0px"
	 viewBox="0 0 512 512" style="enable-background:new 0 0 512 512;" xml:space="preserve">
<style type="text/css">
	.st0{fill:#C9CBCF;}
	.st1{fill:#555E6B;}
</style>
<g>
	<g>
		<path class="st0" d="M146.7,36.1C172.8,22.6,208.9,16,257,16s84.2,6.6,110.3,20.1c12.6,6.5,18.9,16.5,22.1,24.3
			C363.1,54.9,314.8,47,257,47c-57.8,0-106.1,7.9-132.4,13.4C127.8,52.6,134.2,42.6,146.7,36.1z"/>
	</g>
	<g>
		<path class="st0" d="M426.7,225.8"/>
	</g>
	<g>
		<line class="st0" x1="312.6" y1="286" x2="313.1" y2="287.1"/>
	</g>
	<g>
		<path class="st0" d="M257,161c49,0,114.5,10.1,133.8,18.3c19.1,8.2,27.1,16.6,20.5,42.5c-6.7,26.3-19.3,75.2-45.5,91.7
			c-5.9,3.7-9.9,3.1-12.3,2.4c-12.6-4-22.4-27.4-25.6-35l-0.5-1.2c-10.7-25.4-34-67.9-70.4-67.9s-59.7,42.6-70.4,67.9l-0.5,1.2
			c-3.2,7.7-13,31.1-25.6,35c-2.4,0.8-6.4,1.4-12.3-2.4c-26.2-16.5-38.8-65.4-45.5-91.7c-6.6-25.9,1.3-34.3,20.5-42.5
			C142.5,171.1,208,161,257,161"/>
	</g>
	<g>
		<path class="st0" d="M397.1,164.6"/>
	</g>
	<g>
		<path class="st0" d="M257,472.3c-5.5,0-10-4.5-10-10c0-5.5,4.4-9.9,9.9-10h0.1c5.5,0,10,4.5,10,10S262.5,472.3,257,472.3z"/>
	</g>
</g>
<g>
	<path class="st1" d="M472.8,231.9c-0.9-2-1.8-3.8-2.6-5.5c-5.3-10.7-10.1-19-12.2-22.6c-0.3-45.5-8.3-100-12.5-111.5
		c-5.1-14-15.6-21.8-38-27.8c-2.3-10-9.8-30.7-32.8-42.6C346.3,7.2,307.8,0,257,0c-50.8,0-89.3,7.2-117.7,21.9
		c-23,11.9-30.5,32.6-32.8,42.6c-22.4,6-32.9,13.7-38,27.8c-4.2,11.6-12.2,66.1-12.5,111.5c-2.1,3.6-6.8,11.9-12.2,22.6
		c-0.8,1.6-1.7,3.5-2.6,5.5c-13.7,29.4-18.8,62.3-14.5,95c0.1,1,0.3,2.1,0.4,3.1c2.4,20.7,24,33.5,24.9,34l31.1,17.2
		c7.8,26.3,8.9,44.9,8.9,58.6c0,16.1,19.1,22.1,34.4,26.9c5.9,1.8,11.4,3.6,14.7,5.4c10.3,5.7,37.1,23.2,48,33.5
		c4.4,4.1,10.2,6.4,16.3,6.4H257h51.5c6.1,0,11.9-2.3,16.3-6.4c10.9-10.3,37.7-27.8,48-33.5c3.3-1.9,8.9-3.6,14.7-5.4
		c15.3-4.8,34.4-10.9,34.4-26.9c0-13.7,1.1-32.3,8.9-58.6l31-17.1l0.1-0.1c0.6-0.3,5.8-3.4,11.3-8.8c7.9-7.7,12.6-16.4,13.6-25.2
		c0.1-1,0.2-2.1,0.4-3.1C491.6,294.1,486.5,261.3,472.8,231.9z M146.7,36.1C172.8,22.6,208.9,16,257,16c48.1,0,84.2,6.6,110.3,20.1
		c12.6,6.5,18.9,16.5,22.1,24.3C363.1,54.9,314.8,47,257,47c-57.8,0-106.1,7.9-132.4,13.4C127.8,52.6,134.2,42.6,146.7,36.1z
		 M42.9,328.1c-0.1-1.1-0.3-2.2-0.4-3.3c-3.8-29.7,0.7-59.5,13.2-86.1c0.5-1.1,1-2.1,1.5-3.1c2.8,39.8,10.2,91.8,19,123.5l-16.2-9
		C59.1,349.5,44.4,340.4,42.9,328.1z M215,496V354c0-23.2,18.8-42,42-42c23.2,0,42,18.8,42,42v142h-42H215z M406,439.7
		c0,4.3-15.7,9.3-23.2,11.7c-6.6,2.1-12.9,4.1-17.7,6.7c-10.9,6-37.6,23.5-50.1,34.8V354c0-32-26-58-58-58v0c0,0,0,0,0,0s0,0,0,0v0
		c-32,0-58,26-58,58v138.9c-12.6-11.4-39.2-28.8-50.1-34.8c-4.7-2.6-11-4.6-17.7-6.7c-7.5-2.4-23.2-7.3-23.2-11.7
		c0-16.8-1.5-40.6-13.4-75.3C82.4,328.9,72,247.7,72,206c0-44.2,8.1-98.8,11.5-108.3c2.5-6.9,6.6-13,31.8-18.9
		C135.4,74,189.5,63,257,63s121.6,11,141.7,15.8c25.2,5.9,29.3,12.1,31.8,18.9c3.4,9.4,11.5,64,11.5,108.3
		c0,41.7-10.4,122.9-22.6,158.4C407.5,399.1,406,422.9,406,439.7z M471.5,324.8c-0.1,1.1-0.3,2.2-0.4,3.3c-1.2,10.5-12.7,19.4-17,22
		l-16.2,9c8.8-31.7,16.2-83.7,19-123.5c0.5,1,1,2,1.5,3.1C470.7,265.3,475.3,295.1,471.5,324.8z"/>
	<path class="st1" d="M284,132c4.4,0,8-3.6,8-8V88c0-4.4-3.6-8-8-8s-8,3.6-8,8v36C276,128.4,279.6,132,284,132z"/>
	<path class="st1" d="M257,130c4.4,0,8-3.6,8-8V86c0-4.4-3.6-8-8-8c-4.4,0-8,3.6-8,8v36C249,126.4,252.6,130,257,130z"/>
	<path class="st1" d="M230,132c4.4,0,8-3.6,8-8V88c0-4.4-3.6-8-8-8s-8,3.6-8,8v36C222,128.4,225.6,132,230,132z"/>
	<path class="st1" d="M397.1,164.6C373.9,154.8,304.5,145,257,145v16c49,0,114.5,10.1,133.8,18.3c19.1,8.2,27.1,16.6,20.5,42.5
		c-6.7,26.3-19.3,75.2-45.5,91.7c-5.9,3.7-9.9,3.1-12.3,2.4c-12.6-4-22.4-27.4-25.6-35l-0.5-1.2c-10.7-25.4-34-67.9-70.4-67.9
		c-36.3,0-59.7,42.6-70.4,67.9l-0.5,1.2c-3.2,7.7-13,31.1-25.6,35c-2.4,0.8-6.4,1.4-12.3-2.4c-26.2-16.5-38.8-65.4-45.5-91.7
		c-6.6-25.9,1.3-34.3,20.5-42.5C142.5,171.1,208,161,257,161v-16c-47.5,0-116.9,9.7-140.1,19.6c-9.3,4-20.8,9.9-27.2,21
		c-6,10.3-6.8,23.4-2.5,40.2c7.3,28.5,20.9,81.4,52.5,101.3c5.7,3.6,11.5,5.4,17.3,5.4c2.8,0,5.6-0.4,8.3-1.3
		c19.7-6.2,30.8-32.8,35.5-44.1l0.5-1.1c5.7-13.6,26.7-58.1,55.6-58.1c28.9,0,49.9,44.5,55.6,58.1l0.5,1.1
		c4.7,11.3,15.9,37.9,35.5,44.1c2.7,0.9,5.5,1.3,8.3,1.3c5.8,0,11.6-1.8,17.3-5.4c31.6-19.9,45.2-72.8,52.5-101.3
		c4.3-16.8,3.5-30-2.5-40.2C417.9,174.6,406.4,168.6,397.1,164.6z"/>
	<path class="st1" d="M257,436.3l-1.5,0l-0.1,0.1c-13.6,0.9-24.3,12.2-24.3,25.9c0,14.3,11.7,26,26,26c14.3,0,26-11.7,26-26
		C283,448,271.3,436.3,257,436.3z M257,472.3c-5.5,0-10-4.5-10-10c0-5.5,4.4-9.9,9.9-10h0.1c5.5,0,10,4.5,10,10
		S262.5,472.3,257,472.3z"/>
</g>
</svg>
