<?xml version="1.0" encoding="utf-8"?>
<!-- Generator: Adobe Illustrator 21.0.0, SVG Export Plug-In . SVG Version: 6.00 Build 0)  -->
<svg version="1.1" id="Layer_1" xmlns="http://www.w3.org/2000/svg" xmlns:xlink="http://www.w3.org/1999/xlink" x="0px" y="0px"
	 viewBox="0 0 512 512" style="enable-background:new 0 0 512 512;" xml:space="preserve">
<style type="text/css">
	.st0{fill:#C9CBCF;}
	.st1{fill:#555E6B;}
</style>
<g>
	<path class="st0" d="M124.8,115.8l-78.9,28.7c-2,0.7-4.2,0.6-6.1-0.3c-1.9-0.9-3.4-2.5-4.1-4.5L24,107.8c-1.5-4.1,0.6-8.7,4.8-10.3
		l78.9-28.7c0.9-0.3,1.8-0.5,2.7-0.5c1.2,0,2.3,0.3,3.4,0.8c1.9,0.9,3.4,2.5,4.1,4.5l11.6,31.9C131.1,109.7,129,114.3,124.8,115.8z
		 M166,445.7c3.6-13.8,16.1-24,31-24h120c14.9,0,27.4,10.2,31,24H166z M490,107.8l-11.6,31.9c-0.7,2-2.2,3.6-4.1,4.5
		c-1.9,0.9-4.1,1-6.1,0.3l-78.9-28.7c-4.1-1.5-6.3-6.1-4.8-10.3L396,73.6c0.7-2,2.2-3.6,4.1-4.5c1.9-0.9,4.1-1,6.1-0.3l78.9,28.7
		C489.3,99,491.5,103.6,490,107.8z"/>
	<path class="st0" d="M267.3,362.5c-6.2,6.2-16.4,6.2-22.6,0c-6.2-6.2-6.2-16.4,0-22.6c4.1-4.1,28.4-21.4,64.2-45.8
		C287.3,332.2,271.2,358.6,267.3,362.5z"/>
</g>
<g>
	<path class="st1" d="M504.2,94.9c-2.7-5.8-7.5-10.2-13.5-12.4l-78.9-28.7c-9.7-3.5-20.2-0.4-26.5,7c-2.8-0.3-5.5-0.5-8.1-0.5h-2.9
		v0c-46.2,0.5-70.4,40.9-70.4,80.7c0,3.8,0.1,7.7,0.3,11.5c0.5,13.5,0.9,27.6-4.3,35.5c-0.6,1-1.3,1.8-1.9,2.7
		c-13.3-3.3-27-4.9-40.9-4.9c-14,0-27.7,1.7-40.9,4.9c-0.6-0.9-1.2-1.7-1.9-2.7c-5.3-7.9-4.8-21.9-4.3-35.5
		c0.1-3.8,0.3-7.7,0.3-11.5c0-39.8-24.2-80.2-70.4-80.7l-2.9,0c-2.6,0-5.3,0.2-8.1,0.5c-6.3-7.4-16.8-10.5-26.5-7L23.3,82.5
		C10.9,87,4.5,100.8,9,113.3l11.6,31.9c2.2,6,6.6,10.8,12.4,13.5c3.2,1.5,6.7,2.3,10.1,2.3c2.8,0,5.5-0.5,8.2-1.5l78.9-28.7
		c7.3-2.6,12.5-8.5,14.7-15.3c3.4,3.1,5.2,9.3,5.2,18.4l0,2.5c0,24.5,0,57.2,10.8,78.9c-1.7,1.2-3.5,2.4-5.2,3.7
		c-29.5,21.8-50.9,51.9-61.7,87l-16.8,54.7c-7.4,23.9-3.1,49.2,11.8,69.3c14.9,20.1,37.7,31.7,62.7,31.7h210.4
		c25,0,47.9-11.5,62.7-31.7s19.2-45.4,11.8-69.3L419.9,306c-10.8-35.1-32.1-65.2-61.7-87c-1.7-1.3-3.4-2.5-5.2-3.7
		c10.8-21.7,10.8-54.4,10.8-78.9l0-2.5c0-9.1,1.7-15.3,5.1-18.4c0.3,1,0.7,1.9,1.1,2.9c2.7,5.8,7.5,10.2,13.5,12.4l78.9,28.7
		c2.7,1,5.5,1.4,8.2,1.4c9.8,0,19-6.1,22.6-15.8l11.6-31.9C507.2,107.2,506.9,100.7,504.2,94.9z M124.8,115.8l-78.9,28.7
		c-2,0.7-4.2,0.6-6.1-0.3c-1.9-0.9-3.4-2.5-4.1-4.5L24,107.8c-0.7-2-0.6-4.2,0.3-6.1c0.9-1.9,2.5-3.4,4.5-4.1l78.9-28.7
		c0.9-0.3,1.8-0.5,2.7-0.5c1.2,0,2.3,0.3,3.4,0.8c1.9,0.9,3.4,2.5,4.1,4.5l11.6,31.9C131.1,109.7,129,114.3,124.8,115.8z
		 M166.1,136.5l0-2.5c0-16.3-4.8-27.5-14.4-33.2c-2.5-1.5-5.1-2.5-7.9-3L136,76.3c0.3,0,0.6,0,0.8,0h2c26.6,0,55.3,20.2,55.3,64.7
		c0,3.5-0.1,7.1-0.2,10.9c-0.5,15.5-1,31.5,6.2,43.5c-8.8,3.1-17.3,6.9-25.5,11.5C166.1,188.7,166.1,158.8,166.1,136.5z M166,445.7
		c3.6-13.8,16.1-24,31-24h120c14.9,0,27.4,10.2,31,24H166z M404.6,310.7l16.8,54.7c5.8,19,2.4,39.1-9.4,55.1
		c-11.4,15.4-28.7,24.5-47.8,25.1c-3.8-22.6-23.6-39.9-47.3-39.9H197c-23.7,0-43.5,17.3-47.3,39.9c-19.1-0.6-36.4-9.7-47.8-25.1
		c-11.8-16-15.2-36.1-9.4-55.1l16.8-54.7c9.8-31.8,29.1-59.1,55.9-78.8s58.5-30.2,91.8-30.2c33.3,0,65,10.4,91.8,30.2
		C375.5,251.7,394.9,278.9,404.6,310.7z M362.3,100.7c-9.5,5.7-14.4,16.9-14.4,33.2l0,2.5c0,22.4,0,52.2-8.5,70.4
		c-8.2-4.5-16.7-8.4-25.5-11.5c7.2-12.1,6.7-28,6.2-43.5c-0.1-3.8-0.2-7.4-0.2-10.9c0-44.5,28.7-64.7,55.3-64.7h2c0.3,0,0.6,0,0.8,0
		l-7.8,21.4C367.4,98.2,364.7,99.2,362.3,100.7z M490,107.8l-11.6,31.9c-1.5,4.1-6.1,6.3-10.3,4.8l-78.9-28.7
		c-2-0.7-3.6-2.2-4.5-4.1c-0.9-1.9-1-4.1-0.3-6.1L396,73.6c1.5-4.1,6.1-6.3,10.3-4.8l78.9,28.7c2,0.7,3.6,2.2,4.5,4.1
		C490.6,103.6,490.7,105.8,490,107.8z"/>
	<path class="st1" d="M335.7,265.1c-3.1-2.8-7.6-3.2-11.1-0.8c-24.6,16.6-82.8,56-91.2,64.3c-12.5,12.5-12.5,32.8,0,45.3
		c6.2,6.2,14.4,9.4,22.6,9.4c8.2,0,16.4-3.1,22.6-9.4c8.3-8.3,40.4-64.8,58.8-97.7C339.5,272.4,338.8,267.9,335.7,265.1z
		 M267.3,362.5L267.3,362.5c-6.2,6.2-16.4,6.2-22.6,0c-6.2-6.2-6.2-16.4,0-22.6c4.1-4.1,28.4-21.4,64.2-45.8
		C287.3,332.2,271.2,358.6,267.3,362.5z"/>
	<path class="st1" d="M344.9,312c-1.6-4.1-6.3-6.1-10.4-4.5c-4.1,1.6-6.1,6.2-4.5,10.4c2.7,6.8,4,14.1,4,21.7v3.9c0,4.4,3.6,8,8,8
		h20c4.4,0,8-3.6,8-8s-3.6-8-8-8h-12.1C349.5,327.3,347.8,319.5,344.9,312z"/>
	<path class="st1" d="M280.8,273.7c4.2,1.3,8.7-1,10-5.3c1.3-4.2-1-8.7-5.3-10c-6.7-2.1-13.6-3.4-20.6-4v-12.3c0-4.4-3.6-8-8-8
		c-4.4,0-8,3.6-8,8v12.3c-31.8,2.7-60.4,21-76,49.2c-5.3,9.5-8.3,20.4-8.9,31.7H152c-4.4,0-8,3.6-8,8s3.6,8,8,8h20c4.4,0,8-3.6,8-8
		v-3.9c0-10.1,2.4-19.8,7-28.1c14.1-25.5,40.9-41.3,70-41.3C265.1,270.1,273.1,271.3,280.8,273.7z"/>
</g>
</svg>
