<?xml version="1.0" encoding="utf-8"?>
<!-- Generator: Adobe Illustrator 21.0.0, SVG Export Plug-In . SVG Version: 6.00 Build 0)  -->
<svg version="1.1" id="Layer_1" xmlns="http://www.w3.org/2000/svg" xmlns:xlink="http://www.w3.org/1999/xlink" x="0px" y="0px"
	 viewBox="0 0 512 512" style="enable-background:new 0 0 512 512;" xml:space="preserve">
<style type="text/css">
	.st0{fill:#C9CBCF;}
	.st1{fill:#555E6B;}
</style>
<g>
	<g>
		<path class="st0" d="M257,244.8C257,244.8,257,244.8,257,244.8L257,244.8c-34.4,0-45,14-54.4,26.3c-2.3,3-4.4,5.8-6.9,8.5
			c-21.6,23.1-59.5,25.6-77.7,12.2c-24.5-18-36-38.3-38.3-69H257h0h177.3c-2.3,30.6-13.8,51-38.3,69c-18.2,13.3-56.1,10.9-77.7-12.2
			c-2.5-2.7-4.6-5.5-6.9-8.5C302,258.8,291.4,244.8,257,244.8L257,244.8C257,244.8,257,244.8,257,244.8z"/>
	</g>
	<g>
		<path class="st0" d="M369.7,460.8c-5.5,0-10-4.5-10-10s4.5-10,10-10s10,4.5,10,10S375.3,460.8,369.7,460.8z"/>
	</g>
</g>
<g>
	<path class="st1" d="M488.6,338.4c-15.2-25.2-21.2-75.4-21.8-80.4l0-82.2c0-46.1-17.9-89.9-50.4-123.3
		C383.7,18.8,340.4,0.2,294.6,0.2H257h0h-37.5c-45.8,0-89.1,18.6-121.9,52.3C65,85.9,47.1,129.7,47.1,175.8l0,82.2
		c-0.6,5-6.6,55.1-21.8,80.4c-9,14.9-9.9,34.5-2.6,56.8c5.8,17.9,16.6,36.6,30.4,52.7l0.2,0.3c24.2,28.3,54.3,63.6,98.8,63.6
		c21.7,0,37.2-8,52.1-15.8c15.5-8.1,30.1-15.7,52.6-15.7c22.5,0,37.1,7.6,52.6,15.7c14.9,7.8,30.4,15.8,52.1,15.8
		c44.6,0,74.7-35.2,98.8-63.6l0.2-0.3c13.8-16.1,24.6-34.8,30.4-52.7C498.5,373,497.6,353.4,488.6,338.4z M257,347.8
		C257,347.8,257,347.8,257,347.8L257,347.8c-24,0-39.5,13.9-53.2,26.2c-13,11.7-24.3,21.8-41.8,21.8c-14.4,0-39.1-18.6-60.3-45.1
		c-24.2-30.5-38.7-64.9-38.7-92.2h0l0-35.7h0.5c2.5,36.1,16.2,60.9,44.9,81.9c10.7,7.8,23.8,11.3,37.3,11.3
		c23.1,0,47.2-10.1,61.6-25.5c3-3.2,5.5-6.5,7.9-9.7c8.5-11.2,15.2-20,41.7-20c26.5,0,33.2,8.8,41.7,20c2.4,3.2,4.9,6.4,7.9,9.7
		c14.3,15.3,38.4,25.5,61.6,25.5c13.5,0,26.6-3.4,37.3-11.3c28.7-21,42.4-45.8,44.9-81.9h0.5l0,35.7l0,0h0
		c0,27.2-14.5,61.7-38.7,92.2c-21.1,26.6-45.9,45.1-60.3,45.1c-17.4,0-28.7-10.1-41.8-21.8C296.5,361.7,281,347.9,257,347.8
		L257,347.8C257,347.8,257,347.8,257,347.8z M450.9,183.8l0,23H63.1l0-23H450.9z M257,244.8C257,244.8,257,244.8,257,244.8
		L257,244.8c-34.4,0-45,14-54.4,26.3c-2.3,3-4.4,5.8-6.9,8.5c-21.6,23.1-59.5,25.6-77.7,12.2c-24.5-18-36-38.3-38.3-69H257h0h177.3
		c-2.3,30.6-13.8,51-38.3,69c-18.2,13.3-56.1,10.9-77.7-12.2c-2.5-2.7-4.6-5.5-6.9-8.5C302,258.8,291.4,244.8,257,244.8L257,244.8
		C257,244.8,257,244.8,257,244.8z M109,63.6c29.7-30.6,69-47.4,110.4-47.4h75.1c41.5,0,80.7,16.8,110.4,47.4
		c27.7,28.5,43.7,65.2,45.7,104.2H63.3C65.3,128.9,81.3,92.1,109,63.6z M476,390.2c-5.1,15.7-15.1,33-27.4,47.3l-0.2,0.3
		c-23.2,27.2-49.5,58-86.7,58c-17.8,0-30.3-6.5-44.7-14c-15.7-8.2-33.6-17.5-60-17.5v0c0,0,0,0,0,0s0,0,0,0v0
		c-26.4,0-44.2,9.3-60,17.5c-14.5,7.5-26.9,14-44.7,14c-37.2,0-63.5-30.8-86.7-58l-0.2-0.3C53.1,423.2,43.1,406,38,390.2
		c-4-12.3-7.1-29.9,1.1-43.5c7.4-12.3,12.7-29.1,16.5-44.7c7.1,19.5,18.6,39.6,33.7,58.6c24.7,31.1,53.3,51.2,72.8,51.2
		c23.6,0,38.9-13.8,52.4-25.9c12.6-11.4,24.6-22.1,42.5-22.1c17.9,0,29.8,10.7,42.5,22.1c13.5,12.1,28.9,25.9,52.4,25.9
		c19.5,0,48.1-20.1,72.8-51.2c15.1-19,26.6-39.1,33.7-58.6c3.8,15.6,9.1,32.4,16.5,44.7C483.1,360.4,480,377.9,476,390.2z"/>
	<path class="st1" d="M369.7,424.8c-14.3,0-26,11.7-26,26s11.7,26,26,26s26-11.7,26-26S384.1,424.8,369.7,424.8z M369.7,460.8
		c-5.5,0-10-4.5-10-10s4.5-10,10-10s10,4.5,10,10S375.3,460.8,369.7,460.8z"/>
	<path class="st1" d="M70,348c-3.1-3.1-8.2-3.1-11.3,0l-16.2,16.2c-3.1,3.1-3.1,8.2,0,11.3c1.6,1.6,3.6,2.3,5.7,2.3s4.1-0.8,5.7-2.3
		L70,359.3C73.1,356.2,73.1,351.1,70,348z"/>
	<path class="st1" d="M85.5,372c-3.1-3.1-8.2-3.1-11.3,0L58,388.2c-3.1,3.1-3.1,8.2,0,11.3c1.6,1.6,3.6,2.3,5.7,2.3s4.1-0.8,5.7-2.3
		l16.2-16.2C88.6,380.2,88.6,375.1,85.5,372z"/>
	<path class="st1" d="M89.7,396l-16.2,16.2c-3.1,3.1-3.1,8.2,0,11.3c1.6,1.6,3.6,2.3,5.7,2.3s4.1-0.8,5.7-2.3l16.2-16.2
		c3.1-3.1,3.1-8.2,0-11.3C97.9,392.9,92.8,392.9,89.7,396z"/>
</g>
</svg>
