<?xml version="1.0" encoding="utf-8"?>
<!-- Generator: Adobe Illustrator 21.0.0, SVG Export Plug-In . SVG Version: 6.00 Build 0)  -->
<svg version="1.1" id="Layer_1" xmlns="http://www.w3.org/2000/svg" xmlns:xlink="http://www.w3.org/1999/xlink" x="0px" y="0px"
	 viewBox="0 0 512 512" style="enable-background:new 0 0 512 512;" xml:space="preserve">
<style type="text/css">
	.st0{fill:#C9CBCF;}
	.st1{fill:#555E6B;}
</style>
<g>
	<g>
		<path class="st0" d="M339.8,356.5c1.5,1.5,2.3,3.5,2.3,5.7l0,49.7c0,9.4-7.6,17-17,17c-9.4,0-17-7.6-17-17v-49.7c0-4.4,3.6-8,8-8
			h18C336.3,354.1,338.3,355,339.8,356.5z M256,16.2c5,0.5,9,4.3,9.6,9.4l5,43.9c-4.2-1.5-9.1-2.7-14.6-2.7
			c-5.6,0-10.5,1.1-14.5,2.5l5-43.7C247,20.6,251,16.7,256,16.2z M172.2,356.5c1.5-1.5,3.5-2.3,5.7-2.3h18c4.4,0,8,3.6,8,8v49.7
			c0,9.4-7.6,17-17,17c-9.4,0-17-7.6-17-17l0-49.7C169.9,360,170.7,358,172.2,356.5z M28.5,445.2c0,3.3-2.7,6-6,6s-6-2.7-6-6v-92
			c0-3.1,2.3-5.6,5.3-5.9c0.2,0,0.5,0,0.7,0s0.5,0,0.7,0c3,0.4,5.3,2.9,5.3,5.9V445.2z M495.5,445.2c0,3.3-2.7,6-6,6s-6-2.7-6-6v-92
			c0-3.1,2.3-5.6,5.3-5.9c0.2,0,0.5,0,0.7,0s0.5,0,0.7,0c3,0.4,5.3,2.9,5.3,5.9V445.2z"/>
	</g>
	<g>
		<path class="st0" d="M256,294.6h-4.6c-1.8,0-3.4-1.1-4-2.8c-3.1-8-4.1-16.8-2.9-25.4l7.3-52.1c0.3-2.1,2.1-3.7,4.3-3.7
			s4,1.6,4.3,3.7l7.3,52.1c1.2,8.5,0.2,17.3-2.9,25.4c-0.7,1.7-2.2,2.8-4,2.8H256"/>
	</g>
	<g>
		<path class="st0" d="M256,362.3c-4.4,0-8-3.6-8-8s3.6-8,8-8s8,3.6,8,8S260.4,362.3,256,362.3z"/>
	</g>
</g>
<g>
	<path class="st1" d="M497.5,332.7V189.5h6.5c4.4,0,8-3.6,8-8s-3.6-8-8-8h-6.5v-19.2c0-4.4-3.6-8-8-8s-8,3.6-8,8v19.2H475
		c-4.4,0-8,3.6-8,8s3.6,8,8,8h6.5v143.2c-8.2,3.2-14,11.2-14,20.5v8h-22.9c-1,0-2.1,0-3.1,0V219.3h4.2c4.4,0,8-3.6,8-8s-3.6-8-8-8
		h-4.2v-19.2c0-4.4-3.6-8-8-8s-8,3.6-8,8v19.2h-4.2c-4.4,0-8,3.6-8,8s3.6,8,8,8h4.2v141.2c-24.5-1.5-48.8-5.9-72.3-13
		c-0.6-0.8-1.3-1.6-2-2.3c-4.5-4.5-10.6-7-17-7h-16.9L281.5,23.8C280,11,269.7,1.2,257,0.3V0.2c-0.3,0-0.7,0-1,0c-0.3,0-0.7,0-1,0
		v0.1c-12.6,1-23,10.8-24.4,23.5l-35.8,314.3h-16.9c-6.4,0-12.4,2.5-17,7c-0.7,0.7-1.4,1.5-2,2.3c-23.6,7.2-47.8,11.5-72.3,13V219.3
		h4.2c4.4,0,8-3.6,8-8s-3.6-8-8-8h-4.2v-19.2c0-4.4-3.6-8-8-8s-8,3.6-8,8v19.2h-4.2c-4.4,0-8,3.6-8,8s3.6,8,8,8h4.2v141.8
		c-1,0-2.1,0-3.1,0H44.5v-8c0-9.3-5.8-17.3-14-20.5V189.5H37c4.4,0,8-3.6,8-8s-3.6-8-8-8h-6.5v-19.2c0-4.4-3.6-8-8-8s-8,3.6-8,8
		v19.2H8c-4.4,0-8,3.6-8,8s3.6,8,8,8h6.5v143.2c-8.2,3.2-14,11.2-14,20.5v92c0,12.1,9.9,22,22,22h0c8.7,0,16.3-5.1,19.9-12.5
		l48.8,10.6c28.8,6.2,58.2,9.5,87.7,9.9v28.8c0,4.4,3.6,8,8,8s8-3.6,8-8v-24.7l5.2,2.2c17.5,7.4,35.9,11.2,54.9,11.5v0
		c0.3,0,0.7,0,1,0c0.3,0,0.7,0,1,0v0c18.9-0.3,37.4-4.1,54.9-11.5l5.2-2.2v24.7c0,4.4,3.6,8,8,8s8-3.6,8-8V475
		c30.5-0.6,61-4.3,90.7-11.2l45.2-10.5c3.2,8.1,11.2,13.9,20.4,13.9c12.1,0,22-9.9,22-22v-92C511.5,343.8,505.7,335.9,497.5,332.7z
		 M339.8,356.5c1.5,1.5,2.3,3.5,2.3,5.7l0,49.7c0,9.4-7.6,17-17,17c-9.4,0-17-7.6-17-17v-49.7c0-4.4,3.6-8,8-8h18
		C336.3,354.1,338.3,355,339.8,356.5z M256,16.2c5,0.5,9,4.3,9.6,9.4l5,43.9c-4.2-1.5-9.1-2.7-14.6-2.7c-5.6,0-10.5,1.1-14.5,2.5
		l5-43.7C247,20.6,251,16.7,256,16.2z M172.2,356.5c1.5-1.5,3.5-2.3,5.7-2.3h18c4.4,0,8,3.6,8,8v49.7c0,9.4-7.6,17-17,17
		c-9.4,0-17-7.6-17-17l0-49.7C169.9,360,170.7,358,172.2,356.5z M28.5,445.2c0,3.3-2.7,6-6,6c-3.3,0-6-2.7-6-6v-92
		c0-3.1,2.3-5.6,5.3-5.9c0.2,0,0.5,0,0.7,0s0.5,0,0.7,0c3,0.4,5.3,2.9,5.3,5.9V445.2z M44.5,438.7v-61.6h22.9c3.2,0,6.4-0.1,9.5-0.2
		c0.5,0.1,1,0.2,1.5,0.2c0.7,0,1.4-0.1,2-0.3c24.8-1,49.4-4.8,73.3-11.3l0,46.2c0,15.4,10.7,28.4,25,32V459
		c-28.3-0.3-56.6-3.5-84.3-9.5L44.5,438.7z M305.7,466.6c-15.8,6.7-32.5,10.1-49.7,10.2c-17.2-0.1-33.9-3.6-49.7-10.2l-11.4-4.8
		v-17.9c14.4-3.6,25-16.6,25-32v-49.7c0-7.8-3.8-14.8-9.6-19.2l29-254.6c1.7-1.3,7.9-5.5,16.7-5.5c7.8,0,14.4,4.1,16.7,5.6l29,254.5
		c-5.8,4.4-9.6,11.3-9.6,19.2v49.7c0,15.4,10.7,28.4,25,32v17.9L305.7,466.6z M420.3,448.2c-28.6,6.6-57.8,10.2-87.1,10.8v-15.1
		c14.3-3.6,25-16.6,25-32l0-46.2c24,6.5,48.5,10.3,73.3,11.3c0.6,0.2,1.3,0.3,2,0.3c0.5,0,1-0.1,1.5-0.2c3.2,0.1,6.4,0.2,9.5,0.2
		h22.9v60.1L420.3,448.2z M495.5,445.2c0,3.3-2.7,6-6,6s-6-2.7-6-6v-92c0-3.1,2.3-5.6,5.3-5.9c0.2,0,0.5,0,0.7,0s0.5,0,0.7,0
		c3,0.4,5.3,2.9,5.3,5.9V445.2z"/>
	<path class="st1" d="M276.1,212.1c-1.4-10-10.1-17.5-20.1-17.5c-10.1,0-18.7,7.5-20.1,17.5l-7.3,52.1c-1.6,11.2-0.2,22.8,3.9,33.4
		c3,7.8,10.6,13,19,13h4.6v-16h-4.6c-1.8,0-3.4-1.1-4-2.8c-3.1-8-4.1-16.8-2.9-25.4l7.3-52.1c0.3-2.1,2.1-3.7,4.3-3.7
		c2.1,0,4,1.6,4.3,3.7l7.3,52.1c1.2,8.5,0.2,17.3-2.9,25.4c-0.7,1.7-2.2,2.8-4,2.8H256v16h4.6c8.5,0,15.9-5.1,19-13
		c4.1-10.6,5.4-22.1,3.9-33.4L276.1,212.1z"/>
	<path class="st1" d="M256,330.3c-13.2,0-24,10.8-24,24s10.8,24,24,24c13.2,0,24-10.8,24-24S269.2,330.3,256,330.3z M256,362.3
		c-4.4,0-8-3.6-8-8s3.6-8,8-8s8,3.6,8,8S260.4,362.3,256,362.3z"/>
</g>
</svg>
