<?xml version="1.0" encoding="utf-8"?>
<!-- Generator: Adobe Illustrator 21.0.0, SVG Export Plug-In . SVG Version: 6.00 Build 0)  -->
<svg version="1.1" id="Layer_1" xmlns="http://www.w3.org/2000/svg" xmlns:xlink="http://www.w3.org/1999/xlink" x="0px" y="0px"
	 viewBox="0 0 512 512" style="enable-background:new 0 0 512 512;" xml:space="preserve">
<style type="text/css">
	.st0{fill:#C9CBCF;}
	.st1{fill:#555E6B;}
</style>
<g>
	<g>
		<path class="st0" d="M333.2,243.2c14,7.9,28.3,12.7,42.9,14.3c3.3,0.4,6.9,2.3,6.9,6.5v0.3v0.3c0,4.2-3.5,6.1-6.9,6.5
			c-14.6,1.6-28.9,6.4-42.9,14.3c1.9-6.8,2.9-13.8,2.9-21.2C336,257,335,250,333.2,243.2z"/>
	</g>
	<g>
		<path class="st0" d="M136,271.1c-3.3-0.4-6.9-2.3-6.9-6.5v-0.3v-0.3c0-4.2,3.5-6.1,6.9-6.5c14.6-1.6,28.9-6.4,42.9-14.3
			C177,250,176,257,176,264.3c0,7.3,1,14.4,2.9,21.2C164.9,277.6,150.6,272.8,136,271.1z"/>
	</g>
	<g>
		<path class="st0" d="M256,280.3c-9.9,0-18-8.1-18-18s8.1-18,18-18s18,8.1,18,18S265.9,280.3,256,280.3z"/>
	</g>
</g>
<g>
	<path class="st1" d="M488.8,262.4l-13.7-69.6L440.5,35.4c-1.4-6.1-6-10.8-12.1-12.2c0,0,0,0,0,0c0,0,0,0,0,0c0,0,0,0,0,0
		c-6.1-1.3-12.3,0.9-16.1,5.9L347,114c-1,1.3-1.7,2.8-1.9,4.4l-17.7,101.9c-4.4-3.3-8.8-6.9-13.2-10.9l0,0
		c-14.6-15.4-35.2-25.1-58.1-25.1h0c-22.9,0-43.5,9.7-58.1,25.1l0,0c-4.3,4-8.7,7.6-13.1,10.9l-17.1-98.5c-0.7-3.8-2.3-7.5-4.6-10.5
		L99.8,29.1c-3.8-5-10-7.2-16.2-5.9c-6.1,1.4-10.8,6-12.1,12.2L36.9,192.6l-13.7,69.8c-0.3,1.3-0.3,2.6,0,3.8L36.9,336l34.8,141
		c1.4,5.7,5.8,10.1,11.4,11.6c0.3,0.1,0.6,0.1,0.9,0.2c0,0,0,0,0,0c0,0,0,0,0,0c1.1,0.2,2.1,0.3,3.2,0.3c4.3,0,8.5-1.8,11.6-5
		l64.3-67.6c2.2-2.3,3.6-5.2,4.2-8.3l17.4-99.9c4.7,3.5,9.4,7.4,14,11.8l0,0c14.5,14.9,34.8,24.2,57.2,24.2h0
		c22.4,0,42.7-9.3,57.2-24.2l0,0c4.6-4.3,9.3-8.3,14-11.8l17.4,99.9c0.5,3.1,2,6,4.2,8.3l64.3,67.7c3.1,3.2,7.3,5,11.6,5
		c1.1,0,2.1-0.1,3.2-0.3c0,0,0,0,0,0c0,0,0,0,0,0c0.3-0.1,0.6-0.1,0.9-0.2c5.7-1.5,10-6,11.4-11.6L475,336.2l13.7-70
		C489,264.9,489,263.7,488.8,262.4z M150.2,121c0.8,1,1.3,2.2,1.5,3.5l18.3,105.2c-10.7,5.9-21.6,9.7-32.5,11.4L98,53L150.2,121z
		 M52.6,195.9L82.8,58.4l39.4,187.7c-3.6,2.6-6.3,6.1-7.8,10.2H40.7L52.6,195.9z M83.1,456.5L52.5,332.6l-11.8-60.3h73.7
		c1.5,4.1,4.2,7.6,7.7,10.2L83.1,456.5z M151.5,405.5l-53.1,55.9l39-174c11,1.7,21.9,5.5,32.6,11.4L151.5,405.5z M136,271.1
		c-3.3-0.4-6.9-2.3-6.9-6.5v-0.3v-0.3c0-4.2,3.5-6.1,6.9-6.5c14.6-1.6,28.9-6.4,42.9-14.3C177,250,176,257,176,264.3
		c0,7.3,1,14.4,2.9,21.2C164.9,277.6,150.6,272.8,136,271.1z M256,328.3c-35.3,0-64-28.7-64-64c0-35.3,28.7-64,64-64
		c35.3,0,64,28.7,64,64C320,299.6,291.3,328.3,256,328.3z M360.5,122.6l53.3-69.4l-39.4,188c-11-1.7-21.8-5.5-32.5-11.4L360.5,122.6
		z M333.2,243.2c14,7.9,28.3,12.7,42.9,14.3c3.3,0.4,6.9,2.3,6.9,6.5v0.3v0.3c0,4.2-3.5,6.1-6.9,6.5c-14.6,1.6-28.9,6.4-42.9,14.3
		c1.9-6.7,2.9-13.8,2.9-21.2C336,257,335,250,333.2,243.2z M360.5,405.5l-18.6-106.6c10.7-5.9,21.6-9.8,32.6-11.4l39,174
		L360.5,405.5z M459.5,332.6l-30.6,123.9l-39-173.9c3.6-2.6,6.2-6.1,7.7-10.2h73.7L459.5,332.6z M397.5,256.3
		c-1.5-4.1-4.2-7.6-7.8-10.2l39.4-187.9l30.3,137.7l11.8,60.4H397.5z"/>
	<path class="st1" d="M256,228.3c-18.7,0-34,15.3-34,34c0,18.7,15.3,34,34,34c18.7,0,34-15.3,34-34C290,243.6,274.7,228.3,256,228.3
		z M256,280.3c-9.9,0-18-8.1-18-18c0-9.9,8.1-18,18-18c9.9,0,18,8.1,18,18C274,272.2,265.9,280.3,256,280.3z"/>
</g>
</svg>
